<svg width="197" height="69" viewBox="0 0 197 69" fill="none" xmlns="http://www.w3.org/2000/svg">
<path d="M83.975 22.4C85.975 24.32 87.095 26.48 87.295 28.92H83.535C83.095 27.08 82.215 25.6 80.975 24.52C79.655 23.44 77.855 22.92 75.535 22.92C72.735 22.92 70.455 23.92 68.695 25.88C66.975 27.88 66.095 30.92 66.095 35C66.095 38.36 66.895 41.08 68.455 43.16C70.015 45.28 72.375 46.32 75.455 46.32C78.335 46.32 80.495 45.24 82.015 43.04C82.815 41.88 83.415 40.36 83.775 38.44H87.575C87.255 41.48 86.135 44 84.215 46.04C81.935 48.52 78.855 49.76 75.015 49.76C71.655 49.76 68.855 48.72 66.615 46.72C63.615 44.04 62.135 39.92 62.135 34.36C62.135 30.12 63.255 26.64 65.495 23.96C67.895 21 71.255 19.52 75.495 19.52C79.135 19.52 81.975 20.48 83.975 22.4ZM91.6422 39.76C91.7222 41.36 92.0822 42.68 92.7622 43.72C94.0822 45.6 96.3222 46.56 99.6022 46.56C101.042 46.56 102.402 46.36 103.562 45.92C105.922 45.12 107.042 43.68 107.042 41.6C107.042 40.04 106.562 38.92 105.602 38.24C104.602 37.6 103.042 37.04 100.962 36.56L97.0422 35.68C94.5222 35.12 92.7222 34.48 91.6822 33.8C89.8422 32.6 88.9222 30.8 88.9222 28.4C88.9222 25.84 89.8422 23.72 91.6022 22.08C93.4022 20.4 95.9222 19.6 99.2022 19.6C102.202 19.6 104.762 20.32 106.882 21.76C108.962 23.2 110.002 25.56 110.002 28.72H106.362C106.162 27.2 105.762 26 105.122 25.2C103.922 23.68 101.882 22.96 99.0822 22.96C96.8022 22.96 95.1222 23.44 94.1222 24.4C93.1222 25.36 92.6422 26.48 92.6422 27.76C92.6422 29.16 93.2022 30.2 94.3622 30.84C95.1622 31.24 96.8822 31.76 99.6022 32.4L103.602 33.32C105.562 33.76 107.042 34.36 108.122 35.12C109.922 36.48 110.842 38.4 110.842 40.96C110.842 44.16 109.682 46.44 107.402 47.8C105.082 49.16 102.402 49.84 99.3222 49.84C95.7622 49.84 92.9622 48.92 90.9622 47.12C88.9222 45.28 87.9222 42.84 87.9622 39.76H91.6422ZM115.122 39.76C115.202 41.36 115.562 42.68 116.242 43.72C117.562 45.6 119.802 46.56 123.082 46.56C124.522 46.56 125.882 46.36 127.042 45.92C129.402 45.12 130.522 43.68 130.522 41.6C130.522 40.04 130.042 38.92 129.082 38.24C128.082 37.6 126.522 37.04 124.442 36.56L120.522 35.68C118.002 35.12 116.202 34.48 115.162 33.8C113.322 32.6 112.402 30.8 112.402 28.4C112.402 25.84 113.322 23.72 115.082 22.08C116.882 20.4 119.402 19.6 122.682 19.6C125.682 19.6 128.242 20.32 130.362 21.76C132.442 23.2 133.482 25.56 133.482 28.72H129.842C129.642 27.2 129.242 26 128.602 25.2C127.402 23.68 125.362 22.96 122.562 22.96C120.282 22.96 118.602 23.44 117.602 24.4C116.602 25.36 116.122 26.48 116.122 27.76C116.122 29.16 116.682 30.2 117.842 30.84C118.642 31.24 120.362 31.76 123.082 32.4L127.082 33.32C129.042 33.76 130.522 34.36 131.602 35.12C133.402 36.48 134.322 38.4 134.322 40.96C134.322 44.16 133.162 46.44 130.882 47.8C128.562 49.16 125.882 49.84 122.802 49.84C119.242 49.84 116.442 48.92 114.442 47.12C112.402 45.28 111.402 42.84 111.442 39.76H115.122Z" fill="#9CFE00"/>
<rect x="1.375" y="1" width="194" height="67" rx="33.5" stroke="#9CFE00" stroke-width="2"/>
</svg>
