<svg width="232" height="70" viewBox="0 0 232 70" fill="none" xmlns="http://www.w3.org/2000/svg">
<path d="M77.2411 45.1196L85.4411 20.8796H90.9211V49.5596H87.2411V32.6396C87.2411 32.0396 87.2411 31.0796 87.2811 29.7196C87.2811 28.3596 87.3211 26.9196 87.3211 25.3596L79.1211 49.5596H75.2811L67.0411 25.3596V26.2396C67.0411 26.9596 67.0811 27.9996 67.1211 29.4396C67.1211 30.8796 67.1611 31.9596 67.1611 32.6396V49.5596H63.4411V20.8796H69.0011L77.2411 45.1196ZM117.281 24.9596C119.161 27.5196 120.121 30.7596 120.121 34.7196C120.121 38.9996 119.041 42.5596 116.881 45.3996C114.321 48.7196 110.681 50.3996 105.961 50.3996C101.521 50.3996 98.0814 48.9196 95.5614 46.0396C93.2814 43.1996 92.1614 39.6396 92.1614 35.3596C92.1614 31.4796 93.1214 28.1596 95.0414 25.3996C97.5214 21.8796 101.201 20.0796 106.041 20.0796C111.081 20.0796 114.841 21.7196 117.281 24.9596ZM113.881 43.2396C115.401 40.7996 116.161 37.9596 116.161 34.7596C116.161 31.3996 115.281 28.6796 113.521 26.6396C111.721 24.5596 109.321 23.5596 106.281 23.5596C103.281 23.5596 100.881 24.5596 99.0014 26.5996C97.1214 28.6396 96.2014 31.6396 96.2014 35.5996C96.2014 38.7996 97.0014 41.4796 98.6014 43.6396C100.201 45.8396 102.801 46.9196 106.441 46.9196C109.841 46.9196 112.321 45.6796 113.881 43.2396ZM133.374 20.8796C137.334 20.8796 140.374 22.2796 142.574 25.0796C144.494 27.5996 145.454 30.8396 145.454 34.7596C145.454 37.8396 144.894 40.5596 143.734 43.0396C141.734 47.3996 138.254 49.5596 133.334 49.5596H121.774V20.8796H133.374ZM132.614 46.2396C133.894 46.2396 135.014 46.1196 135.854 45.8396C137.334 45.3196 138.574 44.3596 139.534 42.8796C140.294 41.7596 140.894 40.2796 141.214 38.4396C141.414 37.3596 141.494 36.3596 141.494 35.4396C141.494 31.8796 140.814 29.1196 139.374 27.1596C137.974 25.1996 135.694 24.1996 132.574 24.1996H125.654V46.2396H132.614ZM155.281 34.8396L145.681 20.8796H150.521L157.841 31.8396L165.121 20.8796H169.761L160.121 34.8396L170.201 49.5596H165.401L157.641 37.7596L149.721 49.5596H145.041L155.281 34.8396Z" fill="#9CFE00"/>
<rect x="1.48108" y="1.55957" width="229" height="67" rx="33.5" stroke="#9CFE00" stroke-width="2"/>
</svg>
