<svg width="244" height="70" viewBox="0 0 244 70" fill="none" xmlns="http://www.w3.org/2000/svg">
<path d="M76.9652 20.591C79.1652 20.591 80.9652 20.911 82.3652 21.551C85.0852 22.751 86.4052 25.031 86.4052 28.311C86.4052 30.031 86.0452 31.431 85.3652 32.551C84.6452 33.631 83.6452 34.511 82.3652 35.151C83.4852 35.631 84.3252 36.231 84.9252 36.951C85.4852 37.711 85.8052 38.911 85.8452 40.591L86.0052 44.431C86.0052 45.511 86.1252 46.351 86.2452 46.871C86.4852 47.791 86.8852 48.391 87.5252 48.631V49.271H82.7252C82.6052 49.031 82.5252 48.711 82.4452 48.311C82.3652 47.911 82.2852 47.151 82.2452 46.031L82.0052 41.271C81.8852 39.391 81.2052 38.151 79.9252 37.511C79.1652 37.151 78.0052 36.951 76.4052 36.951H67.5652V49.271H63.6852V20.591H76.9652ZM76.5652 33.711C78.3652 33.711 79.8052 33.351 80.8852 32.631C81.9252 31.911 82.4852 30.591 82.4852 28.671C82.4852 26.631 81.7252 25.231 80.2452 24.511C79.4452 24.111 78.4052 23.911 77.0452 23.911H67.5652V33.711H76.5652ZM110.152 24.111H93.0323V32.791H108.872V36.111H93.0323V45.871H110.472V49.271H89.2323V20.591H110.152V24.111ZM135.512 49.271H131.232L128.352 40.671H116.992L113.872 49.271H109.912L120.712 20.591H125.112L135.512 49.271ZM118.112 37.511H127.072L122.712 24.831L118.112 37.511ZM156.392 22.671C158.392 24.591 159.512 26.751 159.712 29.191L155.952 29.191C155.512 27.351 154.632 25.871 153.392 24.791C152.072 23.711 150.272 23.191 147.952 23.191C145.152 23.191 142.872 24.191 141.112 26.151C139.392 28.151 138.512 31.191 138.512 35.271C138.512 38.631 139.312 41.351 140.872 43.431C142.432 45.551 144.792 46.591 147.872 46.591C150.752 46.591 152.912 45.511 154.432 43.311C155.232 42.151 155.832 40.631 156.192 38.711H159.992C159.672 41.751 158.552 44.271 156.632 46.311C154.352 48.791 151.272 50.031 147.432 50.031C144.072 50.031 141.272 48.991 139.032 46.991C136.032 44.311 134.552 40.191 134.552 34.631C134.552 30.391 135.672 26.911 137.912 24.231C140.312 21.271 143.672 19.791 147.912 19.791C151.552 19.791 154.392 20.751 156.392 22.671ZM172.699 23.991V49.271H168.779V23.991H159.099V20.591H182.379V23.991H172.699Z" fill="#9CFE00"/>
<rect x="1.16516" y="1.271" width="241" height="67" rx="33.5" stroke="#9CFE00" stroke-width="2"/>
</svg>
