<svg width="197" height="69" viewBox="0 0 197 69" fill="none" xmlns="http://www.w3.org/2000/svg">
<path d="M82.055 20.32H86.415L75.975 49H71.855L61.375 20.32H65.695L73.935 44.76L82.055 20.32ZM91.1347 38.04C91.1347 40.12 91.4947 41.84 92.2947 43.24C93.4547 45.32 95.4147 46.36 98.1347 46.36C101.455 46.36 103.695 45.24 104.855 43C105.535 41.76 105.815 40.12 105.815 38.04V20.32H109.775V36.44C109.775 39.96 109.295 42.68 108.335 44.56C106.615 48.04 103.295 49.76 98.4547 49.76C93.6147 49.76 90.3347 48.04 88.6147 44.56C87.6547 42.68 87.1747 39.96 87.1747 36.44V20.32H91.1347V38.04ZM133.842 23.84H116.722V32.52H132.562V35.84H116.722V45.6H134.162V49H112.922V20.32H133.842V23.84Z" fill="#9CFE00"/>
<rect x="1.375" y="1" width="194" height="67" rx="33.5" stroke="#9CFE00" stroke-width="2"/>
</svg>
