<svg width="1160" height="219" viewBox="0 0 1160 219" fill="none" xmlns="http://www.w3.org/2000/svg">
<g style="mix-blend-mode:difference">
<path d="M0 216.568V2.55358H48.2123C59.116 2.55358 67.8634 4.74237 74.4544 9.11993C81.0455 13.4164 85.8057 19.6585 88.735 27.8462C91.7458 36.0339 93.2511 45.9239 93.2511 57.5164L93.3732 154.066C93.3732 168.091 91.8271 179.764 88.735 189.087C85.7243 198.328 80.842 205.219 74.0883 209.758C67.3345 214.298 58.343 216.568 47.1138 216.568H0ZM32.7111 191.275H43.4521C47.2765 191.275 50.45 190.505 52.9725 188.965C55.5764 187.425 57.4886 184.709 58.7091 180.818C60.0111 176.846 60.662 171.252 60.662 164.037L60.54 58.3676C60.54 47.4237 59.1974 39.5602 56.5121 34.7773C53.8269 29.9944 49.1074 27.603 42.3536 27.603H32.7111V191.275Z" fill="currentColor"/>
<path d="M111.267 216.568V2.55358H143.978V216.568H111.267Z" fill="currentColor"/>
<path d="M204.835 218.757C191.897 218.757 181.482 213.69 173.589 203.557C165.696 193.343 161.749 176.805 161.749 153.944V60.9212C161.749 51.3554 162.644 42.8029 164.434 35.2637C166.306 27.7246 169.154 21.3609 172.978 16.1727C176.884 10.9034 181.929 6.93115 188.113 4.25597C194.298 1.49972 201.743 0.121599 210.45 0.121599C219.889 0.121599 227.578 1.54026 233.518 4.37757C239.458 7.13381 244.015 11.1871 247.189 16.5375C250.444 21.8068 252.681 28.2921 253.902 35.9933C255.122 43.6946 255.733 52.4092 255.733 62.1371V77.337H225.219V54.9628C225.219 45.3159 224.201 38.4659 222.167 34.4125C220.214 30.3592 216.471 28.3326 210.938 28.3326C204.835 28.3326 200.604 30.724 198.244 35.5069C195.884 40.2088 194.704 48.5991 194.704 60.678V153.458C194.704 166.915 195.681 176.562 197.634 182.399C199.668 188.154 203.859 191.032 210.206 191.032C216.39 191.032 220.743 188.073 223.266 182.155C225.87 176.157 227.171 166.185 227.171 152.242V123.423H210.694V99.7113H255.733V216.568H241.086L236.082 195.531C234.291 202.908 230.467 208.624 224.608 212.677C218.831 216.73 212.24 218.757 204.835 218.757Z" fill="currentColor"/>
<path d="M274.725 216.568V2.55358H307.436V216.568H274.725Z" fill="currentColor"/>
<path d="M339.122 216.568V30.7646H313.978V2.55358H395.878V30.7646H371.711V216.568H339.122Z" fill="currentColor"/>
<path d="M383.013 216.568L413.649 2.55358H456.857L489.446 216.568H458.932L453.806 178.386H419.142L414.504 216.568H383.013ZM422.315 152.242H450.388L435.986 44.7485H435.497L422.315 152.242Z" fill="currentColor"/>
<path d="M496.477 216.568V2.55358H529.188V188.843H570.565V216.568H496.477Z" fill="currentColor"/>
<path d="M608.183 216.568V2.55358H656.395C667.299 2.55358 676.046 4.74237 682.637 9.11993C689.228 13.4164 693.988 19.6585 696.918 27.8462C699.929 36.0339 701.434 45.9239 701.434 57.5164L701.556 154.066C701.556 168.091 700.01 179.764 696.918 189.087C693.907 198.328 689.025 205.219 682.271 209.758C675.517 214.298 666.526 216.568 655.297 216.568H608.183ZM640.894 191.275H651.635C655.459 191.275 658.633 190.505 661.155 188.965C663.759 187.425 665.671 184.709 666.892 180.818C668.194 176.846 668.845 171.252 668.845 164.037L668.723 58.3676C668.723 47.4237 667.38 39.5602 664.695 34.7773C662.01 29.9944 657.29 27.603 650.536 27.603H640.894V191.275Z" fill="currentColor"/>
<path d="M718.717 216.568V2.55358H790.73V30.643H751.428V92.9017H788.778V120.383H751.428V188.479H792.195V216.568H718.717Z" fill="currentColor"/>
<path d="M843.044 219C834.093 219 826.607 217.622 820.585 214.866C814.645 212.028 809.926 207.934 806.427 202.584C803.009 197.153 800.568 190.586 799.104 182.885C797.639 175.103 796.906 166.267 796.906 156.376V137.285H827.909V158.808C827.909 170.32 828.885 178.589 830.838 183.615C832.791 188.641 836.656 191.154 842.434 191.154C846.339 191.154 849.269 190.262 851.222 188.479C853.256 186.614 854.599 183.696 855.249 179.723C855.982 175.67 856.348 170.401 856.348 163.916C856.348 155.89 854.639 148.554 851.222 141.906C847.885 135.259 842.8 128.368 835.965 121.234L820.097 104.94C815.703 100.4 811.716 95.5769 808.136 90.4697C804.637 85.3626 801.829 79.688 799.714 73.4459C797.68 67.1227 796.662 60.07 796.662 52.2876C796.662 41.0194 798.046 31.4942 800.812 23.7118C803.579 15.9295 808.258 10.0522 814.849 6.07996C821.44 2.02665 830.472 0 841.945 0C850.571 0 857.65 1.33759 863.183 4.01277C868.798 6.60689 873.151 10.4575 876.243 15.5647C879.417 20.5908 881.654 26.7518 882.956 34.0478C884.258 41.2626 884.909 49.5314 884.909 58.854V72.1083H854.761V56.7868C854.761 50.3015 854.395 44.9106 853.663 40.6141C853.012 36.3176 851.75 33.1155 849.879 31.0078C848.007 28.819 845.281 27.7246 841.701 27.7246C838.284 27.7246 835.517 28.4947 833.401 30.035C831.286 31.4942 829.74 33.8046 828.763 36.9661C827.868 40.0466 827.421 44.0594 827.421 49.0044C827.421 53.4631 827.99 57.3137 829.129 60.5564C830.269 63.799 832.018 66.92 834.378 69.9195C836.738 72.9189 839.667 76.2832 843.166 80.0122L860.864 99.1033C869.327 108.183 875.918 117.627 880.637 127.436C885.357 137.245 887.716 148.189 887.716 160.268C887.716 173.076 886.333 183.858 883.567 192.613C880.8 201.287 876.162 207.853 869.652 212.312C863.142 216.771 854.273 219 843.044 219Z" fill="currentColor"/>
<path d="M899.019 216.568V2.55358H931.73V216.568H899.019Z" fill="currentColor"/>
<path d="M992.587 218.757C979.649 218.757 969.234 213.69 961.341 203.557C953.448 193.343 949.501 176.805 949.501 153.944V60.9212C949.501 51.3554 950.397 42.8029 952.187 35.2637C954.058 27.7246 956.906 21.3609 960.731 16.1727C964.636 10.9034 969.681 6.93115 975.866 4.25597C982.05 1.49972 989.495 0.121599 998.202 0.121599C1007.64 0.121599 1015.33 1.54026 1021.27 4.37757C1027.21 7.13381 1031.77 11.1871 1034.94 16.5375C1038.2 21.8068 1040.43 28.2921 1041.65 35.9933C1042.87 43.6946 1043.48 52.4092 1043.48 62.1371V77.337H1012.97V54.9628C1012.97 45.3159 1011.95 38.4659 1009.92 34.4125C1007.97 30.3592 1004.22 28.3326 998.69 28.3326C992.587 28.3326 988.356 30.724 985.996 35.5069C983.637 40.2088 982.457 48.5991 982.457 60.678V153.458C982.457 166.915 983.433 176.562 985.386 182.399C987.42 188.154 991.611 191.032 997.958 191.032C1004.14 191.032 1008.5 188.073 1011.02 182.155C1013.62 176.157 1014.92 166.185 1014.92 152.242V123.423H998.446V99.7113H1043.48V216.568H1028.84L1023.83 195.531C1022.04 202.908 1018.22 208.624 1012.36 212.677C1006.58 216.73 999.992 218.757 992.587 218.757Z" fill="currentColor"/>
<path d="M1061.74 216.568V2.55358H1087.38L1132.9 130.962L1130.58 72.5947V2.55358H1160V216.568H1136.81L1090.06 83.6602L1091.89 139.839V216.568H1061.74Z" fill="currentColor"/>
</g>
</svg>
