<svg width="380" height="300" viewBox="0 0 380 300" fill="none" xmlns="http://www.w3.org/2000/svg">
<g style="mix-blend-mode:difference">
<path d="M0 144.499V2.08489H32.1068C39.3681 2.08489 45.1933 3.54139 49.5826 6.4544C53.9719 9.31346 57.1419 13.4672 59.0927 18.9156C61.0977 24.364 62.1002 30.9452 62.1002 38.6593L62.1815 102.907C62.1815 112.24 61.1519 120.008 59.0927 126.211C57.0877 132.361 53.8364 136.946 49.3388 139.967C44.8411 142.988 38.8533 144.499 31.3752 144.499H0ZM21.7838 127.668H28.9367C31.4836 127.668 33.597 127.155 35.2768 126.13C37.0109 125.106 38.2843 123.298 39.0971 120.709C39.9641 118.066 40.3976 114.344 40.3976 109.543L40.3164 39.2257C40.3164 31.9432 39.4222 26.7106 37.634 23.5279C35.8458 20.3451 32.7029 18.7538 28.2052 18.7538H21.7838V127.668Z" fill="currentColor"/>
<path d="M74.0976 144.499V2.08489H95.8814V144.499H74.0976Z" fill="currentColor"/>
<path d="M136.409 145.955C127.793 145.955 120.857 142.584 115.601 135.84C110.344 129.043 107.716 118.039 107.716 102.826V40.925C107.716 34.5595 108.312 28.8684 109.504 23.8515C110.751 18.8347 112.647 14.6 115.194 11.1476C117.795 7.64118 121.155 4.9979 125.273 3.21773C129.392 1.38361 134.35 0.466553 140.148 0.466553C146.434 0.466553 151.555 1.41058 155.511 3.29864C159.466 5.13276 162.501 7.82999 164.614 11.3903C166.782 14.8967 168.272 19.2123 169.085 24.337C169.898 29.4618 170.304 35.2608 170.304 41.7342V51.8488H149.983V36.9601C149.983 30.5407 149.306 25.9823 147.951 23.2851C146.651 20.5879 144.158 19.2393 140.473 19.2393C136.409 19.2393 133.591 20.8306 132.02 24.0134C130.448 27.1422 129.663 32.7254 129.663 40.7632V102.503C129.663 111.458 130.313 117.877 131.613 121.761C132.968 125.591 135.759 127.506 139.986 127.506C144.104 127.506 147.003 125.537 148.683 121.599C150.417 117.607 151.284 110.972 151.284 101.694V82.5163H140.311V66.7375H170.304V144.499H160.55L157.218 130.5C156.025 135.409 153.479 139.212 149.577 141.909C145.73 144.606 141.34 145.955 136.409 145.955Z" fill="currentColor"/>
<path d="M182.952 144.499V2.08489H204.736V144.499H182.952Z" fill="currentColor"/>
<path d="M225.837 144.499V20.8576H209.092V2.08489H263.633V20.8576H247.539V144.499H225.837Z" fill="currentColor"/>
<path d="M255.066 144.499L275.468 2.08489H304.242L325.945 144.499H305.624L302.21 119.091H279.126L276.037 144.499H255.066ZM281.239 101.694H299.934L290.343 30.163H290.018L281.239 101.694Z" fill="currentColor"/>
<path d="M330.627 144.499V2.08489H352.41V126.05H379.965V144.499H330.627Z" fill="currentColor"/>
<path d="M0 298.382V155.968H32.1068C39.3681 155.968 45.1933 157.424 49.5826 160.337C53.9719 163.196 57.1419 167.35 59.0927 172.799C61.0977 178.247 62.1002 184.828 62.1002 192.542L62.1815 256.79C62.1815 266.123 61.1519 273.891 59.0927 280.094C57.0877 286.244 53.8364 290.829 49.3388 293.85C44.8411 296.871 38.8533 298.382 31.3752 298.382H0ZM21.7838 281.551H28.9367C31.4836 281.551 33.597 281.038 35.2768 280.013C37.0109 278.989 38.2843 277.181 39.0971 274.592C39.9641 271.949 40.3977 268.227 40.3977 263.426L40.3164 193.109C40.3164 185.826 39.4222 180.594 37.634 177.411C35.8458 174.228 32.7029 172.637 28.2052 172.637H21.7838V281.551Z" fill="currentColor"/>
<path d="M73.6099 298.382V155.968H121.567V174.66H95.3937V216.089H120.266V234.376H95.3937V279.69H122.542V298.382H73.6099Z" fill="currentColor"/>
<path d="M156.405 300C150.444 300 145.459 299.083 141.449 297.249C137.493 295.361 134.35 292.637 132.02 289.076C129.744 285.462 128.118 281.092 127.143 275.968C126.167 270.789 125.68 264.909 125.68 258.328V245.624H146.326V259.946C146.326 267.606 146.976 273.109 148.276 276.453C149.577 279.798 152.151 281.47 155.998 281.47C158.599 281.47 160.55 280.877 161.851 279.69C163.205 278.449 164.099 276.507 164.533 273.864C165.021 271.167 165.265 267.66 165.265 263.345C165.265 258.004 164.127 253.122 161.851 248.699C159.629 244.275 156.242 239.69 151.69 234.943L141.124 224.1C138.197 221.079 135.542 217.869 133.158 214.471C130.828 211.072 128.958 207.296 127.549 203.142C126.195 198.935 125.517 194.242 125.517 189.063C125.517 181.565 126.438 175.226 128.281 170.047C130.123 164.869 133.239 160.958 137.628 158.314C142.018 155.617 148.033 154.269 155.673 154.269C161.417 154.269 166.132 155.159 169.816 156.939C173.555 158.665 176.455 161.228 178.514 164.626C180.627 167.971 182.117 172.07 182.984 176.925C183.851 181.726 184.285 187.229 184.285 193.432V202.252H164.208V192.057C164.208 187.741 163.964 184.154 163.476 181.295C163.043 178.436 162.203 176.305 160.957 174.902C159.71 173.446 157.895 172.718 155.511 172.718C153.235 172.718 151.392 173.23 149.983 174.255C148.574 175.226 147.545 176.764 146.895 178.867C146.299 180.917 146 183.588 146 186.878C146 189.845 146.38 192.407 147.138 194.565C147.897 196.723 149.062 198.8 150.634 200.796C152.205 202.792 154.156 205.031 156.486 207.512L168.272 220.216C173.908 226.258 178.297 232.542 181.44 239.07C184.583 245.597 186.154 252.879 186.154 260.917C186.154 269.44 185.233 276.615 183.391 282.441C181.548 288.213 178.46 292.583 174.124 295.55C169.789 298.517 163.883 300 156.405 300Z" fill="currentColor"/>
<path d="M193.681 298.382V155.968H215.465V298.382H193.681Z" fill="currentColor"/>
<path d="M255.993 299.838C247.377 299.838 240.44 296.467 235.184 289.724C229.928 282.926 227.3 271.922 227.3 256.709V194.808C227.3 188.443 227.896 182.751 229.088 177.735C230.334 172.718 232.231 168.483 234.778 165.031C237.379 161.524 240.739 158.881 244.857 157.101C248.975 155.267 253.933 154.35 259.732 154.35C266.018 154.35 271.138 155.294 275.094 157.182C279.05 159.016 282.085 161.713 284.198 165.273C286.365 168.78 287.856 173.095 288.668 178.22C289.481 183.345 289.888 189.144 289.888 195.617V205.732H269.567V190.843C269.567 184.424 268.889 179.865 267.535 177.168C266.234 174.471 263.742 173.122 260.057 173.122C255.993 173.122 253.175 174.714 251.603 177.896C250.032 181.025 249.246 186.608 249.246 194.646V256.386C249.246 265.341 249.896 271.76 251.197 275.644C252.552 279.474 255.342 281.389 259.569 281.389C263.687 281.389 266.587 279.42 268.266 275.482C270 271.49 270.867 264.855 270.867 255.577V236.399H259.894V220.621H289.888V298.382H280.134L276.801 284.383C275.609 289.292 273.062 293.095 269.16 295.792C265.313 298.49 260.924 299.838 255.993 299.838Z" fill="currentColor"/>
<path d="M302.048 298.382V155.968H319.117L349.436 241.416L347.891 202.576V155.968H367.48V298.382H352.037L320.905 209.939L322.124 247.323V298.382H302.048Z" fill="currentColor"/>
</g>
</svg>
