<svg width="18" height="18" viewBox="0 0 18 18" fill="none" xmlns="http://www.w3.org/2000/svg">
<path d="M12.4158 5.37471C12.6613 5.12923 12.6613 4.72371 12.4158 4.46758C12.1703 4.22211 11.7648 4.22211 11.5087 4.46758L4.79581 11.1804C3.99539 11.9809 3.99539 13.2935 4.79581 14.094C5.59623 14.8944 6.90891 14.8944 7.70933 14.094L14.7424 7.06094C14.8064 7.02892 14.8704 6.98624 14.9345 6.93287C15.8736 5.99372 18.3709 3.49642 15.9697 1.09516C15.0518 0.177337 13.9526 -0.174847 12.7893 0.0812871C11.8395 0.284047 10.8577 0.892365 9.87581 1.87422L2.25583 9.49421C1.3487 10.4013 0.868446 11.6607 0.921782 13.0374C0.975156 14.3501 1.51944 15.6308 2.42657 16.5379C3.3337 17.445 4.59305 17.968 5.89504 18C5.92705 18 5.95907 18 6.00175 18C7.30377 18 8.49905 17.5091 9.38486 16.6233L16.8981 9.11001C17.1436 8.86453 17.1436 8.45901 16.8981 8.20288C16.6527 7.95741 16.2471 7.95741 15.991 8.20288L8.47773 15.7161C7.81604 16.3778 6.90891 16.73 5.91639 16.7193C4.94523 16.6979 4.00605 16.3031 3.3337 15.6307C1.89294 14.19 1.81825 11.746 3.16295 10.4013L10.7829 2.78135C11.5727 1.99159 12.3624 1.49002 13.0561 1.3406C13.7925 1.18052 14.4542 1.39397 15.0625 2.01295C15.6602 2.61061 15.8309 3.16555 15.6175 3.83791C15.468 4.31816 15.1266 4.85178 14.5503 5.49212C14.5076 5.52413 14.4542 5.55615 14.4222 5.58817L6.81286 13.1975C6.51405 13.4963 6.01244 13.4963 5.71363 13.1975C5.41482 12.8987 5.41482 12.3971 5.71363 12.0983L12.4158 5.37471Z" fill="currentColor"/>
</svg>
