<svg width="22" height="20" viewBox="0 0 22 20" fill="none" xmlns="http://www.w3.org/2000/svg">
<path d="M3.4386 3.33322C3.68328 2.379 4.23453 1.53391 5.00581 0.930625C5.77709 0.327336 6.72474 0 7.7 0C8.67526 0 9.62291 0.327336 10.3942 0.930625C11.1655 1.53391 11.7167 2.379 11.9614 3.33322H20.9C21.1917 3.33322 21.4715 3.45036 21.6778 3.65887C21.8841 3.86738 22 4.15018 22 4.44506C22 4.73993 21.8841 5.02273 21.6778 5.23124C21.4715 5.43975 21.1917 5.55689 20.9 5.55689H11.9614C11.7167 6.51111 11.1655 7.3562 10.3942 7.95948C9.62291 8.56277 8.67526 8.89011 7.7 8.89011C6.72474 8.89011 5.77709 8.56277 5.00581 7.95948C4.23453 7.3562 3.68328 6.51111 3.4386 5.55689H1.1C0.808262 5.55689 0.528472 5.43975 0.322183 5.23124C0.115892 5.02273 0 4.73993 0 4.44506C0 4.15018 0.115892 3.86738 0.322183 3.65887C0.528472 3.45036 0.808262 3.33322 1.1 3.33322H3.4386ZM5.5 4.44506C5.5 5.03481 5.73179 5.60041 6.14437 6.01743C6.55695 6.43445 7.11652 6.66873 7.7 6.66873C8.28348 6.66873 8.84305 6.43445 9.25563 6.01743C9.66821 5.60041 9.9 5.03481 9.9 4.44506C9.9 3.8553 9.66821 3.2897 9.25563 2.87268C8.84305 2.45566 8.28348 2.22138 7.7 2.22138C7.11652 2.22138 6.55695 2.45566 6.14437 2.87268C5.73179 3.2897 5.5 3.8553 5.5 4.44506ZM9.9 15.5634C9.89894 14.4802 10.2891 13.4338 10.9971 12.6207C11.7052 11.8076 12.6825 11.2836 13.7457 11.1471C14.8088 11.0106 15.8847 11.271 16.7714 11.8795C17.658 12.4879 18.2945 13.4025 18.5614 14.4516H20.9C21.1917 14.4516 21.4715 14.5687 21.6778 14.7772C21.8841 14.9857 22 15.2685 22 15.5634C22 15.8583 21.8841 16.1411 21.6778 16.3496C21.4715 16.5581 21.1917 16.6752 20.9 16.6752H18.5614C18.2911 17.7209 17.6535 18.6314 16.7677 19.2367C15.8818 19.842 14.8083 20.1007 13.7476 19.9645C12.6868 19.8284 11.7114 19.3066 11.0033 18.4967C10.2953 17.6868 9.90312 16.6442 9.9 15.5634ZM12.1 15.5634C12.1 16.1532 12.3318 16.7188 12.7444 17.1358C13.1569 17.5528 13.7165 17.7871 14.3 17.7871C14.8835 17.7871 15.4431 17.5528 15.8556 17.1358C16.2682 16.7188 16.5 16.1532 16.5 15.5634C16.5 14.9737 16.2682 14.4081 15.8556 13.991C15.4431 13.574 14.8835 13.3397 14.3 13.3397C13.7165 13.3397 13.1569 13.574 12.7444 13.991C12.3318 14.4081 12.1 14.9737 12.1 15.5634ZM0 15.5634C0 15.2685 0.115892 14.9857 0.322183 14.7772C0.528472 14.5687 0.808262 14.4516 1.1 14.4516H6.6C6.89174 14.4516 7.17153 14.5687 7.37782 14.7772C7.58411 14.9857 7.7 15.2685 7.7 15.5634C7.7 15.8583 7.58411 16.1411 7.37782 16.3496C7.17153 16.5581 6.89174 16.6752 6.6 16.6752H1.1C0.808262 16.6752 0.528472 16.5581 0.322183 16.3496C0.115892 16.1411 0 15.8583 0 15.5634Z" fill="currentColor"/>
</svg>
