<svg width="1821" height="361" viewBox="0 0 1821 361" fill="none" xmlns="http://www.w3.org/2000/svg">
<path d="M271.178 251.55C271.178 266.567 268.999 280.56 264.618 293.528C260.248 306.156 253.687 317.248 244.936 326.804C236.533 336.36 225.93 343.869 213.146 349.329C200.7 354.449 186.228 357.008 169.75 357.008H0.6875V4.28809H163.189C181.356 4.28809 196.832 7.01778 209.615 12.4793C222.398 17.5985 232.828 24.5944 240.904 33.4684C249.317 42.3412 255.365 52.5806 259.071 64.1842C262.776 75.7879 264.618 88.0742 264.618 101.043C264.618 107.186 263.615 113.671 261.588 120.497C259.91 127.322 257.218 133.977 253.523 140.462C250.156 146.946 245.786 152.918 240.402 158.379C235.019 163.839 228.796 168.277 221.723 171.689C230.136 175.785 237.373 181.075 243.421 187.559C249.818 193.702 255.027 200.528 259.071 208.037C263.103 215.204 266.133 222.711 268.149 230.561C270.176 238.07 271.178 245.066 271.178 251.55ZM181.356 110.257C181.356 100.361 178.49 92.3405 172.779 86.1973C167.058 79.7128 156.628 76.4705 141.491 76.4705H80.9302V140.462H141.491C155.615 140.462 165.707 137.731 171.766 132.271C178.152 126.469 181.356 119.131 181.356 110.257ZM184.887 248.479C184.887 237.557 181.694 228.343 175.297 220.834C169.238 213.326 159.146 209.572 145.022 209.572H80.9302V284.826H145.022C158.143 284.826 168.061 281.583 174.796 275.099C181.52 268.274 184.887 259.4 184.887 248.479Z" fill="currentColor"/>
<path d="M413.305 4.28809V357.008H333.062V4.28809H413.305Z" fill="currentColor"/>
<path d="M737.964 308.368C730.226 318.266 721.311 326.627 711.22 333.453C701.466 339.938 691.374 345.227 680.945 349.323C670.515 353.418 660.086 356.319 649.656 358.026C639.227 359.733 629.462 360.585 620.384 360.585C604.571 360.585 588.583 358.367 572.443 353.931C556.292 349.493 541.656 342.667 528.535 333.453C515.414 324.238 504.646 312.634 496.233 298.642C488.157 284.308 484.125 267.414 484.125 247.96V116.394C484.125 96.9408 487.994 80.0479 495.732 65.7135C503.807 51.3791 514.237 39.4341 527.02 29.8785C540.141 19.9806 554.777 12.6432 570.928 7.86545C587.069 3.08767 603.557 0.698242 620.384 0.698242C640.905 0.698242 661.426 3.77036 681.948 9.91353C702.807 15.7153 720.134 24.7594 733.931 37.0457L695.069 100.013C683.626 90.115 671.355 83.6315 658.233 80.5594C645.45 77.147 633.505 75.4403 622.4 75.4403C615.676 75.4403 608.941 76.4643 602.217 78.5113C595.482 80.5594 589.259 83.8017 583.538 88.2381C577.827 92.3343 573.108 97.9648 569.414 105.132C566.046 111.958 564.368 120.491 564.368 130.729V230.555C564.368 240.793 566.046 249.497 569.414 256.663C572.77 263.489 577.151 269.121 582.535 273.557C587.919 277.652 593.804 280.724 600.19 282.772C606.925 284.819 613.649 285.843 620.384 285.843C626.433 285.843 632.666 284.991 639.053 283.284C645.777 281.577 652.01 278.335 657.721 273.557V225.947H609.78V157.35H737.964V308.368Z" fill="currentColor"/>
<path d="M876.321 146.605H1015.1V218.787H876.321V357.008H796.078V4.28809H1038.81V76.982H876.321V146.605Z" fill="currentColor"/>
<path d="M1164.35 4.28809V357.008H1084.11V4.28809H1164.35Z" fill="currentColor"/>
<path d="M1500.15 253.592C1500.15 271.339 1496.45 286.867 1489.05 300.178C1481.65 313.147 1471.56 324.068 1458.77 332.941C1446.33 341.815 1431.52 348.469 1414.36 352.907C1397.54 357.343 1379.71 359.561 1360.86 359.561C1348.08 359.561 1335.63 358.879 1323.53 357.513C1311.75 356.149 1300.31 353.759 1289.21 350.347C1278.1 346.592 1267 341.644 1255.9 335.501C1245.14 329.017 1234.37 320.996 1223.6 311.44L1268.51 251.544C1283.32 263.489 1298.12 272.363 1312.92 278.165C1328.06 283.625 1343.21 286.356 1358.35 286.356C1369.45 286.356 1378.7 285.332 1386.1 283.284C1393.5 281.236 1399.39 278.676 1403.76 275.605C1408.48 272.192 1411.67 268.608 1413.35 264.854C1415.36 261.101 1416.38 257.517 1416.38 254.103C1416.38 248.984 1415.04 244.548 1412.35 240.793C1409.99 236.698 1405.79 232.944 1399.73 229.531C1393.67 226.118 1385.59 222.705 1375.5 219.293C1365.75 215.88 1353.46 212.125 1338.66 208.03C1322.51 203.594 1308.21 198.645 1295.77 193.184C1283.32 187.383 1272.72 180.557 1263.98 172.707C1255.57 164.516 1249.17 154.96 1244.8 144.039C1240.43 133.117 1238.24 119.978 1238.24 104.621C1238.24 88.5794 1241.27 74.2461 1247.32 61.6184C1253.71 48.6494 1262.46 37.7274 1273.56 28.8545C1285 19.6392 1298.46 12.6432 1313.94 7.86545C1329.75 3.08767 1346.9 0.698242 1365.41 0.698242C1385.59 0.698242 1405.45 2.5751 1424.96 6.32992C1444.81 10.0837 1465.33 19.1277 1486.53 33.4621L1450.7 98.9889C1434.21 88.4093 1419.07 81.7535 1405.27 79.0239C1391.81 76.2931 1378.19 74.9277 1364.41 74.9277C1351.61 74.9277 1341.18 77.147 1333.12 81.5834C1325.37 85.6785 1321.5 92.6756 1321.5 102.572C1321.5 107.009 1322.69 111.105 1325.04 114.859C1327.73 118.271 1332.1 121.685 1338.16 125.097C1344.21 128.511 1352.12 131.923 1361.88 135.336C1371.63 138.407 1383.58 141.991 1397.71 146.086C1419.91 152.229 1437.74 159.226 1451.2 167.075C1464.66 174.584 1474.92 182.945 1481.98 192.16C1489.38 201.033 1494.27 210.76 1496.62 221.341C1498.98 231.579 1500.15 242.33 1500.15 253.592Z" fill="currentColor"/>
<path d="M1739.44 357.008V214.18H1628.41V357.008H1548.17V4.28809H1628.41V140.973H1739.44V4.28809H1820.69V357.008H1739.44Z" fill="currentColor"/>
</svg>
