<svg width="160" height="44" viewBox="0 0 160 44" fill="none" xmlns="http://www.w3.org/2000/svg">
<g clip-path="url(#clip0_346_275)">
<path d="M73.1729 26.2794C73.1729 27.1209 73.0507 27.905 72.8052 28.6317C72.5604 29.3393 72.1927 29.9609 71.7023 30.4963C71.2315 31.0319 70.6373 31.4526 69.921 31.7586C69.2236 32.0454 68.4126 32.1889 67.4892 32.1889H58.0156V12.4238H67.1216C68.1396 12.4238 69.0068 12.5768 69.7231 12.8828C70.4394 13.1697 71.0239 13.5617 71.4764 14.059C71.9478 14.5562 72.2868 15.13 72.4944 15.7802C72.702 16.4304 72.8052 17.1189 72.8052 17.8456C72.8052 18.1898 72.7491 18.5532 72.6355 18.9357C72.5414 19.3181 72.3906 19.6911 72.1836 20.0545C71.9949 20.4178 71.75 20.7525 71.4483 21.0585C71.1466 21.3644 70.7979 21.6131 70.4016 21.8043C70.873 22.0339 71.2785 22.3302 71.6175 22.6936C71.9759 23.0379 72.2678 23.4203 72.4944 23.8411C72.7204 24.2427 72.8901 24.6634 73.0031 25.1033C73.1167 25.524 73.1729 25.9161 73.1729 26.2794ZM68.1396 18.3619C68.1396 17.8074 67.979 17.3579 67.659 17.0137C67.3384 16.6503 66.7539 16.4687 65.9057 16.4687H62.5121V20.0545H65.9057C66.6972 20.0545 67.2626 19.9014 67.6022 19.5955C67.9601 19.2704 68.1396 18.8592 68.1396 18.3619ZM68.3375 26.1073C68.3375 25.4953 68.1585 24.979 67.8001 24.5582C67.4605 24.1375 66.895 23.9271 66.1036 23.9271H62.5121V28.1441H66.1036C66.8388 28.1441 67.3946 27.9624 67.772 27.599C68.1488 27.2166 68.3375 26.7193 68.3375 26.1073Z" fill="currentColor"/>
<path d="M81.1371 12.4238V32.1889H76.6406V12.4238H81.1371Z" fill="currentColor"/>
<path d="M99.3335 29.4633C98.8999 30.0179 98.4004 30.4864 97.8349 30.8689C97.2883 31.2323 96.7228 31.5287 96.1384 31.7582C95.554 31.9877 94.9695 32.1503 94.3851 32.2459C93.8007 32.3415 93.2535 32.3893 92.7448 32.3893C91.8587 32.3893 90.9628 32.265 90.0584 32.0164C89.1533 31.7678 88.3332 31.3853 87.5979 30.8689C86.8627 30.3526 86.2593 29.7023 85.7879 28.9183C85.3353 28.115 85.1094 27.1684 85.1094 26.0783V18.7058C85.1094 17.6157 85.3262 16.6691 85.7598 15.8659C86.2123 15.0626 86.7967 14.3933 87.513 13.8578C88.2483 13.3032 89.0685 12.892 89.9735 12.6243C90.8779 12.3566 91.8019 12.2227 92.7448 12.2227C93.8947 12.2227 95.0446 12.3948 96.1946 12.739C97.3634 13.0642 98.3344 13.571 99.1075 14.2594L96.9298 17.7879C96.2886 17.2332 95.601 16.8699 94.8657 16.6978C94.1494 16.5065 93.4801 16.4109 92.8578 16.4109C92.481 16.4109 92.1036 16.4683 91.7268 16.583C91.3494 16.6978 91.0007 16.8794 90.6801 17.128C90.3601 17.3576 90.0956 17.6731 89.8886 18.0747C89.6999 18.4572 89.6059 18.9353 89.6059 19.5091V25.1029C89.6059 25.6766 89.6999 26.1644 89.8886 26.5659C90.0767 26.9484 90.3222 27.264 90.6239 27.5126C90.9256 27.7421 91.2553 27.9142 91.6132 28.029C91.9906 28.1437 92.3674 28.2011 92.7448 28.2011C93.0837 28.2011 93.433 28.1533 93.7909 28.0576C94.1677 27.962 94.517 27.7803 94.837 27.5126V24.8447H92.1506V21.0008H99.3335V29.4633Z" fill="currentColor"/>
<path d="M107.082 20.3987H114.859V24.4435H107.082V32.1889H102.586V12.4238H116.188V16.4973H107.082V20.3987Z" fill="currentColor"/>
<path d="M123.223 12.4238V32.1889H118.727V12.4238H123.223Z" fill="currentColor"/>
<path d="M142.044 26.3938C142.044 27.3883 141.836 28.2585 141.421 29.0043C141.007 29.7311 140.441 30.343 139.725 30.8402C139.027 31.3375 138.198 31.7104 137.236 31.959C136.293 32.2076 135.294 32.3319 134.238 32.3319C133.522 32.3319 132.825 32.2937 132.146 32.2172C131.486 32.1407 130.845 32.0068 130.223 31.8156C129.601 31.6052 128.979 31.3279 128.357 30.9837C127.754 30.6203 127.15 30.1709 126.547 29.6354L129.064 26.2791C129.893 26.9484 130.723 27.4457 131.552 27.7708C132.4 28.0768 133.249 28.2298 134.097 28.2298C134.72 28.2298 135.238 28.1724 135.653 28.0576C136.067 27.9429 136.397 27.7994 136.642 27.6274C136.907 27.4361 137.085 27.2353 137.18 27.0249C137.293 26.8146 137.349 26.6138 137.349 26.4225C137.349 26.1356 137.274 25.887 137.123 25.6766C136.991 25.4472 136.756 25.2368 136.416 25.0455C136.077 24.8543 135.624 24.663 135.059 24.4718C134.512 24.2806 133.824 24.0702 132.995 23.8407C132.089 23.5921 131.288 23.3148 130.591 23.0088C129.893 22.6837 129.299 22.3012 128.809 21.8613C128.338 21.4023 127.98 20.8669 127.735 20.2549C127.49 19.6429 127.367 18.9066 127.367 18.0461C127.367 17.1472 127.537 16.344 127.876 15.6364C128.234 14.9097 128.725 14.2976 129.346 13.8004C129.987 13.284 130.742 12.892 131.609 12.6243C132.495 12.3566 133.456 12.2227 134.493 12.2227C135.624 12.2227 136.737 12.3278 137.83 12.5382C138.943 12.7486 140.093 13.2554 141.28 14.0586L139.272 17.7305C138.348 17.1376 137.5 16.7647 136.727 16.6117C135.973 16.4587 135.209 16.3822 134.437 16.3822C133.72 16.3822 133.136 16.5065 132.684 16.7551C132.249 16.9846 132.033 17.3767 132.033 17.9313C132.033 18.1799 132.099 18.4094 132.231 18.6198C132.382 18.811 132.627 19.0023 132.966 19.1935C133.305 19.3848 133.749 19.576 134.295 19.7673C134.842 19.9393 135.511 20.1402 136.303 20.3696C137.547 20.7139 138.546 21.106 139.3 21.5458C140.055 21.9665 140.63 22.4351 141.026 22.9514C141.44 23.4486 141.714 23.9937 141.846 24.5866C141.978 25.1603 142.044 25.7627 142.044 26.3938Z" fill="currentColor"/>
<path d="M155.453 32.1889V24.1853H149.231V32.1889H144.734V12.4238H149.231V20.0831H155.453V12.4238H160.005V32.1889H155.453Z" fill="currentColor"/>
<path d="M16.9004 39.7999C17.0004 39.9999 17.1004 40.0999 17.2004 40.2999C17.2004 40.2999 17.2004 40.2999 17.3004 40.3999C17.4004 40.4999 17.6004 40.7999 17.8004 41.0999C17.8004 41.0999 17.8004 41.0999 17.8004 41.1999C18.7004 42.7999 19.1004 42.7999 19.4004 42.3999L19.5004 42.2999C19.6004 42.1999 19.7004 41.9999 19.8004 41.8999C19.6004 41.1999 19.2004 40.3999 18.7004 39.3999C17.9004 37.8999 16.9004 36.1999 16.2004 34.3999C16.1004 33.9999 16.0004 33.7999 16.0004 33.4999C15.6004 32.0999 15.5004 30.5999 15.6004 29.3999C15.6004 29.2999 15.6004 29.0999 15.6004 28.9999C15.7004 28.5999 15.8004 28.1999 16.0004 27.5999C16.7004 25.5999 17.9004 23.6999 19.7004 21.7999C19.9004 21.5999 20.0004 21.4999 20.2004 21.2999C20.2004 21.2999 20.2004 21.2999 20.3004 21.1999C26.3004 15.1999 39.1004 14.0999 39.1004 14.0999L34.2004 18.1999C32.7004 19.5999 31.3004 21.0999 30.7004 21.5999L32.8004 21.0999C30.8004 23.6999 29.2004 26.0999 28.4004 27.3999L28.3004 27.4999C28.3004 27.4999 29.2004 23.7999 27.4004 23.7999C25.7004 23.7999 22.3004 28.9999 23.5004 31.8999C23.7004 32.2999 23.9004 32.6999 24.1004 32.9999C25.0004 34.2999 26.5004 35.1999 28.4004 35.3999C30.9004 35.8999 34.8004 35.2999 38.9004 31.9999C43.5004 28.3999 46.3004 20.1999 43.9004 14.1999C42.8004 11.2999 40.2004 8.89987 35.6004 7.29987C33.5004 6.59987 32.1004 6.39987 31.1004 6.39987C30.6004 5.89987 29.9004 5.29987 29.1004 4.69987C27.0004 3.29987 23.9004 2.09987 20.0004 2.79987C15.6004 3.59987 19.3004 4.49987 21.0004 5.89987C21.6004 6.39987 21.8004 6.99987 21.0004 7.79987C20.5004 8.29987 20.4004 8.59987 20.6004 8.79987C20.2004 8.99987 19.8004 9.19987 19.4004 9.39987C17.3004 10.5999 12.4004 12.9999 11.5004 20.7999C10.9004 23.9999 11.3004 27.8999 13.7004 31.9999C13.8004 32.1999 13.9004 32.3999 14.0004 32.5999C14.0004 32.6999 14.0004 32.6999 14.1004 32.7999C14.5004 33.8999 13.7004 33.9999 12.0004 34.1999C11.6004 34.2999 11.2004 34.3999 10.7004 34.3999C7.30039 34.5999 5.70039 38.4999 4.90039 41.2999C5.10039 41.4999 5.20039 41.0999 6.10039 41.2999C6.10039 41.2999 8.40039 42.0999 10.9004 39.7999C12.7004 38.0999 15.5004 37.5999 16.9004 39.7999Z" fill="currentColor"/>
</g>
<defs>
<clipPath id="clip0_346_275">
<rect width="160" height="44" fill="white"/>
</clipPath>
</defs>
</svg>
