<svg width="42" height="42" viewBox="0 0 42 42" fill="none" xmlns="http://www.w3.org/2000/svg">
<path d="M41.7773 30.6607C41.7265 30.5511 41.6791 30.4601 41.635 30.3873C40.9063 29.0749 39.5138 27.464 37.4583 25.5542L37.4149 25.5104L37.3931 25.489L37.3711 25.467H37.3491C36.4162 24.5777 35.8254 23.9797 35.578 23.6736C35.1254 23.0904 35.024 22.5001 35.2714 21.902C35.4461 21.4501 36.1027 20.4958 37.2395 19.0377C37.8374 18.265 38.311 17.6456 38.6607 17.179C41.183 13.8258 42.2765 11.6831 41.941 10.75L41.8107 10.5319C41.7232 10.4006 41.4972 10.2805 41.1332 10.171C40.7683 10.0617 40.3019 10.0436 39.7332 10.1165L33.4355 10.16C33.3335 10.1238 33.1878 10.1272 32.998 10.171C32.8085 10.2148 32.7136 10.2368 32.7136 10.2368L32.604 10.2915L32.517 10.3573C32.4441 10.4008 32.3639 10.4774 32.2764 10.5867C32.1893 10.6957 32.1165 10.8236 32.0582 10.9694C31.3726 12.7334 30.593 14.3735 29.7181 15.8895C29.1787 16.7935 28.6833 17.577 28.2308 18.2404C27.779 18.9035 27.4 19.3921 27.0941 19.7053C26.7877 20.0188 26.5112 20.2699 26.2629 20.4596C26.015 20.6494 25.8257 20.7296 25.6946 20.7003C25.5633 20.671 25.4396 20.6418 25.3225 20.6127C25.1185 20.4815 24.9545 20.3029 24.8308 20.077C24.7065 19.851 24.6229 19.5666 24.5792 19.224C24.5357 18.8812 24.5099 18.5863 24.5026 18.3384C24.4957 18.0908 24.4989 17.7405 24.5137 17.2886C24.5288 16.8365 24.5357 16.5306 24.5357 16.3702C24.5357 15.8162 24.5465 15.2148 24.5681 14.5661C24.5902 13.9173 24.608 13.4033 24.623 13.0247C24.6378 12.6456 24.6447 12.2446 24.6447 11.8218C24.6447 11.399 24.619 11.0674 24.5681 10.8268C24.5179 10.5864 24.4408 10.3531 24.3391 10.127C24.2369 9.901 24.0872 9.72622 23.8908 9.60214C23.6941 9.47821 23.4494 9.37987 23.1583 9.3068C22.3856 9.13194 21.4016 9.03735 20.2059 9.02264C17.4944 8.99354 15.7522 9.16863 14.9795 9.54768C14.6734 9.70784 14.3964 9.92666 14.1487 10.2035C13.8862 10.5243 13.8496 10.6994 14.0391 10.7282C14.9139 10.8593 15.5332 11.1727 15.8977 11.6684L16.0291 11.931C16.1313 12.1205 16.2333 12.456 16.3354 12.937C16.4373 13.418 16.5031 13.9501 16.5321 14.5329C16.6048 15.5973 16.6048 16.5085 16.5321 17.2664C16.4591 18.0247 16.3901 18.615 16.3243 19.0378C16.2586 19.4606 16.1602 19.8032 16.0291 20.0655C15.8977 20.3279 15.8103 20.4883 15.7665 20.5465C15.7228 20.6047 15.6863 20.6414 15.6574 20.6558C15.4679 20.7284 15.2708 20.7654 15.0669 20.7654C14.8626 20.7654 14.6149 20.6632 14.3234 20.459C14.0319 20.2548 13.7295 19.9743 13.416 19.6171C13.1025 19.2598 12.7489 18.7605 12.3552 18.1191C11.9617 17.4777 11.5535 16.7197 11.1307 15.845L10.7809 15.2107C10.5622 14.8026 10.2635 14.2084 9.88447 13.4286C9.50518 12.6485 9.16994 11.8939 8.8785 11.165C8.76201 10.8589 8.58699 10.6258 8.35377 10.4654L8.24432 10.3996C8.17156 10.3414 8.05475 10.2796 7.89452 10.2137C7.73406 10.1479 7.56663 10.1008 7.39154 10.0717L1.3998 10.1152C0.787522 10.1152 0.372085 10.2539 0.153338 10.531L0.0657928 10.662C0.0220586 10.735 0 10.8516 0 11.0121C0 11.1724 0.0437342 11.3693 0.131279 11.6023C1.00596 13.6581 1.95716 15.6407 2.98488 17.5504C4.01259 19.4602 4.90566 20.9985 5.66354 22.1641C6.42157 23.3305 7.19424 24.4314 7.98153 25.4662C8.76882 26.5013 9.28996 27.1647 9.54493 27.4561C9.80021 27.7481 10.0007 27.9664 10.1465 28.1121L10.6933 28.6369C11.0432 28.9868 11.5569 29.4059 12.2349 29.8942C12.9129 30.3828 13.6636 30.8638 14.4873 31.338C15.3111 31.8114 16.2695 32.1977 17.363 32.4965C18.4564 32.7956 19.5205 32.9156 20.5557 32.8577H23.0705C23.5805 32.8137 23.967 32.6533 24.2296 32.3765L24.3166 32.2669C24.3751 32.1799 24.4299 32.0447 24.4804 31.8628C24.5316 31.6806 24.557 31.4798 24.557 31.2614C24.5421 30.6347 24.5898 30.0698 24.6989 29.5669C24.8079 29.0642 24.9321 28.6851 25.071 28.4298C25.2099 28.1748 25.3666 27.9596 25.541 27.7851C25.7158 27.6102 25.8403 27.5043 25.9134 27.4678C25.986 27.4311 26.044 27.4062 26.0877 27.3913C26.4376 27.2747 26.8494 27.3876 27.3236 27.7305C27.7975 28.0731 28.242 28.4962 28.6577 28.9989C29.0732 29.5021 29.5724 30.0667 30.1555 30.6934C30.7389 31.3204 31.249 31.7865 31.6862 32.0931L32.1233 32.3555C32.4153 32.5306 32.7944 32.691 33.261 32.8367C33.7267 32.9824 34.1348 33.0189 34.4852 32.946L40.0831 32.8587C40.6368 32.8587 41.0676 32.767 41.3732 32.5851C41.6795 32.4029 41.8614 32.2022 41.92 31.9838C41.9786 31.7652 41.9817 31.5172 41.9311 31.2399C41.8793 30.9634 41.8282 30.77 41.7773 30.6607Z" fill="currentColor"/>
</svg>
