<svg width="695" height="165" viewBox="0 0 695 165" fill="none" xmlns="http://www.w3.org/2000/svg">
<g style="mix-blend-mode:difference">
<path d="M20.1714 162.426L0.5 1.91519H22.4587L34.2616 116.279L49.2667 1.91519H69.0296L84.1262 116.279L94.5566 1.91519H116.607L98.1249 162.426H73.6958L59.4226 55.7228L44.6005 162.426H20.1714Z" fill="white"/>
<path d="M123.432 162.426V1.91519H177.414V22.9822H147.953V69.6763H175.95V90.2873H147.953V141.359H178.512V162.426H123.432Z" fill="white"/>
<path d="M187.259 162.426V1.91519H222.119C230.231 1.91519 236.697 3.16158 241.516 5.65436C246.334 8.08634 249.811 11.9775 251.946 17.3279C254.142 22.6174 255.24 29.579 255.24 38.2125V43.1373C255.24 51.4668 254.142 58.3372 251.946 63.7483C249.811 69.0987 246.212 72.8379 241.15 74.9659C245.358 76.3642 248.713 78.8874 251.214 82.5354C253.776 86.1226 255.606 90.5305 256.704 95.7593C257.802 100.927 258.351 106.612 258.351 112.814V116.918C258.29 127.618 257.039 136.343 254.599 143.092C252.159 149.78 248.347 154.674 243.162 157.775C237.978 160.876 231.207 162.426 222.851 162.426H187.259ZM211.78 143.457H220.472C223.705 143.457 226.266 142.757 228.157 141.359C230.109 139.9 231.512 137.498 232.366 134.154C233.22 130.81 233.647 126.25 233.647 120.474V107.524C233.647 99.7417 232.885 94.0873 231.36 90.5609C229.896 86.9738 226.815 85.1802 222.119 85.1802H211.78V143.457ZM211.78 66.8491H220.838C222.973 66.8491 224.711 66.5451 226.053 65.9371C227.395 65.3291 228.432 64.2955 229.164 62.8363C229.896 61.3164 230.384 59.2188 230.628 56.5436C230.933 53.8684 231.085 50.4636 231.085 46.3293V36.6621C231.085 32.3454 230.689 29.0622 229.896 26.8126C229.103 24.563 227.883 23.043 226.236 22.2526C224.65 21.4622 222.576 21.067 220.014 21.067H211.78V66.8491Z" fill="white"/>
<path d="M321.592 164.25C314.882 164.25 309.27 163.216 304.757 161.149C300.304 159.021 296.766 155.951 294.143 151.938C291.581 147.865 289.752 142.94 288.654 137.164C287.556 131.327 287.007 124.7 287.007 117.282V102.964H310.246V119.106C310.246 127.74 310.978 133.941 312.442 137.711C313.906 141.481 316.804 143.365 321.134 143.365C324.062 143.365 326.258 142.697 327.722 141.359C329.247 139.961 330.253 137.772 330.741 134.793C331.29 131.753 331.565 127.801 331.565 122.937C331.565 116.918 330.284 111.415 327.722 106.43C325.221 101.444 321.409 96.2761 316.285 90.9257L304.391 78.705C301.097 75.3002 298.108 71.6827 295.424 67.8523C292.801 64.0219 290.697 59.766 289.111 55.0844C287.586 50.342 286.824 45.0525 286.824 39.2157C286.824 30.7646 287.861 23.6206 289.935 17.7839C292.008 11.9471 295.516 7.53914 300.456 4.55997C305.397 1.51999 312.168 0 320.768 0C327.234 0 332.541 1.00319 336.688 3.00958C340.897 4.95516 344.16 7.84314 346.478 11.6735C348.857 15.4431 350.535 20.0639 351.511 25.5358C352.486 30.947 352.974 37.1485 352.974 44.1405V54.0812H330.375V42.5901C330.375 37.7261 330.101 33.683 329.552 30.4606C329.064 27.2382 328.118 24.8366 326.715 23.2558C325.313 21.6142 323.269 20.7934 320.585 20.7934C318.023 20.7934 315.95 21.371 314.364 22.5262C312.778 23.6206 311.619 25.3534 310.887 27.7246C310.216 30.035 309.88 33.0446 309.88 36.7533C309.88 40.0973 310.307 42.9853 311.161 45.4173C312.015 47.8493 313.327 50.19 315.096 52.4396C316.865 54.6892 319.06 57.2124 321.683 60.0092L334.95 74.3275C341.294 81.137 346.234 88.2202 349.772 95.5769C353.31 102.934 355.079 111.142 355.079 120.201C355.079 129.807 354.042 137.893 351.968 144.46C349.894 150.965 346.417 155.89 341.538 159.234C336.658 162.578 330.009 164.25 321.592 164.25Z" fill="white"/>
<path d="M371.42 162.426V23.0734H352.572V1.91519H413.965V23.0734H395.849V162.426H371.42Z" fill="white"/>
<path d="M452.814 164.25C444.457 164.25 437.656 162.7 432.41 159.599C427.165 156.437 423.322 151.695 420.882 145.372C418.442 138.988 417.222 130.932 417.222 121.204V1.91519H441.743V120.748C441.743 125.247 441.926 129.199 442.292 132.604C442.719 136.009 443.695 138.653 445.22 140.538C446.744 142.423 449.245 143.365 452.722 143.365C456.199 143.365 458.7 142.453 460.225 140.629C461.811 138.745 462.786 136.1 463.152 132.695C463.518 129.29 463.701 125.308 463.701 120.748V1.91519H488.222V121.204C488.222 130.932 487.002 138.988 484.562 145.372C482.183 151.695 478.371 156.437 473.125 159.599C467.941 162.7 461.17 164.25 452.814 164.25Z" fill="white"/>
<path d="M501.818 162.426V1.91519H537.959C546.132 1.91519 552.689 3.55677 557.63 6.83995C562.571 10.0623 566.139 14.7439 568.335 20.8846C570.592 27.0254 571.72 34.4429 571.72 43.1373L571.812 115.55C571.812 126.068 570.653 134.823 568.335 141.815C566.078 148.746 562.418 153.914 557.355 157.319C552.293 160.724 545.553 162.426 537.135 162.426H501.818ZM526.339 143.457H534.39C537.257 143.457 539.636 142.879 541.527 141.724C543.479 140.569 544.912 138.532 545.827 135.613C546.803 132.634 547.291 128.439 547.291 123.028L547.2 43.7757C547.2 35.5677 546.193 29.6702 544.18 26.083C542.167 22.4958 538.63 20.7022 533.567 20.7022H526.339V143.457Z" fill="white"/>
<path d="M585.225 162.426V1.91519H609.745V162.426H585.225Z" fill="white"/>
<path d="M658.933 164.25C650.576 164.25 643.745 162.487 638.438 158.96C633.192 155.434 629.319 150.205 626.818 143.274C624.317 136.343 623.067 127.77 623.067 117.556V44.1405C623.067 34.8989 624.287 26.995 626.727 20.4286C629.167 13.8623 633.04 8.81594 638.347 5.28956C643.653 1.76319 650.607 0 659.207 0C665.673 0 671.132 1.00319 675.585 3.00958C680.038 5.01596 683.637 7.93434 686.381 11.7647C689.126 15.5343 691.109 20.1551 692.329 25.627C693.609 31.0382 694.25 37.2093 694.25 44.1405V117.556C694.25 127.77 693.03 136.343 690.59 143.274C688.211 150.205 684.43 155.434 679.245 158.96C674.06 162.487 667.289 164.25 658.933 164.25ZM658.933 143.092C661.983 143.092 664.27 142.18 665.795 140.356C667.32 138.532 668.326 135.765 668.814 132.057C669.363 128.287 669.638 123.545 669.638 117.83V43.0461C669.638 36.0541 668.967 30.6734 667.625 26.9038C666.344 23.0734 663.538 21.1582 659.207 21.1582C654.755 21.1582 651.735 23.0126 650.149 26.7214C648.564 30.3694 647.771 35.7805 647.771 42.9549V117.83C647.771 123.666 648.015 128.469 648.503 132.239C649.052 135.948 650.119 138.684 651.705 140.447C653.352 142.21 655.761 143.092 658.933 143.092Z" fill="white"/>
</g>
</svg>
