<svg width="41" height="41" viewBox="0 0 41 41" fill="none" xmlns="http://www.w3.org/2000/svg">
<path d="M20.8519 35.9557C16.2795 35.8116 11.9312 35.6995 7.583 35.5313C6.64608 35.4913 5.69316 35.3471 4.78026 35.1309C3.06659 34.7305 1.88144 33.6975 1.27284 32.0079C0.784365 30.6465 0.608194 29.2452 0.480069 27.8198C0.199795 24.4725 0.199795 21.1252 0.335928 17.778C0.416006 15.8881 0.464053 13.9823 0.968545 12.1485C1.27284 11.0514 1.6412 9.97836 2.53007 9.18558C3.46698 8.34476 4.56405 7.84027 5.81327 7.78422C9.24062 7.61605 12.66 7.40785 16.0873 7.37582C20.6998 7.32777 25.3203 7.39183 29.9328 7.47992C31.9268 7.51996 33.9367 7.62406 35.9146 7.88031C37.7244 8.12054 39.0777 9.12953 39.7984 10.8912C40.351 12.2446 40.5592 13.662 40.6793 15.1034C40.9916 18.7149 40.9996 22.3264 40.8234 25.9379C40.7353 27.7717 40.6473 29.6135 40.1268 31.3993C39.5342 33.4493 38.2769 34.8026 36.1789 35.267C35.3621 35.4432 34.5133 35.5073 33.6805 35.5393C29.3242 35.6914 24.976 35.8276 20.8519 35.9557ZM16.4236 26.8508C20.0752 24.961 23.6867 23.0871 27.3703 21.1733C23.6947 19.2514 20.0832 17.3696 16.4236 15.4557C16.4236 19.2754 16.4236 23.0311 16.4236 26.8508Z" fill="currentColor"/>
</svg>
