<svg width="296" height="69" viewBox="0 0 296 69" fill="none" xmlns="http://www.w3.org/2000/svg">
<path d="M86.575 49H82.295L79.415 40.4H68.055L64.935 49H60.975L71.775 20.32H76.175L86.575 49ZM69.175 37.24H78.135L73.775 24.56L69.175 37.24ZM105.975 43.56V20.32H109.695V49H105.335L90.6147 25.76V49H86.8947V20.32H91.4947L105.975 43.56ZM131.962 21.12C134.802 22.64 136.562 25.24 137.202 29H133.362C132.882 26.92 131.922 25.36 130.442 24.4C128.962 23.44 127.122 23 124.882 23C122.202 23 120.002 24 118.162 25.96C116.362 27.96 115.442 30.92 115.442 34.88C115.442 38.28 116.202 41.08 117.682 43.2C119.202 45.36 121.642 46.44 125.002 46.44C127.602 46.44 129.762 45.68 131.442 44.16C133.162 42.64 134.002 40.24 134.042 36.88H125.082V33.64H137.682V49H135.162L134.242 45.32C132.922 46.76 131.762 47.76 130.722 48.32C129.042 49.28 126.882 49.76 124.242 49.76C120.842 49.76 117.882 48.68 115.442 46.48C112.802 43.72 111.442 39.92 111.442 35.08C111.442 30.28 112.762 26.48 115.362 23.64C117.842 20.92 121.042 19.56 124.962 19.56C127.682 19.56 130.002 20.08 131.962 21.12ZM144.735 38.04C144.735 40.12 145.095 41.84 145.895 43.24C147.055 45.32 149.015 46.36 151.735 46.36C155.055 46.36 157.295 45.24 158.455 43C159.135 41.76 159.415 40.12 159.415 38.04V20.32H163.375V36.44C163.375 39.96 162.895 42.68 161.935 44.56C160.215 48.04 156.895 49.76 152.055 49.76C147.215 49.76 143.935 48.04 142.215 44.56C141.255 42.68 140.775 39.96 140.775 36.44V20.32H144.735V38.04ZM170.042 45.6H184.602V49H166.162V20.32H170.042V45.6ZM208.348 49H204.068L201.188 40.4H189.828L186.708 49H182.748L193.548 20.32H197.948L208.348 49ZM190.948 37.24H199.908L195.548 24.56L190.948 37.24ZM222.428 20.32C224.628 20.32 226.428 20.64 227.828 21.28C230.548 22.48 231.868 24.76 231.868 28.04C231.868 29.76 231.508 31.16 230.828 32.28C230.108 33.36 229.108 34.24 227.828 34.88C228.948 35.36 229.788 35.96 230.388 36.68C230.948 37.44 231.268 38.64 231.308 40.32L231.468 44.16C231.468 45.24 231.588 46.08 231.708 46.6C231.948 47.52 232.348 48.12 232.988 48.36V49H228.188C228.068 48.76 227.988 48.44 227.908 48.04C227.828 47.64 227.748 46.88 227.708 45.76L227.468 41C227.348 39.12 226.668 37.88 225.388 37.24C224.628 36.88 223.468 36.68 221.868 36.68H213.028V49H209.148V20.32H222.428ZM222.028 33.44C223.828 33.44 225.268 33.08 226.348 32.36C227.388 31.64 227.948 30.32 227.948 28.4C227.948 26.36 227.188 24.96 225.708 24.24C224.908 23.84 223.868 23.64 222.508 23.64H213.028V33.44H222.028Z" fill="#9CFE00"/>
<rect x="1.375" y="1" width="293" height="67" rx="33.5" stroke="#9CFE00" stroke-width="2"/>
</svg>
