<svg width="348" height="69" viewBox="0 0 348 69" fill="none" xmlns="http://www.w3.org/2000/svg">
<path d="M64.215 26.52C66.735 26.24 68.535 25.84 69.535 25.24C70.495 24.68 71.255 23.32 71.775 21.16H74.535V49H70.775V29.2H64.215V26.52ZM103.002 22.4C105.002 24.32 106.122 26.48 106.322 28.92H102.562C102.122 27.08 101.242 25.6 100.002 24.52C98.6816 23.44 96.8816 22.92 94.5616 22.92C91.7616 22.92 89.4816 23.92 87.7216 25.88C86.0016 27.88 85.1216 30.92 85.1216 35C85.1216 38.36 85.9216 41.08 87.4816 43.16C89.0416 45.28 91.4016 46.32 94.4816 46.32C97.3616 46.32 99.5216 45.24 101.042 43.04C101.842 41.88 102.442 40.36 102.802 38.44H106.602C106.282 41.48 105.162 44 103.242 46.04C100.962 48.52 97.8816 49.76 94.0416 49.76C90.6816 49.76 87.8816 48.72 85.6416 46.72C82.6416 44.04 81.1616 39.92 81.1616 34.36C81.1616 30.12 82.2816 26.64 84.5216 23.96C86.9216 21 90.2816 19.52 94.5216 19.52C98.1616 19.52 101.002 20.48 103.002 22.4ZM116.549 39.68H106.749V36.04H116.549V39.68ZM137.789 23.64H121.989V32.12H129.989C131.669 32.12 133.149 32.32 134.349 32.72C135.589 33.12 136.629 33.68 137.469 34.4C138.269 35.12 138.869 36 139.309 37.04C139.669 38.08 139.869 39.24 139.869 40.56C139.869 41.84 139.669 43 139.269 44C138.869 45.04 138.269 45.96 137.509 46.68C136.749 47.4 135.789 48 134.669 48.4C133.509 48.8 132.229 49 130.789 49H118.149V20.28H137.789V23.64ZM130.269 45.64C131.069 45.64 131.789 45.56 132.469 45.4C133.149 45.2 133.709 44.92 134.229 44.52C134.709 44.12 135.109 43.6 135.389 42.96C135.669 42.32 135.789 41.52 135.789 40.56C135.789 39.6 135.669 38.8 135.349 38.16C135.069 37.52 134.629 37 134.109 36.56C133.549 36.2 132.869 35.92 132.109 35.72C131.309 35.56 130.429 35.48 129.429 35.48H121.989V45.64H130.269ZM145.273 43.52H145.353L159.953 20.28H164.393V49H160.553V25.64H160.473L145.873 49H141.433V20.28H145.273V43.52ZM188.061 23.64H178.301V49H174.461V23.64H164.701V20.28H188.061V23.64ZM200.434 20.28C202.034 20.28 203.394 20.48 204.554 20.88C205.674 21.32 206.634 21.88 207.394 22.6C208.154 23.32 208.714 24.2 209.074 25.24C209.474 26.28 209.634 27.4 209.634 28.68C209.634 29.96 209.474 31.08 209.074 32.12C208.714 33.16 208.154 34.04 207.394 34.76C206.634 35.52 205.674 36.08 204.554 36.48C203.394 36.88 202.034 37.08 200.434 37.08H192.194V49H188.354V20.28H200.434ZM200.034 33.72C202.074 33.72 203.554 33.28 204.434 32.44C205.354 31.56 205.794 30.32 205.794 28.68C205.794 27.04 205.354 25.8 204.434 24.92C203.554 24.08 202.074 23.64 200.034 23.64H192.194V33.72H200.034ZM215.673 43.52H215.753L230.353 20.28H234.793V49H230.953V25.64H230.873L216.273 49H211.833V20.28H215.673V43.52ZM241.341 34.28L255.341 20.28H260.701L248.741 31.88L261.021 49H256.101L245.981 34.52L241.341 39V49H237.501V20.28H241.341V34.28ZM263.42 34.6C263.42 36.4 263.66 38.04 264.1 39.48C264.54 40.92 265.18 42.16 266.02 43.16C266.86 44.2 267.86 44.96 269.02 45.52C270.18 46.08 271.46 46.36 272.86 46.36C274.1 46.36 275.18 46.16 276.18 45.68C277.14 45.24 277.98 44.68 278.66 43.96C279.38 43.2 279.94 42.4 280.38 41.52C280.78 40.6 281.1 39.68 281.22 38.72H284.94C284.86 39.56 284.7 40.4 284.42 41.28C284.1 42.16 283.74 43 283.26 43.8C282.78 44.6 282.22 45.36 281.54 46.08C280.9 46.8 280.14 47.44 279.26 48C278.38 48.52 277.42 48.96 276.34 49.24C275.3 49.56 274.14 49.72 272.86 49.72C271.98 49.72 271.06 49.64 270.06 49.44C269.06 49.28 268.06 48.96 267.1 48.52C266.1 48.12 265.18 47.52 264.26 46.8C263.34 46.08 262.54 45.16 261.86 44.08C261.18 43 260.62 41.68 260.22 40.2C259.78 38.72 259.58 36.96 259.58 35C259.58 33.08 259.78 31.32 260.14 29.8C260.5 28.28 261.02 26.96 261.66 25.8C262.3 24.68 263.06 23.72 263.94 22.92C264.78 22.12 265.7 21.48 266.7 20.96C267.7 20.48 268.74 20.12 269.78 19.88C270.86 19.68 271.94 19.56 272.98 19.56C274.3 19.56 275.5 19.72 276.54 19.96C277.62 20.24 278.58 20.6 279.46 21.04C280.3 21.52 281.02 22.08 281.66 22.68C282.3 23.28 282.86 23.92 283.3 24.6C283.74 25.28 284.06 26 284.3 26.72C284.54 27.44 284.7 28.12 284.74 28.8H280.98C280.74 27.88 280.38 27.04 279.9 26.32C279.42 25.6 278.86 24.96 278.14 24.48C277.46 24 276.7 23.6 275.86 23.32C274.98 23.08 274.06 22.92 273.1 22.92C271.62 22.92 270.3 23.2 269.1 23.76C267.94 24.28 266.9 25.08 266.06 26.08C265.22 27.12 264.54 28.32 264.1 29.76C263.66 31.2 263.42 32.84 263.42 34.6Z" fill="#9CFE00"/>
<rect x="1.375" y="1" width="345" height="67" rx="33.5" stroke="#9CFE00" stroke-width="2"/>
</svg>
