<svg width="331" height="69" viewBox="0 0 331 69" fill="none" xmlns="http://www.w3.org/2000/svg">
<path d="M77.495 40.44C77.495 42.88 77.135 44.76 76.415 46.08C75.095 48.52 72.575 49.76 68.855 49.76C66.695 49.76 64.855 49.16 63.335 48C61.815 46.84 61.055 44.8 61.055 41.8V39.76H64.695V41.8C64.695 43.36 65.055 44.52 65.775 45.32C66.455 46.12 67.535 46.52 69.015 46.52C71.095 46.52 72.415 45.8 73.055 44.36C73.455 43.48 73.655 41.84 73.655 39.44V20.32H77.495V40.44ZM103.375 49H99.095L96.215 40.4H84.855L81.735 49H77.775L88.575 20.32H92.975L103.375 49ZM85.975 37.24H94.935L90.575 24.56L85.975 37.24ZM116.28 20.32H120.64L110.2 49H106.08L95.6 20.32H99.92L108.16 44.76L116.28 20.32ZM138.225 49H133.945L131.065 40.4H119.705L116.585 49H112.625L123.425 20.32H127.825L138.225 49ZM120.825 37.24H129.785L125.425 24.56L120.825 37.24ZM144.545 39.76C144.625 41.36 144.985 42.68 145.665 43.72C146.985 45.6 149.225 46.56 152.505 46.56C153.945 46.56 155.305 46.36 156.465 45.92C158.825 45.12 159.945 43.68 159.945 41.6C159.945 40.04 159.465 38.92 158.505 38.24C157.505 37.6 155.945 37.04 153.865 36.56L149.945 35.68C147.425 35.12 145.625 34.48 144.585 33.8C142.745 32.6 141.825 30.8 141.825 28.4C141.825 25.84 142.745 23.72 144.505 22.08C146.305 20.4 148.825 19.6 152.105 19.6C155.105 19.6 157.665 20.32 159.785 21.76C161.865 23.2 162.905 25.56 162.905 28.72H159.265C159.065 27.2 158.665 26 158.025 25.2C156.825 23.68 154.785 22.96 151.985 22.96C149.705 22.96 148.025 23.44 147.025 24.4C146.025 25.36 145.545 26.48 145.545 27.76C145.545 29.16 146.105 30.2 147.265 30.84C148.065 31.24 149.785 31.76 152.505 32.4L156.505 33.32C158.465 33.76 159.945 34.36 161.025 35.12C162.825 36.48 163.745 38.4 163.745 40.96C163.745 44.16 162.585 46.44 160.305 47.8C157.985 49.16 155.305 49.84 152.225 49.84C148.665 49.84 145.865 48.92 143.865 47.12C141.825 45.28 140.825 42.84 140.865 39.76H144.545ZM186.025 22.4C188.025 24.32 189.145 26.48 189.345 28.92H185.585C185.145 27.08 184.265 25.6 183.025 24.52C181.705 23.44 179.905 22.92 177.585 22.92C174.785 22.92 172.505 23.92 170.745 25.88C169.025 27.88 168.145 30.92 168.145 35C168.145 38.36 168.945 41.08 170.505 43.16C172.065 45.28 174.425 46.32 177.505 46.32C180.385 46.32 182.545 45.24 184.065 43.04C184.865 41.88 185.465 40.36 185.825 38.44H189.625C189.305 41.48 188.185 44 186.265 46.04C183.985 48.52 180.905 49.76 177.065 49.76C173.705 49.76 170.905 48.72 168.665 46.72C165.665 44.04 164.185 39.92 164.185 34.36C164.185 30.12 165.305 26.64 167.545 23.96C169.945 21 173.305 19.52 177.545 19.52C181.185 19.52 184.025 20.48 186.025 22.4ZM204.892 20.32C207.092 20.32 208.892 20.64 210.292 21.28C213.012 22.48 214.332 24.76 214.332 28.04C214.332 29.76 213.972 31.16 213.292 32.28C212.572 33.36 211.572 34.24 210.292 34.88C211.412 35.36 212.252 35.96 212.852 36.68C213.412 37.44 213.732 38.64 213.772 40.32L213.932 44.16C213.932 45.24 214.052 46.08 214.172 46.6C214.412 47.52 214.812 48.12 215.452 48.36V49H210.652C210.532 48.76 210.452 48.44 210.372 48.04C210.292 47.64 210.212 46.88 210.172 45.76L209.932 41C209.812 39.12 209.132 37.88 207.852 37.24C207.092 36.88 205.932 36.68 204.332 36.68H195.492V49H191.612V20.32H204.892ZM204.492 33.44C206.292 33.44 207.732 33.08 208.812 32.36C209.852 31.64 210.412 30.32 210.412 28.4C210.412 26.36 209.652 24.96 208.172 24.24C207.372 23.84 206.332 23.64 204.972 23.64H195.492V33.44H204.492ZM221.599 49H217.679V20.32H221.599V49ZM238.012 20.32C240.572 20.32 242.612 21.04 244.172 22.44C245.772 23.92 246.532 25.92 246.532 28.52C246.532 30.76 245.852 32.72 244.452 34.36C243.052 36.04 240.892 36.88 238.012 36.88H229.012V49H225.092V20.32H238.012ZM240.252 24.24C239.412 23.84 238.252 23.64 236.732 23.64H229.012V33.6H236.732C238.452 33.6 239.892 33.2 240.972 32.48C242.052 31.72 242.612 30.44 242.612 28.56C242.612 26.44 241.812 25 240.252 24.24ZM259.412 23.72V49H255.492V23.72H245.812V20.32H269.092V23.72H259.412Z" fill="#9CFE00"/>
<rect x="1.375" y="1" width="328" height="67" rx="33.5" stroke="#9CFE00" stroke-width="2"/>
</svg>
