<svg width="279" height="70" viewBox="0 0 279 70" fill="none" xmlns="http://www.w3.org/2000/svg">
<path d="M63.2403 20.582H67.127V45.8555H81.6583V49.2734H63.2403V20.582ZM97.0325 37.5156L92.677 24.8398L88.0481 37.5156H97.0325ZM90.6458 20.582H95.0403L105.45 49.2734H101.193L98.2825 40.6797H86.9348L83.8294 49.2734H79.845L90.6458 20.582ZM119.125 33.7266C120.948 33.7266 122.387 33.362 123.442 32.6328C124.51 31.9036 125.043 30.5885 125.043 28.6875C125.043 26.6432 124.301 25.25 122.817 24.5078C122.023 24.1172 120.961 23.9219 119.633 23.9219H110.141V33.7266H119.125ZM106.254 20.582H119.536C121.723 20.582 123.526 20.901 124.946 21.5391C127.641 22.763 128.989 25.0221 128.989 28.3164C128.989 30.0352 128.631 31.4414 127.915 32.5352C127.211 33.6289 126.222 34.5078 124.946 35.1719C126.066 35.6276 126.905 36.2266 127.465 36.9688C128.038 37.7109 128.357 38.9154 128.422 40.582L128.559 44.4297C128.598 45.5234 128.689 46.3372 128.832 46.8711C129.067 47.7826 129.484 48.3685 130.082 48.6289V49.2734H125.317C125.187 49.026 125.082 48.707 125.004 48.3164C124.926 47.9258 124.861 47.1706 124.809 46.0508L124.575 41.2656C124.484 39.3906 123.787 38.1341 122.485 37.4961C121.743 37.1445 120.577 36.9688 118.989 36.9688H110.141V49.2734H106.254V20.582ZM146.218 37.5156L141.863 24.8398L137.234 37.5156H146.218ZM139.832 20.582H144.226L154.636 49.2734H150.379L147.468 40.6797H136.121L133.015 49.2734H129.031L139.832 20.582ZM154.268 20.582L162.511 45.0156L170.655 20.582H175.011L164.542 49.2734H160.421L149.972 20.582H154.268ZM175.854 20.582H196.772V24.0977H179.643V32.8086H195.482V36.1289H179.643V45.8555H197.065V49.2734H175.854V20.582ZM198.962 20.582H202.849V45.8555H217.38V49.2734H198.962V20.582Z" fill="#9CFE00"/>
<rect x="1.19342" y="1.27344" width="276" height="67" rx="33.5" stroke="#9CFE00" stroke-width="2"/>
</svg>
