<svg width="197" height="69" viewBox="0 0 197 69" fill="none" xmlns="http://www.w3.org/2000/svg">
<path d="M76.695 20.32C79.255 20.32 81.295 21.04 82.855 22.44C84.455 23.92 85.215 25.92 85.215 28.52C85.215 30.76 84.535 32.72 83.135 34.36C81.735 36.04 79.575 36.88 76.695 36.88H67.695V49H63.775V20.32H76.695ZM78.935 24.24C78.095 23.84 76.935 23.64 75.415 23.64H67.695V33.6H75.415C77.135 33.6 78.575 33.2 79.655 32.48C80.735 31.72 81.295 30.44 81.295 28.56C81.295 26.44 80.495 25 78.935 24.24ZM90.9347 32.16H105.855V20.32H109.775V49H105.855V35.6H90.9347V49H87.0147V20.32H90.9347V32.16ZM125.842 20.32C128.402 20.32 130.442 21.04 132.002 22.44C133.602 23.92 134.362 25.92 134.362 28.52C134.362 30.76 133.682 32.72 132.282 34.36C130.882 36.04 128.722 36.88 125.842 36.88H116.842V49H112.922V20.32H125.842ZM128.082 24.24C127.242 23.84 126.082 23.64 124.562 23.64H116.842V33.6H124.562C126.282 33.6 127.722 33.2 128.802 32.48C129.882 31.72 130.442 30.44 130.442 28.56C130.442 26.44 129.642 25 128.082 24.24Z" fill="#9CFE00"/>
<rect x="1.375" y="1" width="194" height="67" rx="33.5" stroke="#9CFE00" stroke-width="2"/>
</svg>
