<svg width="272" height="70" viewBox="0 0 272 70" fill="none" xmlns="http://www.w3.org/2000/svg">
<path d="M76.343 21.2995C78.903 21.2995 80.9429 22.0195 82.503 23.4195C84.103 24.8995 84.863 26.8995 84.863 29.4995C84.863 31.7395 84.183 33.6995 82.7829 35.3395C81.383 37.0195 79.2229 37.8595 76.343 37.8595H67.3429V49.9795H63.4229V21.2995H76.343ZM78.5829 25.2195C77.7429 24.8195 76.583 24.6195 75.0629 24.6195H67.3429V34.5795H75.0629C76.783 34.5795 78.2229 34.1795 79.303 33.4595C80.3829 32.6995 80.9429 31.4195 80.9429 29.5395C80.9429 27.4195 80.143 25.9795 78.5829 25.2195ZM97.1026 35.0595L105.343 21.2995H109.903L99.0626 38.4195V49.9795H95.1826V38.4195L84.3426 21.2995H88.8626L97.1026 35.0595ZM121.222 24.6995V49.9795H117.302V24.6995H107.622V21.2995H130.902V24.6995H121.222ZM135.315 33.1395H150.235V21.2995H154.155V49.9795H150.235V36.5795H135.315V49.9795H131.395V21.2995H135.315V33.1395ZM180.583 25.3795C182.463 27.9395 183.423 31.1795 183.423 35.1395C183.423 39.4195 182.343 42.9795 180.183 45.8195C177.623 49.1395 173.983 50.8195 169.263 50.8195C164.823 50.8195 161.383 49.3395 158.863 46.4595C156.583 43.6195 155.463 40.0595 155.463 35.7795C155.463 31.8995 156.423 28.5795 158.343 25.8195C160.823 22.2995 164.503 20.4995 169.343 20.4995C174.383 20.4995 178.143 22.1395 180.583 25.3795ZM177.183 43.6595C178.703 41.2195 179.463 38.3795 179.463 35.1795C179.463 31.8195 178.583 29.0995 176.823 27.0595C175.023 24.9795 172.623 23.9795 169.583 23.9795C166.583 23.9795 164.183 24.9795 162.303 27.0195C160.423 29.0595 159.503 32.0595 159.503 36.0195C159.503 39.2195 160.303 41.8995 161.903 44.0595C163.503 46.2595 166.103 47.3395 169.743 47.3395C173.143 47.3395 175.623 46.0995 177.183 43.6595ZM203.955 44.5395V21.2995H207.675V49.9795H203.315L188.595 26.7395V49.9795H184.875V21.2995H189.475L203.955 44.5395Z" fill="#9CFE00"/>
<rect x="1.02295" y="1.97949" width="269" height="67" rx="33.5" stroke="#9CFE00" stroke-width="2"/>
</svg>
