<svg width="227" height="42" viewBox="0 0 227 42" fill="none" xmlns="http://www.w3.org/2000/svg">
<g clip-path="url(#clip0_515_3664)">
<path fill-rule="evenodd" clip-rule="evenodd" d="M71.469 11.3279L65.9008 25.4303C65.9008 25.4303 63.7724 30.4518 68.7976 31.1855H98.9726C98.9726 31.1855 101.857 29.9219 102.119 27.0607H77.496C77.496 27.0607 75.6935 27.0281 75.2671 26.2455C74.8406 25.463 75.1343 24.8842 75.2993 24.3176C75.4642 23.7511 80.5055 11.2749 80.5055 11.2749L71.469 11.3075V11.3279ZM110.982 11.2953H119.942L112.157 31.1855H103.499L110.982 11.2953ZM114.535 31.2181H123.837L126.947 23.3027H148.596C148.596 23.3027 150.789 22.7688 151.642 20.0421H128.226L129.667 16.2841C129.667 16.2841 129.96 14.988 131.859 14.7883C133.758 14.5886 156.345 14.7883 156.345 14.7883C156.345 14.7883 159.218 13.4473 159.162 11.2504H125.969C125.969 11.2504 122.614 11.0548 120.912 14.7638C119.21 18.4728 114.523 31.2181 114.523 31.2181H114.535ZM141.97 31.2181C141.97 31.2181 166.661 12.2694 167.265 11.9229C168.448 11.2059 169.858 10.9754 171.203 11.279C173.235 11.6865 174.044 14.0057 174.044 14.0057L179.009 29.1638C179.227 29.5862 179.285 30.0744 179.174 30.5374C179.107 30.7121 178.995 30.8651 178.849 30.98C178.703 31.0949 178.528 31.1673 178.345 31.1895H160.003L159.347 27.6884H167.47C167.603 27.6892 167.734 27.6613 167.856 27.6065C167.977 27.5517 168.086 27.4712 168.174 27.3705C168.548 26.9955 168.262 26.0417 168.262 26.0417C168.262 26.0417 166.653 20.6086 166.472 20.0991C166.415 19.8443 166.286 19.612 166.1 19.4309C165.914 19.2498 165.68 19.1279 165.426 19.0802C164.883 19.0542 164.352 19.2477 163.949 19.6182L148.548 31.2262L141.97 31.2181ZM181.531 31.2181L188.451 13.6267C188.451 13.6267 189.659 10.0073 193.159 11.4216L210.057 23.3802C210.057 23.3802 211.666 24.4807 212.443 23.103L217.118 11.283H226.311L219.785 27.668C219.785 27.668 218.691 30.7086 216.619 31.3729C214.547 32.0373 212.362 30.085 212.362 30.085L196.816 18.9986C196.816 18.9986 196.116 18.4117 195.637 18.6359C195.158 18.8601 195.046 19.4511 194.893 19.8586C194.74 20.2662 190.419 31.2711 190.419 31.2711C190.419 31.2711 181.531 31.2507 181.531 31.2058V31.2181Z" fill="white"/>
<path fill-rule="evenodd" clip-rule="evenodd" d="M34.004 1.56332L34.0604 1.59592L34.1167 1.62445L34.169 1.65299L34.2293 1.67336H34.2937H34.3541H34.4184H34.4788L34.5995 1.73043H34.9535L35.5329 1.89754L36.1203 2.06872L36.6956 2.25214L37.271 2.43555L37.8463 2.63119L38.4136 2.83499L38.6993 2.94096L38.9809 3.05101L39.2625 3.16105L39.5401 3.27518L39.8177 3.39338L40.0994 3.5075L40.373 3.62978L40.6345 3.76836L40.9121 3.89471L41.1817 4.02106L41.4552 4.15556L41.7248 4.29007L41.9903 4.42457L42.2599 4.56723L42.5254 4.70988L42.791 4.86069L43.0525 5.00742L43.318 5.1623L43.5715 5.31718L43.833 5.47614L43.9215 5.5006L44.002 5.52913L44.0785 5.56989L44.1589 5.61065L44.2313 5.65956L44.3038 5.71254L44.3762 5.7696L44.4446 5.82667L44.5934 5.94487L44.7383 6.05491L44.8107 6.11198L44.8952 6.15681L44.9757 6.20572L45.0642 6.2424L45.205 6.34838L45.3458 6.44212L45.4906 6.53994L45.6315 6.63776L45.7723 6.73966L45.9131 6.84563L45.9855 6.90269L46.0539 6.96791L46.1304 7.03312L46.1988 7.10241L46.3516 7.22469L46.5045 7.34289L46.6614 7.46109L46.8143 7.57929L46.9672 7.69749L47.1201 7.81569L47.277 7.93796L47.4299 8.06024L49.51 10.0696V10.1675V10.196L49.5341 10.2531L49.5663 10.306L49.5985 10.3549L49.6387 10.3998L49.687 10.4446L49.7272 10.4854L49.8157 10.5628L49.8922 10.6443L49.9203 10.6851V10.734V10.7625V10.8074L49.9887 10.8644L50.0451 10.9174L50.0974 10.9704L50.1456 11.0275L50.2261 11.1334L50.2985 11.2394L50.375 11.3495L50.4514 11.4554L50.4997 11.5084L50.552 11.5655L50.6124 11.6185L50.6767 11.6674L50.717 11.7448L50.7612 11.8304L50.8135 11.9201L50.8658 12.0179L50.9181 12.1157L50.9664 12.2217L51.0187 12.3317L51.0549 12.4336L51.0911 12.454L51.1233 12.4785L51.1515 12.507L51.1837 12.5396L51.2319 12.613L51.2802 12.6863L51.3607 12.8534L51.4331 13.0124L51.6222 13.1999L51.8998 13.5504L52.0809 13.9091L52.2539 14.2637L52.4148 14.6346L52.5717 15.0055L52.7166 15.3886L52.8533 15.7962L52.9781 16.2038L53.0988 16.6114L53.2074 17.019L53.304 17.4266L53.3925 17.8342L53.4729 18.2417L53.5413 18.6493L53.6017 19.0569L53.65 19.4645L53.6862 19.8721L53.7184 20.3L53.7385 20.7076V21.1356V21.5676V21.9752L53.7143 22.3828L53.6822 22.8108L53.6419 23.2184L53.5856 23.6259L53.5092 24.1477L53.4367 24.5552L53.3482 24.9628L53.2517 25.3704L53.143 25.778L53.0264 26.1856L52.9499 26.4464L52.8735 26.7032L52.793 26.96L52.7005 27.2127L52.6079 27.4654L52.5114 27.714L52.4068 27.9627L52.3022 28.2113L52.1895 28.4518L52.0728 28.6963L51.9481 28.9368L51.8234 29.1813L51.6946 29.4137L51.5578 29.6501L51.421 29.8865L51.2722 30.1188L51.1273 30.347L50.9704 30.5753L50.8175 30.8035L50.6566 31.0277L50.4876 31.2437L50.3186 31.4638L50.1416 31.6839L49.9646 31.8959L49.7835 32.1119L49.5944 32.3238L49.4013 32.5358L49.2042 32.7396L49.0111 32.9434L48.8059 33.1472L48.5967 33.3469L48.3874 33.5466H48.2788L48.1742 33.6892L48.0656 33.8319L48.0093 33.9012L47.9489 33.9664L47.8886 34.0316L47.8322 34.0928L47.7679 34.158L47.7035 34.2191L47.6351 34.2762L47.5586 34.3292L47.4862 34.374L47.4098 34.4229L47.3293 34.4637L47.2408 34.5044L47.2046 34.5696L47.1603 34.6308L47.1161 34.6838L47.0678 34.7327L47.0155 34.7734L46.9632 34.8142L46.9069 34.8509L46.8465 34.8835L46.7339 34.9609L46.6132 35.0424L46.5528 35.0873L46.5005 35.1403L46.4402 35.2014L46.3879 35.2707H46.3516H46.3195H46.2913L46.2551 35.2951L46.1988 35.3563L46.1384 35.4256L46.1062 35.4582L46.074 35.4989L46.0378 35.5275L46.0016 35.556L45.9614 35.5845L45.9171 35.6049H45.8729H45.8165L45.732 35.6905L45.6395 35.7679L45.5429 35.8372L45.4504 35.9065L45.2573 36.0247L45.0642 36.1348L44.867 36.2407L44.6739 36.3549L44.5774 36.4241L44.4888 36.4934L44.3963 36.5709L44.3038 36.6565L44.2555 36.7828L44.1871 36.8073L44.1227 36.8399L44.0543 36.8766L43.9296 36.9581L43.8008 37.0437L43.6801 37.1333L43.5554 37.2149L43.487 37.2515L43.4227 37.2842L43.3543 37.3086L43.2859 37.3331L43.0927 37.5246L42.795 37.6673L42.4933 37.8099L42.1955 37.9526L41.9018 38.0952L41.6081 38.2338L41.3104 38.3724L41.0127 38.5028L40.7149 38.6373L40.4172 38.7637L40.1195 38.89L39.8177 39.0082L39.512 39.1224L39.2062 39.2365L38.9004 39.3425L38.5826 39.4362L38.2688 39.5299L38.1279 39.5992L37.9791 39.6359L37.8383 39.6889L37.6974 39.7337L37.5566 39.7786L37.4118 39.8153L37.271 39.856L37.1302 39.8886L37.0215 39.9294L36.9169 39.9742L36.8083 40.0191L36.6997 40.068L36.5951 40.1087L36.4904 40.1454H36.4341H36.3858H36.3295H36.2732L36.2008 40.1943L36.1283 40.2351L36.0439 40.2677L35.9634 40.2962L35.8749 40.3247H35.7904H35.7019H35.6093H35.5248H35.4363H35.3518L35.2633 40.3533L35.1829 40.3818L35.0984 40.4144L35.026 40.4592L34.9535 40.5082L34.6156 40.5856L34.2696 40.663L33.9236 40.7364L33.5776 40.8016L33.2275 40.8668L32.8735 40.928L32.5194 40.985L32.1573 41.0421L31.8033 41.0951L31.4412 41.144L31.075 41.1848L30.7089 41.2296L30.3428 41.2663L29.9767 41.2989L29.6065 41.3274L29.2364 41.3559L28.8662 41.3763H28.4961H28.1259H27.7477H27.3776H25.889H25.5148H25.1446H24.7745H24.4044L24.0382 41.3478L23.6721 41.3193L23.306 41.2826L22.7266 41.2092L22.1473 41.2663L21.5679 41.1766L21.0006 41.0788L20.4333 40.9769L19.866 40.8587L19.3108 40.7527L18.7516 40.6264L18.2044 40.4919L17.6492 40.3533L17.106 40.1984L16.5629 40.0435L16.0197 39.8764L15.4806 39.7011L14.9455 39.5136L14.4104 39.3262L14.2696 39.2487L14.1288 39.1672L13.9799 39.0857L13.831 39.0123L13.7586 38.9756L13.6781 38.943L13.6017 38.9186L13.5172 38.89H13.4367H13.3563H13.2678H13.1792L13.0022 38.78L12.8252 38.6659L12.6441 38.5477L12.4711 38.4132L12.3786 38.3602L12.282 38.3072L12.1855 38.2664L12.0688 38.2012L11.9682 38.1645L11.8676 38.1319L11.763 38.1034L11.6665 38.0789L11.2038 37.8059L10.7492 37.5328L10.2945 37.2515L9.83988 36.9662L9.39329 36.6687L8.95073 36.3752L8.72542 36.2204L8.50816 36.0655L8.28688 35.9065L8.07364 35.7476L7.85236 35.5845L7.64314 35.4093L7.42588 35.2421L7.21667 35.075L6.99941 34.8998L6.78617 34.7449L6.57696 34.5656L6.37177 34.3862L6.16256 34.2028L5.95737 34.0194L5.75218 33.8278L5.55101 33.6363L5.34984 33.4447L5.14868 33.245L4.95153 33.0412L4.75439 32.8374V32.7844L4.70611 32.707L4.6699 32.6581L4.62564 32.6091L4.52506 32.5154L4.42448 32.4257L4.31182 32.3279L4.19515 32.2179L4.14687 32.1608L4.09456 32.0997L4.02214 32.0344V31.9611L3.93363 31.8918L3.87328 31.8347L3.82098 31.7736L3.7727 31.7165L3.68821 31.5943L3.61981 31.4842L3.5836 31.4231L3.53934 31.3579L3.49106 31.2967L3.44278 31.2397L3.38243 31.1785L3.31806 31.1215L3.21748 31.0766L3.13299 31.0196L3.09275 30.9136L3.04447 30.8035L3.00826 30.669L2.94791 30.5631L2.88354 30.4571L2.81514 30.3633L2.74675 30.2614L2.67433 30.1514H2.64214L2.61398 30.1269V30.0984V30.0699L2.58581 30.0006L2.55765 29.9313V29.8987V29.8579V29.8253L2.53351 29.7927L2.41281 29.7397L2.38062 29.7112L2.34039 29.6867H2.29211V29.6134V29.5482V29.487L2.26395 29.43L2.23176 29.3648L2.19957 29.3077L2.16336 29.2506L2.12313 29.1936L2.01048 29.0591L1.93403 28.9286L1.89782 28.8593L1.86564 28.786L1.83747 28.7045V28.6189L1.74091 28.5211L1.56389 28.1746L1.39088 27.8159L1.238 27.4532L1.09316 27.0945L0.956363 26.7236L0.827616 26.3445L0.706916 25.9696L0.594263 25.5864L0.493679 25.1789L0.401143 24.7713L0.320676 24.3637L0.244233 23.9561L0.179859 23.5485L0.131579 23.1409L0.0873226 22.7333L0.0511126 22.3257L0.0229492 21.9182V21.5106V20.6954V20.2878L0.0430659 19.8802L0.0752526 19.4726L0.115486 19.0651L0.167789 18.6575L0.224116 18.2499L0.300559 17.8423L0.377003 17.4347L0.469539 17.0271L0.566099 16.6195L0.674729 16.2364L0.779336 15.9959L0.871873 15.731L0.968433 15.4742L1.06902 15.2174L1.17362 14.9607L1.2903 14.708L1.40295 14.4512L1.52365 14.2026L1.64435 13.9499L1.77712 13.7012L1.90989 13.4526L2.04669 13.208L2.19153 12.9594L2.33637 12.7352L2.49328 12.4907L2.64616 12.2461L2.8071 12.0057L2.96803 11.7693L3.13701 11.5125L3.31001 11.2761L3.48302 11.0438L3.66809 10.8114L3.84914 10.575L4.03824 10.3468L4.23136 10.1185L4.42448 9.88215L4.62162 9.6539L4.82681 9.42973L5.03602 9.21371L5.24524 8.98953L5.45445 8.76944L5.67573 8.55342L5.89299 8.3374L5.96139 8.31294L6.02576 8.28849L6.08611 8.25588L6.14646 8.2192L6.20279 8.18251L6.25509 8.13768L6.3074 8.09692L6.35568 8.05209L6.45224 7.96242L6.54477 7.8809L6.59305 7.84422L6.64133 7.80753L6.69364 7.78716L6.74594 7.7627L6.79824 7.69749L6.85457 7.63227L6.91492 7.57521L6.97125 7.52222L7.08792 7.42848L7.20862 7.34289L7.31725 7.26545L7.42186 7.188L7.47416 7.14317L7.51842 7.09426L7.55865 7.04942L7.59486 7.00051L7.69947 6.92307L7.81212 6.85786L7.91673 6.78857L8.02134 6.72336L8.12997 6.66222L8.23457 6.60923L8.3432 6.56032L8.44781 6.51956L8.48804 6.46658L8.52828 6.42174L8.57656 6.37691L8.62081 6.33615L8.7214 6.25871L8.826 6.18942L8.93061 6.11198L9.03119 6.03454L9.0835 5.99785L9.12775 5.94894L9.16799 5.90411L9.2042 5.85112L9.27662 5.83074L9.34501 5.80629H9.41341L9.47778 5.77776L9.60251 5.71254L9.72723 5.63918L9.85195 5.56989L9.9807 5.5006L10.0451 5.47614L10.1054 5.44354L10.1738 5.42316H10.2503L10.2985 5.37017L10.3589 5.32126L10.4152 5.2805L10.4715 5.23567L10.5963 5.16638L10.721 5.10116L10.8618 4.99112L10.9865 4.93405L11.1032 4.87292L11.2159 4.80363L11.4975 4.66097L11.7832 4.51832L12.0648 4.37974L12.3504 4.24116L12.6321 4.10665L12.9177 3.98438L13.1994 3.86618L13.4649 3.76836V3.73575L13.485 3.7113V3.68684H13.5051H13.5494H13.6419H13.7707L14.1086 3.52788L14.5271 3.36077L14.8851 3.20589L15.2392 3.07138L15.5772 2.95319L15.9393 2.82276L16.2973 2.70048L16.6635 2.58228L17.0215 2.46816L17.3917 2.35811L17.7578 2.24806L18.128 2.13801L18.5061 2.03204L18.8763 1.9383L19.2505 1.84455L19.6206 1.75081L19.6407 1.73043L19.6689 1.71005H19.7011H19.7333H19.8057H19.8459H19.9264H20.1155H20.1517H20.1879L20.5178 1.57962L20.8719 1.50625L21.2299 1.43289L21.584 1.37175L21.9662 1.32284L22.3323 1.26578L22.7025 1.20057L23.0726 1.15165L23.4508 1.1109L23.825 1.07421L24.2032 1.03753L24.6055 1.00492L24.9837 0.980469H25.386H25.7884H26.1907H26.593H27.7437H28.1461H28.5484H28.9266L29.3289 1.00085L29.7031 1.0253L30.0773 1.05383L30.4474 1.08644L30.8175 1.11905L31.1837 1.15981L31.3808 1.17611L31.7429 1.22502L32.101 1.27801L32.3424 1.31061L32.5798 1.3473L32.8131 1.3799L33.0465 1.42066L33.2758 1.45327L33.5092 1.48995L33.7465 1.52256L33.992 1.56332H34.004ZM36.3697 3.85395L35.9674 3.71537L35.5651 3.58087L35.1627 3.44636L34.7604 3.32001L34.338 3.20181L33.9075 3.08361L33.477 2.97764L32.9901 2.87574L32.5556 2.77792L32.1171 2.69233L31.6785 2.61489L31.236 2.5456L30.7894 2.48446L30.3468 2.42332L29.9043 2.37441L29.4577 2.33773L28.8743 2.30105H28.2869L27.7075 2.28067H27.1241H25.9614H25.6717H25.386H25.0964H24.8107H24.5251L24.2394 2.30105H23.9578L23.6721 2.3255L23.3905 2.35403L23.1129 2.38256L22.8312 2.41517L22.5536 2.45185L22.272 2.49261L21.9984 2.5293L21.7248 2.62712L21.4512 2.67603L21.1817 2.72901L20.9201 2.77792L20.6506 2.83499L20.385 2.9002L20.2845 2.95319H20.1959L20.1155 2.98987L20.0229 3.01432L19.8459 3.05508L19.6689 3.08769L19.4919 3.12845L19.3148 3.16921L19.2263 3.19366L19.1338 3.21812L19.0493 3.25072L18.9568 3.28333L18.7154 3.3567L18.478 3.42598L18.2446 3.49935L18.0113 3.56864L17.7819 3.64201L17.5486 3.7113L17.2991 3.76836L17.0577 3.83765L16.7922 3.9477L16.5267 4.05774L16.2732 4.17594L16.0117 4.29414L15.7542 4.41234L15.5007 4.53054L15.2432 4.66097L14.9938 4.78732L14.7403 4.91775L14.4909 5.05633L14.2374 5.19491L13.9839 5.33756L13.7385 5.48429L13.489 5.63102L13.2396 5.78998L12.9942 5.94487L12.8534 6.02231L12.7085 6.10382L12.6361 6.14866L12.5677 6.20165L12.4953 6.26278L12.4269 6.33207L12.3907 6.36468L12.3464 6.39321L12.3062 6.42174L12.266 6.4462L12.1774 6.48696L12.093 6.53587H12.0447L12.0044 6.5644L11.9602 6.58885L11.9199 6.62146L11.8757 6.65814L11.8355 6.69482L11.7992 6.74373L11.763 6.78857L11.6544 6.86194L11.5498 6.93122L11.4412 7.00867L11.3366 7.07796L11.2279 7.15132L11.1233 7.22061L11.0187 7.29398L10.9061 7.36327L10.8216 7.44886L10.7331 7.53038L10.6405 7.60782L10.556 7.68118L10.383 7.81569L10.2141 7.95019L10.1296 8.0154L10.0451 8.08877L9.96461 8.15806L9.88414 8.23958L9.80367 8.32109L9.73125 8.40669L9.65481 8.53711L9.58239 8.63493L9.50997 8.67162L9.4456 8.71238L9.3772 8.75313L9.31283 8.80204L9.25248 8.85095L9.1881 8.89579L9.12775 8.94877L9.07545 9.00176L8.95877 9.11181L8.85014 9.23001L8.74151 9.34821L8.63691 9.47049L8.41965 9.72319L8.19434 9.97997L8.07766 10.1063L7.95294 10.2245L7.82419 10.3427L7.6874 10.4528V10.5058V10.5506V10.5954L7.66326 10.6362L7.63912 10.6769L7.60693 10.7136L7.5667 10.7503L7.53049 10.787L7.4983 10.8237L7.46209 10.8604L7.42991 10.9011L7.40577 10.9378L7.38163 10.9786L7.36151 11.0234V11.0723V11.1049L7.29714 11.1457L7.23679 11.1823L7.19253 11.219L7.14827 11.2639L7.11206 11.3046L7.08792 11.3495L7.05976 11.3984L7.0316 11.4391L7.00343 11.488L6.97527 11.5288L6.94308 11.5736L6.90687 11.6144L6.86664 11.6592L6.82238 11.7L6.76606 11.7407L6.69766 11.7733L6.48442 12.1809L6.26314 12.56L6.03783 12.9676L5.8246 13.3507L5.71999 13.5423L5.61538 13.7379L5.51882 13.9376L5.42226 14.1292L5.32973 14.3371L5.24121 14.5409L5.16477 14.7487L5.08833 14.9647L5.04005 15.0177L4.99579 15.0748L4.95556 15.1319L4.92337 15.193L4.89118 15.2541L4.86302 15.3153L4.83888 15.3764L4.81876 15.4375L4.77451 15.5639L4.73025 15.6862L4.70611 15.7473L4.68197 15.8044L4.64978 15.8614L4.6176 15.9185L4.49287 16.3709L4.33194 16.8111L4.21929 17.2798L4.1187 17.7526L4.07042 17.9931L4.02214 18.2377L3.98191 18.4822L3.94168 18.7268L3.90547 18.9713L3.86926 19.2199L3.84109 19.4645L3.80891 19.7131L3.78477 19.9617L3.76465 20.2145V20.4631V20.7117V20.9644V21.9752V22.2279V22.4806L3.78879 22.7333L3.81293 22.986L3.84512 23.2387L3.88133 23.4914L3.92156 23.7401L3.998 24.1477L4.08249 24.5552L4.17101 24.9628L4.27964 25.3704L4.33194 25.5701L4.38827 25.7698L4.44862 25.9696L4.50494 26.1652L4.56932 26.3568L4.63369 26.5443L4.70209 26.7318L4.77048 26.9111L4.81474 27.0537L4.859 27.1923L4.91532 27.335L4.97567 27.4736L5.04005 27.6121L5.10844 27.7507L5.18489 27.8852L5.25731 28.0238L5.41019 28.305L5.55906 28.5903L5.62745 28.7371L5.69585 28.892L5.76022 29.0468L5.81655 29.2058L5.86483 29.2303L5.90506 29.2588L5.93725 29.2873L5.96944 29.324L5.99358 29.3648L6.01772 29.4096L6.03381 29.4463V29.4911L6.07002 29.593L6.11428 29.6908L6.14244 29.7397L6.17865 29.7805L6.21888 29.8253L6.26716 29.862L6.3074 29.968L6.35165 30.0617L6.40396 30.1595L6.45626 30.2451L6.50856 30.3348L6.55684 30.4286L6.60915 30.5223L6.64536 30.6283H6.67352H6.69766H6.71778L6.75399 30.6609L6.78215 30.7057L6.83043 30.7913L6.87469 30.8769L6.89883 30.9136L6.92297 30.9462L6.95113 30.9706H6.98734H7.0839H7.11206H7.14425H7.17644L7.83626 29.6134L8.49207 28.2561L9.14787 26.9029L9.8077 25.5457L10.4997 24.2292L11.1595 22.8678L11.8113 21.5106L12.4711 20.1574L13.1269 18.8001L13.7827 17.4429L14.4426 16.0897L15.0984 14.7283L15.7542 13.3711L16.41 12.0179L17.0698 10.6606L17.7216 9.30745H27.6633L27.7598 9.4012L27.6633 9.49494L27.5385 9.74764L27.4138 9.99627L27.2931 10.2449L27.1684 10.4854L27.0437 10.7299L26.9189 10.9704L26.8023 11.215L26.6816 11.4554L26.5609 11.7L26.4442 11.9405L26.3275 12.185L26.2108 12.4255L26.0982 12.6741L25.9895 12.9146L25.8769 13.1673L25.7683 13.4159L25.5953 13.7216L25.4303 14.0273L25.2653 14.3371L25.1044 14.6509L24.9555 14.9607L24.8027 15.2745L24.6578 15.5884L24.517 15.9022L24.3722 16.216L24.2354 16.5299L24.0986 16.8396L23.9618 17.1535L23.821 17.4632L23.6842 17.773L23.5474 18.0828L23.4025 18.3844L23.2175 18.4822L23.0887 18.7186L22.96 18.9509L22.8312 19.1914L22.6985 19.4278L22.5617 19.6642L22.4249 19.9047L22.2841 20.137L22.1352 20.3693L21.9904 20.6017L21.8375 20.8299L21.6846 21.0582L21.5236 21.2783L21.3587 21.4983L21.1937 21.7103L21.0247 21.9141L20.8477 22.1138V22.1505V22.1831V22.2157V22.2483L20.8115 22.3054L20.7713 22.3584L20.727 22.4073L20.6747 22.4521L20.6184 22.501L20.5701 22.5499L20.5138 22.5907L20.4655 22.6396L20.4132 22.6844L20.3689 22.7333L20.3287 22.7863L20.2925 22.8434L20.2724 22.876V22.9086V22.9412V22.9779L17.8101 25.4642H17.7015H17.6653L17.6291 25.4845L17.5928 25.509L17.5204 25.5742L17.444 25.6516L17.3595 25.7332L17.271 25.8147L17.2227 25.8473L17.1784 25.8799L17.1261 25.9084H17.0779L17.0336 25.9573L16.9934 26.0022L16.9491 26.0429L16.9008 26.0796L16.8002 26.1448L16.6956 26.206L16.6433 26.2386L16.591 26.2712L16.5347 26.3119L16.4864 26.3486L16.4422 26.3975L16.3939 26.4505L16.3537 26.5117L16.3175 26.5769L16.2289 26.6176L16.1404 26.6584L16.0519 26.7032L15.9634 26.7521L15.8789 26.8051L15.7904 26.8622L15.7059 26.9192L15.6174 26.9804L15.4524 27.1108L15.2915 27.2494L15.1265 27.4083L14.9777 27.551L14.6639 27.71L14.342 27.873L14.0322 28.0401L13.7144 28.2072L13.4005 28.3743L13.0907 28.5333L12.7729 28.7004L12.4591 28.8634L12.1412 29.0265L11.8274 29.1813L11.5055 29.3322L11.1877 29.487L10.8618 29.6297L10.5319 29.7723L10.202 29.9028L9.86805 30.0332L9.79563 30.0658L9.72321 30.0943L9.65079 30.1188H9.57032L9.42146 30.1514L9.27662 30.1799H9.2042L9.14385 30.2044L9.07947 30.2329L9.01912 30.2655L8.95877 30.3063L8.91049 30.3511L8.88635 30.3796L8.86624 30.4082L8.84612 30.4449V30.4775L19.6367 30.5712L19.5804 30.7302L19.5281 30.8851L19.4677 31.0399L19.4074 31.1867L19.2907 31.4761L19.166 31.7573L19.0412 32.0304L18.9165 32.3035L18.7998 32.5847L18.6912 32.8659L18.659 32.9026L18.6309 32.9393V32.9841V33.0208L18.5987 33.1105L18.5745 33.2042V33.245V33.2898V33.3346L18.5504 33.3795L18.5222 33.4162L18.486 33.461L18.4458 33.4977L18.3975 33.5344L9.69102 33.6322V33.7259L9.76344 33.84L9.85195 33.9542L9.94047 34.0724L10.041 34.1906L10.0974 34.2476L10.1577 34.3047L10.21 34.3577L10.2744 34.4107L10.3388 34.4637L10.4032 34.5044L10.4715 34.5492L10.5399 34.5859L10.5762 34.6511L10.6204 34.7164L10.6647 34.7653L10.7129 34.8142L10.7653 34.859L10.8216 34.8957L10.8739 34.9324L10.9302 34.965L11.0469 35.0424L11.1676 35.1239L11.2279 35.1729L11.2802 35.2218L11.3366 35.287L11.3929 35.3522H11.4291H11.4613H11.4935H11.5216L11.5739 35.4011L11.6303 35.4541L11.6826 35.5071L11.7389 35.556H11.7671H11.7992H11.8314H11.8676L11.924 35.6212L11.9763 35.6783L12.0366 35.7272L12.093 35.772L12.1573 35.8046L12.2137 35.8372L12.278 35.8658L12.3384 35.8902L12.4027 35.9187L12.4631 35.9473L12.5275 35.9799L12.5838 36.0125L12.6441 36.0573L12.7005 36.1022L12.7608 36.1592L12.8131 36.2285L12.9016 36.2652L12.9902 36.3059L13.0706 36.3508L13.1511 36.3997L13.312 36.4975L13.473 36.5994L13.5534 36.6442L13.6339 36.6932L13.7144 36.7339L13.7988 36.7787L13.8793 36.8114L13.9638 36.844L14.0483 36.8725H14.1368L14.2092 36.9336L14.2816 36.9948L14.3541 37.0478L14.4305 37.1048L14.5794 37.2067L14.7363 37.2964L14.8892 37.382L15.0501 37.4635L15.207 37.5328L15.3679 37.6061L15.6858 37.7325L16.0036 37.8588L16.1525 37.92L16.3094 37.9811L16.4542 38.0463L16.5951 38.1197L17.102 38.3276L17.617 38.5232L18.14 38.7066L18.6751 38.886L19.2143 39.0449L19.7654 39.1998L20.3247 39.3343L20.888 39.4607L21.4593 39.5789L22.0346 39.6767L22.622 39.7745L23.2054 39.8519L23.7968 39.9212L24.3883 39.9742L24.9797 40.0191L25.5792 40.0557H26.1746H26.7741H27.3695H27.965L28.5564 40.0272L29.1479 39.9905L29.7393 39.9416L30.2181 40.0435L30.7934 39.9661L31.3728 39.8846L31.9401 39.7867L32.4993 39.6767L33.0545 39.5585L33.5977 39.424L34.1368 39.2813L34.6679 39.1305L34.8127 39.0938L34.9535 39.0572L35.0944 39.0205L35.2352 38.9838L35.38 38.9512L35.5208 38.9104L35.6616 38.8778L35.8025 38.8411L35.903 38.7718L35.9996 38.7148L36.0921 38.6699L36.1847 38.6251L36.2692 38.5925H36.3617H36.406H36.6111H36.6393H36.6675H36.6876L36.7359 38.5517L36.7761 38.5028H36.8002H36.8244H36.8525H36.8807H36.9169H36.9531H37.0014H37.0497L37.3032 38.3602L37.5607 38.2175L37.8262 38.0749L38.1038 37.9404L38.3814 37.8099L38.659 37.6795L38.9447 37.5613L39.2263 37.4513L39.2625 37.4146L39.2987 37.3861L39.343 37.3534L39.3832 37.3249L39.4758 37.2719L39.5683 37.223L39.6729 37.1823L39.7735 37.1415L39.8781 37.1048L39.9827 37.0681L40.1275 36.9622L40.2845 36.8521L40.4373 36.7461L40.5983 36.6402L40.7592 36.5301L40.9161 36.4241L41.065 36.3141L41.2138 36.2041L41.3225 36.1348L41.4271 36.0695L41.5317 35.9962L41.6443 35.935L41.7489 35.8739L41.8535 35.8168L41.9582 35.7679L42.0668 35.7313L42.103 35.662L42.1392 35.6008L42.1835 35.5478L42.2237 35.5071L42.268 35.4622L42.3162 35.4256L42.3605 35.393L42.4088 35.3603L42.5053 35.2951L42.6099 35.2299L42.6622 35.1973L42.7186 35.1525L42.7709 35.1117L42.8232 35.0587H42.8715L42.9238 35.0302L42.964 34.9976L43.0042 34.965L43.0847 34.8835L43.1571 34.7938L43.2255 34.7041L43.302 34.6226L43.3422 34.59L43.3905 34.5574L43.4347 34.5289H43.487L43.8411 34.2069L44.1951 33.8767L44.3681 33.7178L44.5411 33.5507L44.7101 33.3836L44.8791 33.2124L45.0481 33.0412L45.213 32.87L45.374 32.6947L45.5349 32.5113L45.6918 32.3279L45.8447 32.1404L45.9936 31.9529L46.1344 31.7573V31.7247V31.688V31.6554L46.1585 31.6269L46.2148 31.5698L46.2752 31.5168L46.3074 31.4883L46.3355 31.4597L46.3597 31.4312V31.4027V31.3742V31.313V31.2763L46.4241 31.2233L46.4884 31.1663L46.5448 31.1092L46.6011 31.0481L46.6453 30.9869L46.6896 30.9217L46.7339 30.8606L46.7741 30.7995L46.8505 30.6772L46.935 30.5508L46.9753 30.4897L47.0718 30.2614L47.1201 30.2044L47.1684 30.1473L47.4299 29.7601L47.6753 29.3525L47.9087 28.9449L48.13 28.5374L48.3392 28.1053L48.5323 27.661L48.7133 27.2168L48.8823 26.7603L49.0392 26.2956L49.18 25.8269L49.3048 25.35L49.4174 24.8691L49.518 24.3841L49.6065 23.899L49.6789 23.4059L49.7353 22.9127L49.7795 22.4154L49.8117 21.9222V21.4209V20.887V20.3856L49.7835 19.8925L49.7433 19.3993L49.683 18.902L49.6105 18.4129L49.526 17.9279L49.4255 17.4469L49.3048 16.9701L49.172 16.4973L49.0272 16.0285L48.8542 15.5884L48.6811 15.1359L48.6087 14.977L48.5363 14.818L48.4639 14.6631L48.3834 14.5042L48.2225 14.1985L48.0575 13.8969L47.8886 13.5871L47.7115 13.2814L47.5345 12.9676L47.3615 12.6497L47.2891 12.507L47.2046 12.3643L47.1603 12.291L47.104 12.2217L47.0437 12.1483L46.9793 12.079H46.9511H46.923V12.0994V12.1198H46.8988H46.8666L46.6735 12.5274L46.4764 12.935L46.2792 13.3222L46.0861 13.7094L45.893 14.117L45.6958 14.5246L45.5027 14.9118L45.3056 15.3193L45.1084 15.7269L44.9153 16.1141L44.7222 16.5217L44.525 16.9293L44.2555 17.2187L44.0624 17.6263L43.8652 18.0339L43.6681 18.417L43.6037 18.523L43.5474 18.6167L43.487 18.7145L43.4347 18.8042L43.3824 18.8939L43.3261 18.9835L43.2657 19.0814L43.1973 19.1833L43.1491 19.224L43.1008 19.2607L43.0485 19.2566L43.0123 19.2933L42.9519 19.383L42.8996 19.4686L42.8433 19.5582L42.7829 19.6438L42.7467 19.6887L42.7065 19.7294L42.6663 19.7702L42.614 19.8069L42.5898 19.8599L42.5657 19.9047L42.5375 19.9577L42.5013 20.0066L42.4208 20.0963L42.3404 20.1859L42.3042 20.2348L42.268 20.2756L42.2317 20.3245L42.2036 20.3693L42.1754 20.4142V20.4672V20.5161V20.5691L42.0145 20.7158L41.8415 20.887L41.6805 21.0378L41.5196 21.1927L41.1978 21.5106L40.8799 21.8326L40.558 22.1546L40.2402 22.4725L40.0793 22.6274L39.9183 22.7822L39.7493 22.9249L39.5924 23.0716H39.5361L39.4798 23.092L39.4315 23.1205L39.3752 23.1572L39.2706 23.2224L39.166 23.304L39.0573 23.3855L38.9487 23.4711L38.8441 23.5485L38.7355 23.6259H38.647L38.5665 23.6586L38.49 23.6912L38.4096 23.736L38.3372 23.7808L38.2647 23.8338L38.1923 23.8868L38.1239 23.9398L38.0475 23.9928L37.9791 24.0458L37.9067 24.0947L37.8302 24.1436L37.7578 24.1884L37.6733 24.221L37.5928 24.2536H37.5043V24.2822V24.3025V24.3229L37.4158 24.433L37.3796 24.4574H37.3434H37.2951H37.2549H37.2106H37.1664H37.1221H37.0819H37.0416L37.0095 24.4819L36.9773 24.5104V24.5308V24.5593L36.8566 24.6245L36.7318 24.6938L36.6071 24.755L36.4824 24.8161L36.233 24.9261L35.9875 25.0362L35.7381 25.1462L35.4886 25.2604L35.3639 25.3174L35.2392 25.3786L35.1185 25.4438L34.9938 25.5171L34.9374 25.5498L34.8771 25.5742H34.8127H34.7524L34.5995 25.778L34.4707 25.8106H34.4104L34.35 25.8351L34.2977 25.8595L34.2454 25.8921L34.2213 25.9125V25.937V25.9655V25.994V26.0266V26.0592L41.5116 26.1571L41.4713 26.2997L41.4271 26.4424L41.3708 26.585L41.3104 26.7154L41.246 26.85L41.1776 26.9804L41.1092 27.0986L41.0368 27.2086V27.2779L41.0167 27.3431L40.9926 27.4083L40.9684 27.4654L40.9121 27.5714L40.8517 27.6733L40.7874 27.7711L40.723 27.8689L40.6506 27.9627L40.5822 28.0686H32.0165L31.9199 27.9708L32.4913 26.801L33.0585 25.6313L33.6258 24.4615L34.1971 23.3569L34.7644 22.1872L35.3317 21.0174L35.903 19.8476L36.4703 18.6779L37.0376 17.4999L37.6049 16.3302L38.1682 15.1808L38.7355 14.011L39.3068 12.8412L39.8741 11.6674L40.4414 10.4976L41.0087 9.32783H44.6055L44.5613 9.23409L44.513 9.14442L44.4526 9.05882L44.3883 8.96915L44.3118 8.87949L44.2313 8.79389L44.1469 8.7083L44.0583 8.62271L43.8813 8.45152L43.6962 8.28849L43.5273 8.13768L43.3744 7.99095H43.2818L43.0847 7.82791L42.8875 7.66488L42.6904 7.50592L42.5013 7.34696L42.3042 7.19208L42.103 7.03312L41.9059 6.88231L41.7087 6.73558L41.5075 6.58478L41.3064 6.44212L41.1012 6.30762L40.9 6.17311L40.6948 6.04269L40.4816 5.92041L40.2724 5.80221L40.0632 5.69216L39.8298 5.52913L39.6005 5.3987L39.3712 5.26827L39.1378 5.13785L38.9085 5.01557L38.6751 4.88922L38.4458 4.77509L38.2205 4.65689L37.9871 4.54277L37.7578 4.44087L37.5244 4.3349L37.2951 4.23708L37.0618 4.13518L36.8324 4.04144L36.6111 3.94362L36.3818 3.85395H36.3697ZM38.5464 9.30745H29.9364L29.3008 10.6199L28.6691 11.9201L28.0374 13.2325L27.4017 14.5449L26.7701 15.8614L26.1505 17.1942L25.5148 18.5067L24.8831 19.8232L24.2474 21.1356L23.6158 22.448L22.972 23.7645L22.3364 25.077L21.7248 26.3935L21.0851 27.71L20.4414 29.0387L19.8097 30.3552V30.5468H30.5037L30.556 30.4041L30.6204 30.2614L30.6848 30.1229L30.7572 29.9843L30.902 29.7153L31.0469 29.4463L31.1153 29.3077L31.1837 29.1773L31.244 29.0428L31.3044 28.9042L31.3486 28.7656L31.3808 28.6311V28.5577V28.4844V28.4151V28.3417H22.4571L22.268 28.1542L22.622 28.0156L22.9801 27.8811L23.3261 27.7426L23.6761 27.6081L23.8491 27.5306L24.0221 27.4532L24.1911 27.3798L24.3601 27.2942L24.5251 27.2086L24.69 27.1149L24.855 27.0171L25.0119 26.9111L25.1567 26.854L25.2935 26.797L25.4303 26.7399L25.5631 26.6788L25.8286 26.5565L26.0901 26.422L26.3436 26.2834L26.5971 26.1448L26.8465 26.0022L27.096 25.8595L27.1322 25.8269L27.1684 25.7984L27.2086 25.7698L27.2489 25.7454L27.3333 25.7046L27.4138 25.672L27.4943 25.6313L27.5627 25.5905L27.5949 25.5661L27.619 25.5416L27.6431 25.5131L27.6633 25.4805L27.7598 25.3704L27.8644 25.3052L27.969 25.2318L28.0736 25.1707L28.1863 25.1096L28.2909 25.0566L28.3955 25.0036L28.5001 24.9669L28.5403 24.9017L28.5846 24.8406L28.6289 24.7876L28.6731 24.7427L28.7254 24.702L28.7737 24.6612L28.83 24.6286L28.8783 24.596L28.9869 24.5349L29.0915 24.4697L29.1358 24.433L29.1841 24.3922L29.2243 24.3474L29.2605 24.2985H29.2967H29.3289H29.3611L29.3893 24.274L29.4456 24.2129L29.5059 24.1436L29.5381 24.111L29.5743 24.0702L29.6065 24.0417L29.6427 24.0132L29.687 23.9846H29.7312H29.7755H29.8278L30.1658 23.6423L30.4756 23.3284L30.7693 23.0309L31.0469 22.7456L31.3245 22.4521L31.5981 22.1586L31.8837 21.8407L32.1976 21.4983V21.4657L32.2177 21.4291V21.4005L32.2458 21.3679L32.2981 21.3149L32.3585 21.2579L32.4913 21.1519L32.6321 21.0215V20.9685V20.9237V20.8788V20.8381V20.7973L32.6602 20.7647L32.6804 20.7321L32.7085 20.6995L32.7608 20.6383L32.8051 20.5813V20.5446V20.5161V20.4835V20.4468L32.9097 20.3367L33.0062 20.2226L33.0988 20.1085L33.1873 19.9862L33.2678 19.8599L33.3522 19.7376L33.4287 19.6071L33.5051 19.4808L33.654 19.2199L33.8029 18.9591L33.8793 18.8246L33.9638 18.6942L34.0443 18.5678L34.1328 18.4374L34.2012 18.2947L34.2736 18.1521L34.346 18.0094L34.4265 17.8668L34.5069 17.7241L34.5995 17.5774L34.692 17.4347L34.7966 17.2921L35.0219 16.7989L35.4041 16.2486L35.6295 15.7514L35.8548 15.2582L36.072 14.7732L36.3014 14.2759L36.5267 13.7787L36.752 13.2855L36.9732 12.7923L37.1986 12.291L37.4158 11.7856L37.6371 11.2883L37.8664 10.7951L38.0998 10.2897L38.3251 9.79655L38.5464 9.30745Z" fill="white"/>
</g>
<defs>
<clipPath id="clip0_515_3664">
<rect width="226.312" height="40.6771" fill="white" transform="translate(0 0.917969)"/>
</clipPath>
</defs>
</svg>
