<svg width="179" height="37" viewBox="0 0 179 37" fill="none" xmlns="http://www.w3.org/2000/svg">
<g clip-path="url(#clip0_515_3671)">
<path d="M80.4082 10.6346L98.3489 28.5984L95.9141 31.0364L80.4424 15.5447V36.2802H73.1295V8.22232L70.6946 5.79292L73.1295 3.35497H80.4424L80.4082 10.6346ZM98.682 36.2545H105.995V3.31221H98.682V36.2545ZM47.5085 10.6346H69.4388V3.31221H47.5171L47.5085 10.6346ZM109.643 36.2545H142.534V28.9321H109.651L109.643 36.2545ZM36.5476 36.2545H43.8606V3.31221H36.522L36.5476 36.2545ZM47.5085 36.2545H69.4388V28.9321H47.5171L47.5085 36.2545ZM62.1515 16.1264H47.5171V23.4488H62.1515V16.1264ZM14.0279 17.3497L16.4627 19.7876L14.0279 22.2256L28.0387 36.2545H32.9083V31.3786L21.3323 19.7876L32.9083 8.19666L28.0387 3.32074L14.0279 17.3497ZM7.33003 14.9117V3.31221H0.0170898V36.2459H7.33003V24.6635L12.1996 19.7876L7.33003 14.9117ZM137.69 0.882812L135.255 3.32074H109.651V10.6432H127.934L114.521 24.0562L119.271 28.9321L137.545 10.6346H142.543V3.31221H140.108L137.69 0.882812ZM175.459 9.54824L170.222 14.792C171.197 16.2767 171.706 18.0195 171.683 19.7962C171.668 22.2189 170.7 24.5379 168.989 26.251C167.278 27.9641 164.962 28.9335 162.542 28.9492C160.776 28.9135 159.051 28.4087 157.544 27.4864L152.307 32.7301C155.218 35.0678 158.829 36.3574 162.559 36.3914C164.721 36.4004 166.864 35.9807 168.863 35.1563C170.863 34.332 172.679 33.1194 174.208 31.5885C175.737 30.0576 176.948 28.2387 177.771 26.2368C178.595 24.2349 179.014 22.0895 179.005 19.9245C179.141 16.1408 177.872 12.4408 175.442 9.53968L175.459 9.54824ZM153.529 19.8133C153.545 17.3906 154.513 15.0716 156.224 13.3585C157.935 11.6453 160.251 10.676 162.67 10.6603C164.436 10.696 166.161 11.2008 167.668 12.123L172.905 6.8793C170.49 4.91712 167.566 3.68464 164.476 3.32617C161.386 2.9677 158.259 3.49808 155.459 4.85522C152.66 6.21236 150.304 8.34007 148.669 10.9892C147.033 13.6383 146.186 16.6992 146.225 19.8133C146.201 23.5589 147.495 27.1933 149.881 30.0784L155.118 24.8346C154.088 23.3491 153.528 21.5875 153.512 19.779L153.529 19.8133Z" fill="white"/>
</g>
<defs>
<clipPath id="clip0_515_3671">
<rect width="178.979" height="35.5" fill="white" transform="translate(0 0.875)"/>
</clipPath>
</defs>
</svg>
