<svg width="195" height="69" viewBox="0 0 195 69" fill="none" xmlns="http://www.w3.org/2000/svg">
<path d="M65.975 39.76C66.055 41.36 66.415 42.68 67.095 43.72C68.415 45.6 70.655 46.56 73.935 46.56C75.375 46.56 76.735 46.36 77.895 45.92C80.255 45.12 81.375 43.68 81.375 41.6C81.375 40.04 80.895 38.92 79.935 38.24C78.935 37.6 77.375 37.04 75.295 36.56L71.375 35.68C68.855 35.12 67.055 34.48 66.015 33.8C64.175 32.6 63.255 30.8 63.255 28.4C63.255 25.84 64.175 23.72 65.935 22.08C67.735 20.4 70.255 19.6 73.535 19.6C76.535 19.6 79.095 20.32 81.215 21.76C83.295 23.2 84.335 25.56 84.335 28.72H80.695C80.495 27.2 80.095 26 79.455 25.2C78.255 23.68 76.215 22.96 73.415 22.96C71.135 22.96 69.455 23.44 68.455 24.4C67.455 25.36 66.975 26.48 66.975 27.76C66.975 29.16 67.535 30.2 68.695 30.84C69.495 31.24 71.215 31.76 73.935 32.4L77.935 33.32C79.895 33.76 81.375 34.36 82.455 35.12C84.255 36.48 85.175 38.4 85.175 40.96C85.175 44.16 84.015 46.44 81.735 47.8C79.415 49.16 76.735 49.84 73.655 49.84C70.095 49.84 67.295 48.92 65.295 47.12C63.255 45.28 62.255 42.84 62.295 39.76H65.975ZM106.775 47.92C105.695 48.48 104.535 48.96 103.295 49.32C102.055 49.68 100.695 49.84 99.2147 49.84C94.7747 49.84 91.2947 48.36 88.7747 45.48C86.5347 42.64 85.4147 39.08 85.4147 34.8C85.4147 30.92 86.3747 27.6 88.2947 24.84C90.7747 21.32 94.4547 19.52 99.2947 19.52C104.335 19.52 108.095 21.16 110.535 24.4C112.415 26.96 113.375 30.2 113.375 34.16C113.375 36 113.135 37.8 112.695 39.48C112.015 42.08 110.855 44.2 109.215 45.84L113.135 48.92L111.215 51.28L106.775 47.92ZM101.975 46.2C102.655 46.08 103.255 45.88 103.815 45.56L100.655 43.08L102.615 40.68L106.335 43.6C107.535 42.24 108.335 40.72 108.775 39.04C109.175 37.36 109.415 35.76 109.415 34.2C109.415 30.84 108.535 28.12 106.775 26.08C104.975 24 102.575 23 99.5347 23C96.4147 23 93.9747 23.96 92.1747 25.92C90.3347 27.92 89.4547 30.96 89.4547 35.04C89.4547 38.52 90.3347 41.24 92.0547 43.28C93.8147 45.36 96.3347 46.36 99.6947 46.36C100.495 46.36 101.255 46.32 101.975 46.2ZM118.707 45.6H133.267V49H114.827V20.32H118.707V45.6Z" fill="#9CFE00"/>
<rect x="1.375" y="1" width="192" height="67" rx="33.5" stroke="#9CFE00" stroke-width="2"/>
</svg>
