<svg width="300" height="70" viewBox="0 0 300 70" fill="none" xmlns="http://www.w3.org/2000/svg">
<path d="M66.4101 40.3513C66.4901 41.9513 66.8501 43.2713 67.5301 44.3113C68.8501 46.1913 71.0901 47.1513 74.3701 47.1513C75.8101 47.1513 77.1701 46.9513 78.3301 46.5113C80.6901 45.7113 81.8101 44.2713 81.8101 42.1913C81.8101 40.6313 81.3301 39.5113 80.3701 38.8313C79.3701 38.1913 77.8101 37.6313 75.7301 37.1513L71.8101 36.2713C69.2901 35.7113 67.4901 35.0713 66.4501 34.3913C64.6101 33.1913 63.6901 31.3913 63.6901 28.9913C63.6901 26.4313 64.6101 24.3113 66.3701 22.6713C68.1701 20.9913 70.6901 20.1913 73.9701 20.1913C76.9701 20.1913 79.5301 20.9113 81.6501 22.3513C83.7301 23.7913 84.7701 26.1513 84.7701 29.3113H81.1301C80.9301 27.7913 80.5301 26.5913 79.8901 25.7913C78.6901 24.2713 76.6501 23.5513 73.8501 23.5513C71.5701 23.5513 69.8901 24.0313 68.8901 24.9913C67.8901 25.9513 67.4101 27.0713 67.4101 28.3513C67.4101 29.7513 67.9701 30.7913 69.1301 31.4313C69.9301 31.8313 71.6501 32.3513 74.3701 32.9913L78.3701 33.9113C80.3301 34.3513 81.8101 34.9513 82.8901 35.7113C84.6901 37.0713 85.6101 38.9913 85.6101 41.5513C85.6101 44.7513 84.4501 47.0313 82.1701 48.3913C79.8501 49.7513 77.1701 50.4313 74.0901 50.4313C70.5301 50.4313 67.7301 49.5113 65.7301 47.7113C63.6901 45.8713 62.6901 43.4313 62.7301 40.3513H66.4101ZM97.8898 34.6713L106.13 20.9113H110.69L99.8498 38.0313V49.5913H95.9698V38.0313L85.1298 20.9113H89.6498L97.8898 34.6713ZM124.529 45.1513L132.729 20.9113H138.209V49.5913H134.529V32.6713C134.529 32.0713 134.529 31.1113 134.569 29.7513C134.569 28.3913 134.609 26.9513 134.609 25.3913L126.409 49.5913H122.569L114.329 25.3913V26.2713C114.329 26.9913 114.369 28.0313 114.409 29.4713C114.409 30.9113 114.449 31.9913 114.449 32.6713V49.5913H110.729V20.9113H116.289L124.529 45.1513ZM161.21 24.4313H145.21V33.1113H159.29V36.5513H145.21V49.5913H141.29V20.9113H161.21V24.4313ZM185.823 24.9913C187.703 27.5513 188.663 30.7913 188.663 34.7513C188.663 39.0313 187.583 42.5913 185.423 45.4313C182.863 48.7513 179.223 50.4313 174.503 50.4313C170.063 50.4313 166.623 48.9513 164.103 46.0713C161.823 43.2313 160.703 39.6713 160.703 35.3913C160.703 31.5113 161.663 28.1913 163.583 25.4313C166.063 21.9113 169.743 20.1113 174.583 20.1113C179.623 20.1113 183.383 21.7513 185.823 24.9913ZM182.423 43.2713C183.943 40.8313 184.703 37.9913 184.703 34.7913C184.703 31.4313 183.823 28.7113 182.063 26.6713C180.263 24.5913 177.863 23.5913 174.823 23.5913C171.823 23.5913 169.423 24.5913 167.543 26.6313C165.663 28.6713 164.743 31.6713 164.743 35.6313C164.743 38.8313 165.543 41.5113 167.143 43.6713C168.743 45.8713 171.343 46.9513 174.983 46.9513C178.383 46.9513 180.863 45.7113 182.423 43.2713ZM209.196 44.1513V20.9113H212.916V49.5913H208.556L193.836 26.3513V49.5913H190.116V20.9113H194.716L209.196 44.1513ZM226.343 34.6713L234.583 20.9113H239.143L228.303 38.0313V49.5913H224.423V38.0313L213.583 20.9113H218.103L226.343 34.6713Z" fill="#9CFE00"/>
<rect x="1.81012" y="1.59131" width="297" height="67" rx="33.5" stroke="#9CFE00" stroke-width="2"/>
</svg>
