<svg width="358" height="69" viewBox="0 0 358 69" fill="none" xmlns="http://www.w3.org/2000/svg">
<path d="M77.215 20.32H81.415L87.895 43.64L93.335 20.32H97.575L90.055 49H85.975L79.335 25.2L72.695 49H68.615L61.095 20.32H65.335L70.735 43.64L77.215 20.32ZM121.628 24.4C123.508 26.96 124.468 30.2 124.468 34.16C124.468 38.44 123.388 42 121.228 44.84C118.668 48.16 115.028 49.84 110.308 49.84C105.868 49.84 102.428 48.36 99.9084 45.48C97.6284 42.64 96.5084 39.08 96.5084 34.8C96.5084 30.92 97.4684 27.6 99.3884 24.84C101.868 21.32 105.548 19.52 110.388 19.52C115.428 19.52 119.188 21.16 121.628 24.4ZM118.228 42.68C119.748 40.24 120.508 37.4 120.508 34.2C120.508 30.84 119.628 28.12 117.868 26.08C116.068 24 113.668 23 110.628 23C107.628 23 105.228 24 103.348 26.04C101.468 28.08 100.548 31.08 100.548 35.04C100.548 38.24 101.348 40.92 102.948 43.08C104.548 45.28 107.148 46.36 110.788 46.36C114.188 46.36 116.668 45.12 118.228 42.68ZM139.681 20.32C141.881 20.32 143.681 20.64 145.081 21.28C147.801 22.48 149.121 24.76 149.121 28.04C149.121 29.76 148.761 31.16 148.081 32.28C147.361 33.36 146.361 34.24 145.081 34.88C146.201 35.36 147.041 35.96 147.641 36.68C148.201 37.44 148.521 38.64 148.561 40.32L148.721 44.16C148.721 45.24 148.841 46.08 148.961 46.6C149.201 47.52 149.601 48.12 150.241 48.36V49H145.441C145.321 48.76 145.241 48.44 145.161 48.04C145.081 47.64 145.001 46.88 144.961 45.76L144.721 41C144.601 39.12 143.921 37.88 142.641 37.24C141.881 36.88 140.721 36.68 139.121 36.68H130.281V49H126.401V20.32H139.681ZM139.281 33.44C141.081 33.44 142.521 33.08 143.601 32.36C144.641 31.64 145.201 30.32 145.201 28.4C145.201 26.36 144.441 24.96 142.961 24.24C142.161 23.84 141.121 23.64 139.761 23.64H130.281V33.44H139.281ZM163.388 20.32C167.348 20.32 170.388 21.72 172.588 24.52C174.508 27.04 175.468 30.28 175.468 34.2C175.468 37.28 174.908 40 173.748 42.48C171.748 46.84 168.268 49 163.348 49H151.788V20.32H163.388ZM162.628 45.68C163.908 45.68 165.028 45.56 165.868 45.28C167.348 44.76 168.588 43.8 169.548 42.32C170.308 41.2 170.908 39.72 171.228 37.88C171.428 36.8 171.508 35.8 171.508 34.88C171.508 31.32 170.828 28.56 169.388 26.6C167.988 24.64 165.708 23.64 162.588 23.64H155.668V45.68H162.628ZM190.536 20.32C193.096 20.32 195.136 21.04 196.696 22.44C198.296 23.92 199.056 25.92 199.056 28.52C199.056 30.76 198.376 32.72 196.976 34.36C195.576 36.04 193.416 36.88 190.536 36.88H181.536V49H177.616V20.32H190.536ZM192.776 24.24C191.936 23.84 190.776 23.64 189.256 23.64H181.536V33.6H189.256C190.976 33.6 192.416 33.2 193.496 32.48C194.576 31.72 195.136 30.44 195.136 28.56C195.136 26.44 194.336 25 192.776 24.24ZM214.495 20.32C216.695 20.32 218.495 20.64 219.895 21.28C222.615 22.48 223.935 24.76 223.935 28.04C223.935 29.76 223.575 31.16 222.895 32.28C222.175 33.36 221.175 34.24 219.895 34.88C221.015 35.36 221.855 35.96 222.455 36.68C223.015 37.44 223.335 38.64 223.375 40.32L223.535 44.16C223.535 45.24 223.655 46.08 223.775 46.6C224.015 47.52 224.415 48.12 225.055 48.36V49H220.255C220.135 48.76 220.055 48.44 219.975 48.04C219.895 47.64 219.815 46.88 219.775 45.76L219.535 41C219.415 39.12 218.735 37.88 217.455 37.24C216.695 36.88 215.535 36.68 213.935 36.68H205.095V49H201.215V20.32H214.495ZM214.095 33.44C215.895 33.44 217.335 33.08 218.415 32.36C219.455 31.64 220.015 30.32 220.015 28.4C220.015 26.36 219.255 24.96 217.775 24.24C216.975 23.84 215.935 23.64 214.575 23.64H205.095V33.44H214.095ZM247.683 23.84H230.563V32.52H246.403V35.84H230.563V45.6H248.003V49H226.763V20.32H247.683V23.84ZM252.442 39.76C252.522 41.36 252.882 42.68 253.562 43.72C254.882 45.6 257.122 46.56 260.402 46.56C261.842 46.56 263.202 46.36 264.362 45.92C266.722 45.12 267.842 43.68 267.842 41.6C267.842 40.04 267.362 38.92 266.402 38.24C265.402 37.6 263.842 37.04 261.762 36.56L257.842 35.68C255.322 35.12 253.522 34.48 252.482 33.8C250.642 32.6 249.722 30.8 249.722 28.4C249.722 25.84 250.642 23.72 252.402 22.08C254.202 20.4 256.722 19.6 260.002 19.6C263.002 19.6 265.562 20.32 267.682 21.76C269.762 23.2 270.802 25.56 270.802 28.72H267.162C266.962 27.2 266.562 26 265.922 25.2C264.722 23.68 262.682 22.96 259.882 22.96C257.602 22.96 255.922 23.44 254.922 24.4C253.922 25.36 253.442 26.48 253.442 27.76C253.442 29.16 254.002 30.2 255.162 30.84C255.962 31.24 257.682 31.76 260.402 32.4L264.402 33.32C266.362 33.76 267.842 34.36 268.922 35.12C270.722 36.48 271.642 38.4 271.642 40.96C271.642 44.16 270.482 46.44 268.202 47.8C265.882 49.16 263.202 49.84 260.122 49.84C256.562 49.84 253.762 48.92 251.762 47.12C249.722 45.28 248.722 42.84 248.762 39.76H252.442ZM275.922 39.76C276.002 41.36 276.362 42.68 277.042 43.72C278.362 45.6 280.602 46.56 283.882 46.56C285.322 46.56 286.682 46.36 287.842 45.92C290.202 45.12 291.322 43.68 291.322 41.6C291.322 40.04 290.842 38.92 289.882 38.24C288.882 37.6 287.322 37.04 285.242 36.56L281.322 35.68C278.802 35.12 277.002 34.48 275.962 33.8C274.122 32.6 273.202 30.8 273.202 28.4C273.202 25.84 274.122 23.72 275.882 22.08C277.682 20.4 280.202 19.6 283.482 19.6C286.482 19.6 289.042 20.32 291.162 21.76C293.242 23.2 294.282 25.56 294.282 28.72H290.642C290.442 27.2 290.042 26 289.402 25.2C288.202 23.68 286.162 22.96 283.362 22.96C281.082 22.96 279.402 23.44 278.402 24.4C277.402 25.36 276.922 26.48 276.922 27.76C276.922 29.16 277.482 30.2 278.642 30.84C279.442 31.24 281.162 31.76 283.882 32.4L287.882 33.32C289.842 33.76 291.322 34.36 292.402 35.12C294.202 36.48 295.122 38.4 295.122 40.96C295.122 44.16 293.962 46.44 291.682 47.8C289.362 49.16 286.682 49.84 283.602 49.84C280.042 49.84 277.242 48.92 275.242 47.12C273.202 45.28 272.202 42.84 272.242 39.76H275.922Z" fill="#9CFE00"/>
<rect x="1.375" y="1" width="355" height="67" rx="33.5" stroke="#9CFE00" stroke-width="2"/>
</svg>
