<?xml version="1.0" encoding="utf-8"?><svg viewBox="0 0 1821 361" xmlns="http://www.w3.org/2000/svg" xmlns:xlink="http://www.w3.org/1999/xlink"><style>:root>svg{display:none}:root>svg:target{display:block}</style><svg fill="none" viewBox="0 0 98 103" id="arrow-right" xmlns="http://www.w3.org/2000/svg"><path d="m46.77.894-8.298 8.271 36.804 36.87H.689v11.717h74.588l-36.804 36.87 8.298 8.272 50.917-51-50.917-51Z" fill="currentColor"/></svg><svg fill="none" viewBox="0 0 36 35" id="btn-circle-arrow" xmlns="http://www.w3.org/2000/svg"><path fill="currentColor" d="M1.805 0h33.654v4.481H1.805z"/><path fill="currentColor" d="M30.968 33.61V0h4.487v33.61z"/><path fill="currentColor" d="M.648 31.643 30.792 1.54l3.173 3.169L3.82 34.81z"/></svg><svg fill="none" viewBox="0 0 1160 219" id="digital-design" xmlns="http://www.w3.org/2000/svg"><g style="mix-blend-mode:difference" fill="currentColor"><path d="M0 216.568V2.554h48.212c10.904 0 19.651 2.188 26.242 6.566 6.592 4.296 11.352 10.539 14.281 18.726 3.01 8.188 4.516 18.078 4.516 29.67l.122 96.55c0 14.025-1.546 25.698-4.638 35.021-3.01 9.241-7.893 16.132-14.647 20.671-6.753 4.54-15.745 6.81-26.974 6.81H0Zm32.711-25.293h10.741c3.825 0 6.998-.77 9.52-2.31 2.604-1.54 4.517-4.256 5.737-8.147 1.302-3.972 1.953-9.566 1.953-16.781l-.122-105.67c0-10.943-1.343-18.807-4.028-23.59-2.685-4.783-7.405-7.174-14.158-7.174H32.71v163.672ZM111.267 216.568V2.554h32.711v214.014h-32.711ZM204.835 218.757c-12.938 0-23.353-5.067-31.246-15.2-7.893-10.214-11.84-26.752-11.84-49.613V60.921c0-9.566.895-18.118 2.685-25.657 1.872-7.54 4.72-13.903 8.544-19.091 3.906-5.27 8.951-9.242 15.135-11.917C194.298 1.5 201.743.122 210.45.122c9.439 0 17.128 1.418 23.068 4.256 5.94 2.756 10.497 6.81 13.671 12.16 3.255 5.269 5.492 11.754 6.713 19.455 1.22 7.702 1.831 16.416 1.831 26.144v15.2h-30.514V54.963c0-9.647-1.018-16.497-3.052-20.55-1.953-4.054-5.696-6.08-11.229-6.08-6.103 0-10.334 2.391-12.694 7.174-2.36 4.702-3.54 13.092-3.54 25.171v92.78c0 13.457.977 23.104 2.93 28.941 2.034 5.755 6.225 8.633 12.572 8.633 6.184 0 10.537-2.959 13.06-8.877 2.604-5.998 3.905-15.97 3.905-29.913v-28.819h-16.477V99.711h45.039v116.857h-14.647l-5.004-21.037c-1.791 7.377-5.615 13.093-11.474 17.146-5.777 4.053-12.368 6.08-19.773 6.08ZM274.725 216.568V2.554h32.711v214.014h-32.711ZM339.122 216.568V30.765h-25.144V2.554h81.9v28.21h-24.167v185.804h-32.589ZM383.013 216.568 413.649 2.554h43.208l32.589 214.014h-30.514l-5.126-38.182h-34.664l-4.638 38.182h-31.491Zm39.302-64.326h28.073L435.986 44.749h-.489l-13.182 107.493ZM496.477 216.568V2.554h32.711v186.289h41.377v27.725h-74.088ZM608.183 216.568V2.554h48.212c10.904 0 19.651 2.188 26.242 6.566 6.591 4.296 11.351 10.539 14.281 18.726 3.011 8.188 4.516 18.078 4.516 29.67l.122 96.55c0 14.025-1.546 25.698-4.638 35.021-3.011 9.241-7.893 16.132-14.647 20.671-6.754 4.54-15.745 6.81-26.974 6.81h-47.114Zm32.711-25.293h10.741c3.824 0 6.998-.77 9.52-2.31 2.604-1.54 4.516-4.256 5.737-8.147 1.302-3.972 1.953-9.566 1.953-16.781l-.122-105.67c0-10.943-1.343-18.807-4.028-23.59-2.685-4.783-7.405-7.174-14.159-7.174h-9.642v163.672ZM718.717 216.568V2.554h72.013v28.089h-39.302v62.259h37.35v27.481h-37.35v68.096h40.767v28.089h-73.478ZM843.044 219c-8.951 0-16.437-1.378-22.459-4.134-5.94-2.838-10.659-6.932-14.158-12.282-3.418-5.431-5.859-11.998-7.323-19.699-1.465-7.782-2.198-16.618-2.198-26.509v-19.091h31.003v21.523c0 11.512.976 19.781 2.929 24.807 1.953 5.026 5.818 7.539 11.596 7.539 3.905 0 6.835-.892 8.788-2.675 2.034-1.865 3.377-4.783 4.027-8.756.733-4.053 1.099-9.322 1.099-15.807 0-8.026-1.709-15.362-5.126-22.01-3.337-6.647-8.422-13.538-15.257-20.672l-15.868-16.294a119.003 119.003 0 0 1-11.961-14.47c-3.499-5.107-6.307-10.782-8.422-17.024-2.034-6.323-3.052-13.376-3.052-21.158 0-11.269 1.384-20.794 4.15-28.576 2.767-7.782 7.446-13.66 14.037-17.632C821.44 2.027 830.472 0 841.945 0c8.626 0 15.705 1.338 21.238 4.013 5.615 2.594 9.968 6.444 13.06 11.552 3.174 5.026 5.411 11.187 6.713 18.483 1.302 7.215 1.953 15.483 1.953 24.806v13.254h-30.148V56.787c0-6.486-.366-11.876-1.098-16.173-.651-4.296-1.913-7.498-3.784-9.606-1.872-2.189-4.598-3.283-8.178-3.283-3.417 0-6.184.77-8.3 2.31-2.115 1.46-3.661 3.77-4.638 6.931-.895 3.08-1.342 7.093-1.342 12.038 0 4.46.569 8.31 1.708 11.552 1.14 3.243 2.889 6.364 5.249 9.364 2.36 2.999 5.289 6.363 8.788 10.092l17.698 19.091c8.463 9.08 15.054 18.524 19.773 28.333 4.72 9.809 7.079 20.753 7.079 32.832 0 12.808-1.383 23.59-4.149 32.345-2.767 8.674-7.405 15.24-13.915 19.699-6.51 4.459-15.379 6.688-26.608 6.688ZM899.019 216.568V2.554h32.711v214.014h-32.711ZM992.587 218.757c-12.938 0-23.353-5.067-31.246-15.2-7.893-10.214-11.84-26.752-11.84-49.613V60.921c0-9.566.896-18.118 2.686-25.657 1.871-7.54 4.719-13.903 8.544-19.091 3.905-5.27 8.95-9.242 15.135-11.917C982.05 1.5 989.495.122 998.202.122c9.438 0 17.128 1.418 23.068 4.256 5.94 2.756 10.5 6.81 13.67 12.16 3.26 5.269 5.49 11.754 6.71 19.455 1.22 7.702 1.83 16.416 1.83 26.144v15.2h-30.51V54.963c0-9.647-1.02-16.497-3.05-20.55-1.95-4.054-5.7-6.08-11.23-6.08-6.103 0-10.334 2.391-12.694 7.174-2.359 4.702-3.539 13.092-3.539 25.171v92.78c0 13.457.976 23.104 2.929 28.941 2.034 5.755 6.225 8.633 12.572 8.633 6.182 0 10.542-2.959 13.062-8.877 2.6-5.998 3.9-15.97 3.9-29.913v-28.819h-16.474V99.711h45.034v116.857h-14.64l-5.01-21.037c-1.79 7.377-5.61 13.093-11.47 17.146-5.78 4.053-12.368 6.08-19.773 6.08ZM1061.74 216.568V2.554h25.64l45.52 128.408-2.32-58.367V2.554H1160v214.014h-23.19L1090.06 83.66l1.83 56.179v76.729h-30.15Z"/></g></svg><svg fill="none" viewBox="0 0 380 300" id="digital-design-mobile" xmlns="http://www.w3.org/2000/svg"><g style="mix-blend-mode:difference" fill="currentColor"><path d="M0 144.499V2.085h32.107c7.261 0 13.086 1.456 17.476 4.37 4.389 2.858 7.559 7.012 9.51 12.46 2.005 5.449 3.007 12.03 3.007 19.744l.081 64.248c0 9.333-1.03 17.101-3.088 23.304-2.005 6.15-5.257 10.735-9.754 13.756-4.498 3.021-10.486 4.532-17.964 4.532H0Zm21.784-16.831h7.153c2.547 0 4.66-.513 6.34-1.538 1.734-1.024 3.007-2.832 3.82-5.421.867-2.643 1.3-6.365 1.3-11.166l-.08-70.317c0-7.283-.895-12.515-2.683-15.698-1.788-3.183-4.931-4.774-9.429-4.774h-6.421v108.914ZM74.098 144.499V2.085H95.88v142.414H74.098ZM136.409 145.955c-8.616 0-15.552-3.371-20.808-10.115-5.257-6.797-7.885-17.801-7.885-33.014V40.925c0-6.365.596-12.057 1.788-17.073 1.247-5.017 3.143-9.252 5.69-12.704 2.601-3.507 5.961-6.15 10.079-7.93 4.119-1.834 9.077-2.751 14.875-2.751 6.286 0 11.407.944 15.363 2.832 3.955 1.834 6.99 4.531 9.103 8.091 2.168 3.507 3.658 7.822 4.471 12.947.813 5.125 1.219 10.924 1.219 17.397V51.85h-20.321V36.96c0-6.42-.677-10.978-2.032-13.675-1.3-2.697-3.793-4.046-7.478-4.046-4.064 0-6.882 1.592-8.453 4.774-1.572 3.13-2.357 8.712-2.357 16.75v61.74c0 8.955.65 15.374 1.95 19.258 1.355 3.83 4.146 5.745 8.373 5.745 4.118 0 7.017-1.969 8.697-5.907 1.734-3.992 2.601-10.627 2.601-19.905V82.516h-10.973V66.737h29.993V144.5h-9.754l-3.332-13.999c-1.193 4.909-3.739 8.712-7.641 11.409-3.847 2.697-8.237 4.046-13.168 4.046ZM182.952 144.499V2.085h21.784v142.414h-21.784ZM225.837 144.499V20.858h-16.745V2.085h54.541v18.773h-16.094v123.641h-21.702ZM255.066 144.499 275.468 2.085h28.774l21.703 142.414h-20.321l-3.414-25.408h-23.084l-3.089 25.408h-20.971Zm26.173-42.805h18.695l-9.591-71.531h-.325l-8.779 71.531ZM330.627 144.499V2.085h21.783V126.05h27.555v18.449h-49.338ZM0 298.382V155.968h32.107c7.261 0 13.086 1.456 17.476 4.369 4.389 2.859 7.559 7.013 9.51 12.462 2.005 5.448 3.007 12.029 3.007 19.743l.081 64.248c0 9.333-1.03 17.101-3.088 23.304-2.005 6.15-5.257 10.735-9.754 13.756-4.498 3.021-10.486 4.532-17.964 4.532H0Zm21.784-16.831h7.153c2.547 0 4.66-.513 6.34-1.538 1.734-1.024 3.007-2.832 3.82-5.421.867-2.643 1.3-6.365 1.3-11.166l-.08-70.317c0-7.283-.895-12.515-2.683-15.698-1.788-3.183-4.931-4.774-9.429-4.774h-6.421v108.914ZM73.61 298.382V155.968h47.957v18.692H95.394v41.429h24.872v18.287H95.394v45.314h27.148v18.692H73.61ZM156.405 300c-5.961 0-10.946-.917-14.956-2.751-3.956-1.888-7.099-4.612-9.429-8.173-2.276-3.614-3.902-7.984-4.877-13.108-.976-5.179-1.463-11.059-1.463-17.64v-12.704h20.646v14.322c0 7.66.65 13.163 1.95 16.507 1.301 3.345 3.875 5.017 7.722 5.017 2.601 0 4.552-.593 5.853-1.78 1.354-1.241 2.248-3.183 2.682-5.826.488-2.697.732-6.204.732-10.519 0-5.341-1.138-10.223-3.414-14.646-2.222-4.424-5.609-9.009-10.161-13.756L141.124 224.1a79.155 79.155 0 0 1-7.966-9.629c-2.33-3.399-4.2-7.175-5.609-11.329-1.354-4.207-2.032-8.9-2.032-14.079 0-7.498.921-13.837 2.764-19.016 1.842-5.178 4.958-9.089 9.347-11.733 4.39-2.697 10.405-4.045 18.045-4.045 5.744 0 10.459.89 14.143 2.67 3.739 1.726 6.639 4.289 8.698 7.687 2.113 3.345 3.603 7.444 4.47 12.299.867 4.801 1.301 10.304 1.301 16.507v8.82h-20.077v-10.195c0-4.316-.244-7.903-.732-10.762-.433-2.859-1.273-4.99-2.519-6.393-1.247-1.456-3.062-2.184-5.446-2.184-2.276 0-4.119.512-5.528 1.537-1.409.971-2.438 2.509-3.088 4.612-.596 2.05-.895 4.721-.895 8.011 0 2.967.38 5.529 1.138 7.687.759 2.158 1.924 4.235 3.496 6.231 1.571 1.996 3.522 4.235 5.852 6.716l11.786 12.704c5.636 6.042 10.025 12.326 13.168 18.854 3.143 6.527 4.714 13.809 4.714 21.847 0 8.523-.921 15.698-2.763 21.524-1.843 5.772-4.931 10.142-9.267 13.109-4.335 2.967-10.241 4.45-17.719 4.45ZM193.681 298.382V155.968h21.784v142.414h-21.784ZM255.993 299.838c-8.616 0-15.553-3.371-20.809-10.114-5.256-6.798-7.884-17.802-7.884-33.015v-61.901c0-6.365.596-12.057 1.788-17.073 1.246-5.017 3.143-9.252 5.69-12.704 2.601-3.507 5.961-6.15 10.079-7.93 4.118-1.834 9.076-2.751 14.875-2.751 6.286 0 11.406.944 15.362 2.832 3.956 1.834 6.991 4.531 9.104 8.091 2.167 3.507 3.658 7.822 4.47 12.947.813 5.125 1.22 10.924 1.22 17.397v10.115h-20.321v-14.889c0-6.419-.678-10.978-2.032-13.675-1.301-2.697-3.793-4.046-7.478-4.046-4.064 0-6.882 1.592-8.454 4.774-1.571 3.129-2.357 8.712-2.357 16.75v61.74c0 8.955.65 15.374 1.951 19.258 1.355 3.83 4.145 5.745 8.372 5.745 4.118 0 7.018-1.969 8.697-5.907 1.734-3.992 2.601-10.627 2.601-19.905v-19.178h-10.973v-15.778h29.994v77.761h-9.754l-3.333-13.999c-1.192 4.909-3.739 8.712-7.641 11.409-3.847 2.698-8.236 4.046-13.167 4.046ZM302.048 298.382V155.968h17.069l30.319 85.448-1.545-38.84v-46.608h19.589v142.414h-15.443l-31.132-88.443 1.219 37.384v51.059h-20.076Z"/></g></svg><svg fill="none" viewBox="0 0 18 18" id="file" xmlns="http://www.w3.org/2000/svg"><path d="M12.416 5.375a.65.65 0 0 0 0-.907.65.65 0 0 0-.907 0L4.796 11.18c-.8.8-.8 2.114 0 2.914.8.8 2.113.8 2.913 0l7.033-7.033c.064-.032.128-.075.192-.128.94-.94 3.437-3.437 1.036-5.838-.918-.918-2.017-1.27-3.18-1.014-.95.203-1.932.811-2.914 1.793l-7.62 7.62c-.907.907-1.388 2.167-1.334 3.543.053 1.313.597 2.594 1.505 3.5.907.908 2.166 1.431 3.468 1.463h.107c1.302 0 2.497-.49 3.383-1.377l7.513-7.513a.65.65 0 0 0 0-.907.65.65 0 0 0-.907 0l-7.513 7.513c-.662.662-1.57 1.014-2.562 1.003a3.791 3.791 0 0 1-2.582-1.088c-1.441-1.441-1.516-3.885-.171-5.23l7.62-7.62c.79-.79 1.58-1.291 2.273-1.44.737-.16 1.398.053 2.007.672.597.598.768 1.153.554 1.825-.149.48-.49 1.014-1.067 1.654-.042.032-.096.064-.128.096l-7.61 7.61a.786.786 0 0 1-1.098 0 .786.786 0 0 1 0-1.1l6.702-6.723Z" fill="currentColor"/></svg><svg fill="none" viewBox="0 0 22 20" id="filter" xmlns="http://www.w3.org/2000/svg"><path d="M3.439 3.333c.244-.954.796-1.8 1.567-2.402A4.372 4.372 0 0 1 7.7 0c.975 0 1.923.327 2.694.93a4.453 4.453 0 0 1 1.567 2.403H20.9c.292 0 .572.117.778.326a1.118 1.118 0 0 1 0 1.572 1.094 1.094 0 0 1-.778.326h-8.939a4.453 4.453 0 0 1-1.567 2.402A4.372 4.372 0 0 1 7.7 8.89a4.372 4.372 0 0 1-2.694-.93 4.453 4.453 0 0 1-1.567-2.403H1.1c-.292 0-.572-.117-.778-.326a1.118 1.118 0 0 1 0-1.572c.206-.209.486-.326.778-.326h2.339ZM5.5 4.445c0 .59.232 1.155.644 1.572.413.417.973.652 1.556.652.583 0 1.143-.235 1.556-.652.412-.417.644-.982.644-1.572 0-.59-.232-1.155-.644-1.572A2.188 2.188 0 0 0 7.7 2.22c-.583 0-1.143.235-1.556.652A2.236 2.236 0 0 0 5.5 4.445Zm4.4 11.118a4.475 4.475 0 0 1 1.097-2.942 4.363 4.363 0 0 1 5.774-.741 4.447 4.447 0 0 1 1.79 2.572H20.9c.292 0 .572.117.778.325a1.118 1.118 0 0 1 0 1.573 1.094 1.094 0 0 1-.778.325h-2.339a4.449 4.449 0 0 1-1.793 2.562 4.366 4.366 0 0 1-5.765-.74A4.477 4.477 0 0 1 9.9 15.563Zm2.2 0c0 .59.232 1.156.644 1.573a2.188 2.188 0 0 0 3.111 0c.413-.417.645-.983.645-1.573s-.232-1.155-.644-1.572a2.188 2.188 0 0 0-1.556-.651c-.584 0-1.143.234-1.556.651a2.236 2.236 0 0 0-.644 1.572Zm-12.1 0c0-.295.116-.577.322-.786.206-.208.486-.325.778-.325h5.5c.292 0 .572.117.778.325a1.118 1.118 0 0 1 0 1.573 1.094 1.094 0 0 1-.778.325H1.1c-.292 0-.572-.117-.778-.325A1.118 1.118 0 0 1 0 15.563Z" fill="currentColor"/></svg><svg fill="none" viewBox="0 0 160 44" id="logo" xmlns="http://www.w3.org/2000/svg"><g clip-path="url(#ha)" fill="currentColor"><path d="M73.173 26.28c0 .84-.122 1.625-.368 2.352a5.287 5.287 0 0 1-1.103 1.864 4.884 4.884 0 0 1-1.781 1.263c-.697.286-1.508.43-2.432.43h-9.473V12.424h9.106c1.018 0 1.885.153 2.601.459.716.287 1.3.679 1.753 1.176.472.497.81 1.071 1.018 1.721.208.65.311 1.339.311 2.066 0 .344-.056.707-.17 1.09a4.36 4.36 0 0 1-.451 1.119 4.152 4.152 0 0 1-.736 1.003 3.74 3.74 0 0 1-1.046.746c.471.23.876.526 1.216.89.358.344.65.726.876 1.147.226.402.396.822.51 1.262.113.421.169.813.169 1.176Zm-5.033-7.918c0-.555-.161-1.004-.481-1.348-.32-.364-.905-.545-1.753-.545h-3.394v3.585h3.394c.791 0 1.357-.153 1.696-.458.358-.326.538-.737.538-1.234Zm.198 7.745c0-.612-.18-1.128-.538-1.549-.34-.42-.905-.63-1.696-.63h-3.592v4.216h3.592c.735 0 1.29-.182 1.668-.545.377-.382.566-.88.566-1.492ZM81.137 12.424v19.765h-4.496V12.424h4.496ZM99.334 29.463a6.562 6.562 0 0 1-1.5 1.406 9.007 9.007 0 0 1-1.696.89 8.58 8.58 0 0 1-1.753.487c-.584.096-1.132.143-1.64.143-.886 0-1.782-.124-2.687-.373a7.87 7.87 0 0 1-2.46-1.147 6.357 6.357 0 0 1-1.81-1.95c-.453-.804-.679-1.75-.679-2.84v-7.373c0-1.09.217-2.037.65-2.84a6.39 6.39 0 0 1 1.754-2.008 7.656 7.656 0 0 1 2.46-1.234 9.715 9.715 0 0 1 2.772-.401c1.15 0 2.3.172 3.45.516 1.168.325 2.14.832 2.913 1.52l-2.178 3.529c-.641-.555-1.329-.918-2.064-1.09a7.806 7.806 0 0 0-2.008-.287c-.377 0-.754.057-1.131.172a3.23 3.23 0 0 0-1.047.545 2.61 2.61 0 0 0-.791.947c-.19.382-.283.86-.283 1.434v5.594c0 .574.094 1.061.283 1.463.188.382.433.698.735.947.302.23.631.401.99.516.377.115.753.172 1.13.172.34 0 .689-.048 1.047-.143a2.625 2.625 0 0 0 1.046-.545v-2.668h-2.686V21h7.183v8.462ZM107.082 20.399h7.777v4.044h-7.777v7.746h-4.496V12.424h13.602v4.073h-9.106V20.4ZM123.223 12.424v19.765h-4.496V12.424h4.496ZM142.044 26.394c0 .994-.208 1.865-.623 2.61a5.584 5.584 0 0 1-1.696 1.836c-.698.497-1.527.87-2.489 1.119-.943.249-1.942.373-2.998.373-.716 0-1.413-.038-2.092-.115-.66-.076-1.301-.21-1.923-.401a11.404 11.404 0 0 1-1.866-.832 12.315 12.315 0 0 1-1.81-1.349l2.517-3.356c.829.67 1.659 1.167 2.488 1.492a7.457 7.457 0 0 0 2.545.459c.623 0 1.141-.058 1.556-.172.414-.115.744-.259.989-.43.265-.192.443-.393.538-.603.113-.21.169-.411.169-.602 0-.287-.075-.536-.226-.746-.132-.23-.367-.44-.707-.631-.339-.192-.792-.383-1.357-.574a33.567 33.567 0 0 0-2.064-.631 17.57 17.57 0 0 1-2.404-.832 7.188 7.188 0 0 1-1.782-1.148 4.612 4.612 0 0 1-1.074-1.606c-.245-.612-.368-1.348-.368-2.209 0-.899.17-1.702.509-2.41a5.353 5.353 0 0 1 1.47-1.836c.641-.516 1.396-.908 2.263-1.176a9.928 9.928 0 0 1 2.884-.401c1.131 0 2.244.105 3.337.315 1.113.21 2.263.717 3.45 1.52l-2.008 3.672c-.924-.592-1.772-.965-2.545-1.118a11.491 11.491 0 0 0-2.29-.23c-.717 0-1.301.124-1.753.373-.435.23-.651.622-.651 1.176 0 .249.066.478.198.689.151.191.396.382.735.573.339.192.783.383 1.329.574.547.172 1.216.373 2.008.603 1.244.344 2.243.736 2.997 1.176.755.42 1.33.89 1.726 1.405.414.498.688 1.043.82 1.636.132.573.198 1.176.198 1.807ZM155.453 32.189v-8.004h-6.222v8.004h-4.497V12.424h4.497v7.66h6.222v-7.66h4.552v19.765h-4.552ZM16.9 39.8c.1.2.2.3.3.5l.1.1c.1.1.3.4.5.7v.1c.9 1.6 1.3 1.6 1.6 1.2l.1-.1c.1-.1.2-.3.3-.4-.2-.7-.6-1.5-1.1-2.5-.8-1.5-1.8-3.2-2.5-5-.1-.4-.2-.6-.2-.9-.4-1.4-.5-2.9-.4-4.1V29c.1-.4.2-.8.4-1.4.7-2 1.9-3.9 3.7-5.8l.5-.5.1-.1c6-6 18.8-7.1 18.8-7.1l-4.9 4.1c-1.5 1.4-2.9 2.9-3.5 3.4l2.1-.5c-2 2.6-3.6 5-4.4 6.3l-.1.1s.9-3.7-.9-3.7c-1.7 0-5.1 5.2-3.9 8.1.2.4.4.8.6 1.1.9 1.3 2.4 2.2 4.3 2.4 2.5.5 6.4-.1 10.5-3.4 4.6-3.6 7.4-11.8 5-17.8-1.1-2.9-3.7-5.3-8.3-6.9-2.1-.7-3.5-.9-4.5-.9-.5-.5-1.2-1.1-2-1.7C27 3.3 23.9 2.1 20 2.8c-4.4.8-.7 1.7 1 3.1.6.5.8 1.1 0 1.9-.5.5-.6.8-.4 1l-1.2.6c-2.1 1.2-7 3.6-7.9 11.4-.6 3.2-.2 7.1 2.2 11.2l.3.6c0 .1 0 .1.1.2.4 1.1-.4 1.2-2.1 1.4-.4.1-.8.2-1.3.2-3.4.2-5 4.1-5.8 6.9.2.2.3-.2 1.2 0 0 0 2.3.8 4.8-1.5 1.8-1.7 4.6-2.2 6 0Z"/></g><defs><clipPath id="ha"><path fill="#fff" d="M0 0h160v44H0z"/></clipPath></defs></svg><svg fill="none" viewBox="0 0 1821 361" id="logo-text" xmlns="http://www.w3.org/2000/svg"><path d="M271.178 251.55c0 15.017-2.179 29.01-6.56 41.978-4.37 12.628-10.931 23.72-19.682 33.276-8.403 9.556-19.006 17.065-31.79 22.525-12.446 5.12-26.918 7.679-43.396 7.679H.687V4.288H163.19c18.167 0 33.643 2.73 46.426 8.191 12.783 5.12 23.213 12.115 31.289 20.99 8.413 8.872 14.461 19.112 18.167 30.715 3.705 11.604 5.547 23.89 5.547 36.859 0 6.143-1.003 12.628-3.03 19.454-1.678 6.825-4.37 13.48-8.065 19.965-3.367 6.484-7.737 12.456-13.121 17.917-5.383 5.46-11.606 9.898-18.679 13.31 8.413 4.096 15.65 9.386 21.698 15.87 6.397 6.143 11.606 12.969 15.65 20.478 4.032 7.167 7.062 14.674 9.078 22.524 2.027 7.509 3.029 14.505 3.029 20.989Zm-89.822-141.293c0-9.896-2.866-17.916-8.577-24.06-5.721-6.484-16.151-9.727-31.288-9.727h-60.56v63.992h60.56c14.124 0 24.216-2.731 30.275-8.191 6.386-5.802 9.59-13.14 9.59-22.014Zm3.531 138.222c0-10.922-3.193-20.136-9.59-27.645-6.059-7.508-16.151-11.262-30.275-11.262H80.93v75.254h64.092c13.121 0 23.039-3.243 29.774-9.727 6.724-6.825 10.091-15.699 10.091-26.62ZM413.305 4.288v352.72h-80.243V4.288h80.243ZM737.964 308.368c-7.738 9.898-16.653 18.259-26.744 25.085-9.754 6.485-19.846 11.774-30.275 15.87-10.43 4.095-20.859 6.996-31.289 8.703-10.429 1.707-20.194 2.559-29.272 2.559-15.813 0-31.801-2.218-47.941-6.654-16.151-4.438-30.787-11.264-43.908-20.478-13.121-9.215-23.889-20.819-32.302-34.811-8.076-14.334-12.108-31.228-12.108-50.682V116.394c0-19.453 3.869-36.346 11.607-50.68 8.075-14.335 18.505-26.28 31.288-35.835 13.121-9.898 27.757-17.236 43.908-22.014A173.364 173.364 0 0 1 620.384.698c20.521 0 41.042 3.072 61.564 9.216 20.859 5.801 38.186 14.845 51.983 27.132l-38.862 62.967c-11.443-9.898-23.714-16.382-36.836-19.454-12.783-3.412-24.728-5.119-35.833-5.119-6.724 0-13.459 1.024-20.183 3.071-6.735 2.048-12.958 5.29-18.679 9.727-5.711 4.096-10.43 9.727-14.124 16.894-3.368 6.826-5.046 15.359-5.046 25.597v99.826c0 10.238 1.678 18.942 5.046 26.108 3.356 6.826 7.737 12.458 13.121 16.894 5.384 4.095 11.269 7.167 17.655 9.215 6.735 2.047 13.459 3.071 20.194 3.071 6.049 0 12.282-.852 18.669-2.559 6.724-1.707 12.957-4.949 18.668-9.727v-47.61H609.78V157.35h128.184v151.018ZM876.321 146.605H1015.1v72.182H876.321v138.221h-80.243V4.288h242.732v72.694H876.321v69.623ZM1164.35 4.288v352.72h-80.24V4.288h80.24ZM1500.15 253.592c0 17.747-3.7 33.275-11.1 46.586-7.4 12.969-17.49 23.89-30.28 32.763-12.44 8.874-27.25 15.528-44.41 19.966-16.82 4.436-34.65 6.654-53.5 6.654-12.78 0-25.23-.682-37.33-2.048-11.78-1.364-23.22-3.754-34.32-7.166-11.11-3.755-22.21-8.703-33.31-14.846-10.76-6.484-21.53-14.505-32.3-24.061l44.91-59.896c14.81 11.945 29.61 20.819 44.41 26.621 15.14 5.46 30.29 8.191 45.43 8.191 11.1 0 20.35-1.024 27.75-3.072 7.4-2.048 13.29-4.608 17.66-7.679 4.72-3.413 7.91-6.997 9.59-10.751 2.01-3.753 3.03-7.337 3.03-10.751 0-5.119-1.34-9.555-4.03-13.31-2.36-4.095-6.56-7.849-12.62-11.262-6.06-3.413-14.14-6.826-24.23-10.238-9.75-3.413-22.04-7.168-36.84-11.263-16.15-4.436-30.45-9.385-42.89-14.846-12.45-5.801-23.05-12.627-31.79-20.477-8.41-8.191-14.81-17.747-19.18-28.668-4.37-10.922-6.56-24.061-6.56-39.418 0-16.042 3.03-30.375 9.08-43.003 6.39-12.969 15.14-23.89 26.24-32.764 11.44-9.215 24.9-16.21 40.38-20.989 15.81-4.777 32.96-7.167 51.47-7.167 20.18 0 40.04 1.877 59.55 5.632 19.85 3.754 40.37 12.798 61.57 27.132L1450.7 98.99c-16.49-10.58-31.63-17.236-45.43-19.965a204.984 204.984 0 0 0-40.86-4.096c-12.8 0-23.23 2.219-31.29 6.655-7.75 4.096-11.62 11.093-11.62 20.989 0 4.437 1.19 8.533 3.54 12.287 2.69 3.412 7.06 6.826 13.12 10.238 6.05 3.414 13.96 6.826 23.72 10.239 9.75 3.071 21.7 6.655 35.83 10.75 22.2 6.143 40.03 13.14 53.49 20.989 13.46 7.509 23.72 15.87 30.78 25.085 7.4 8.873 12.29 18.6 14.64 29.181 2.36 10.238 3.53 20.989 3.53 32.251ZM1739.44 357.008V214.18h-111.03v142.828h-80.24V4.288h80.24v136.685h111.03V4.288h81.25v352.72h-81.25Z" fill="currentColor"/></svg><svg fill="none" viewBox="0 0 66 77" id="play" xmlns="http://www.w3.org/2000/svg"><path d="M0 7.408c0-5.451 5.955-8.81 10.62-5.992L62.083 32.51c4.507 2.722 4.507 9.26 0 11.982L10.62 75.584C5.955 78.403 0 75.044 0 69.592V7.409Z" fill="currentColor"/></svg><svg fill="none" viewBox="0 0 42 42" id="vk" xmlns="http://www.w3.org/2000/svg"><path d="M41.777 30.66c-.05-.109-.098-.2-.142-.273-.729-1.312-2.121-2.923-4.177-4.833l-.043-.044-.022-.021-.022-.022h-.022c-.933-.89-1.524-1.487-1.771-1.793-.453-.584-.554-1.174-.307-1.772.175-.452.832-1.406 1.968-2.864.598-.773 1.072-1.392 1.422-1.859 2.522-3.353 3.615-5.496 3.28-6.429l-.13-.218c-.088-.131-.314-.252-.678-.361-.365-.11-.831-.127-1.4-.054l-6.297.043c-.102-.036-.248-.033-.438.011l-.284.066-.11.054-.087.066a.973.973 0 0 0-.24.23c-.088.109-.16.237-.219.382a35.698 35.698 0 0 1-2.34 4.92 46.533 46.533 0 0 1-1.487 2.351c-.452.664-.831 1.152-1.137 1.465a7.932 7.932 0 0 1-.831.755c-.248.19-.437.27-.568.24a15.91 15.91 0 0 1-.372-.087 1.453 1.453 0 0 1-.492-.536 2.398 2.398 0 0 1-.252-.853 9.386 9.386 0 0 1-.076-.886c-.007-.247-.004-.598.01-1.05.016-.451.023-.757.023-.918 0-.554.01-1.155.032-1.804s.04-1.163.055-1.541c.015-.38.022-.78.022-1.203 0-.423-.026-.755-.077-.995a3.395 3.395 0 0 0-.229-.7 1.178 1.178 0 0 0-.448-.525 2.526 2.526 0 0 0-.733-.295c-.772-.175-1.756-.27-2.952-.284-2.712-.03-4.454.146-5.226.525-.307.16-.584.379-.831.655-.263.321-.3.496-.11.525.875.131 1.494.445 1.859.94l.131.263c.102.19.204.525.306 1.006.102.481.168 1.013.197 1.596.073 1.064.073 1.976 0 2.733a32.551 32.551 0 0 1-.208 1.772c-.065.423-.164.765-.295 1.027a4.343 4.343 0 0 1-.262.482.377.377 0 0 1-.11.109c-.19.072-.386.11-.59.11-.204 0-.452-.103-.744-.307a5.245 5.245 0 0 1-.907-.842c-.314-.357-.667-.857-1.06-1.498a26.13 26.13 0 0 1-1.225-2.274l-.35-.634a54.452 54.452 0 0 1-.897-1.782c-.379-.78-.714-1.535-1.005-2.264a1.442 1.442 0 0 0-.525-.7l-.11-.065a1.498 1.498 0 0 0-.35-.186 2.324 2.324 0 0 0-.502-.142l-5.992.043c-.612 0-1.028.139-1.247.416l-.087.131c-.044.073-.066.19-.066.35 0 .16.044.357.131.59a72.148 72.148 0 0 0 2.854 5.948c1.028 1.91 1.92 3.448 2.679 4.614a54.5 54.5 0 0 0 2.318 3.302c.787 1.035 1.308 1.699 1.563 1.99.255.292.456.51.601.656l.547.525c.35.35.864.769 1.542 1.257.678.489 1.429.97 2.252 1.444.824.473 1.783.86 2.876 1.158 1.093.3 2.157.42 3.193.362h2.514c.51-.044.897-.205 1.16-.481l.087-.11c.058-.087.113-.222.163-.404a2.22 2.22 0 0 0 .077-.602 7.205 7.205 0 0 1 .142-1.694c.109-.503.233-.882.372-1.137.139-.255.296-.47.47-.645.175-.175.3-.28.372-.317a1.42 1.42 0 0 1 .175-.077c.35-.116.761-.003 1.236.34.473.342.918.765 1.334 1.268a38.77 38.77 0 0 0 1.497 1.694c.584.627 1.094 1.093 1.531 1.4l.437.262c.292.176.671.336 1.138.482.466.145.874.182 1.224.109l5.598-.087c.554 0 .985-.092 1.29-.274.306-.182.488-.383.547-.601.059-.219.062-.467.011-.744-.052-.277-.103-.47-.154-.58Z" fill="currentColor"/></svg><svg viewBox="0 0 30 16" id="w"><path d="m18.4 0-2.803 10.855L12.951 0H9.34L6.693 10.855 3.892 0H0l5.012 15.812h3.425l2.708-10.228 2.709 10.228h3.425L22.29 0h-3.892Zm6.37 13.365c0 1.506 1.12 2.635 2.615 2.635C28.879 16 30 14.87 30 13.365c0-1.506-1.12-2.636-2.615-2.636s-2.615 1.13-2.615 2.636Z" fill="currentColor"/></svg><svg fill="none" viewBox="0 0 695 165" id="web-studio" xmlns="http://www.w3.org/2000/svg"><g style="mix-blend-mode:difference" fill="#fff"><path d="M20.171 162.426.5 1.916h21.959l11.803 114.363L49.267 1.915H69.03L84.126 116.28 94.556 1.915h22.051L98.125 162.426h-24.43L59.424 55.723 44.6 162.426H20.171ZM123.432 162.426V1.916h53.982v21.066h-29.461v46.694h27.997v20.611h-27.997v51.072h30.559v21.067h-55.08ZM187.259 162.426V1.916h34.86c8.112 0 14.578 1.246 19.397 3.738 4.818 2.432 8.295 6.323 10.43 11.674 2.196 5.29 3.294 12.251 3.294 20.884v4.925c0 8.33-1.098 15.2-3.294 20.611-2.135 5.35-5.734 9.09-10.796 11.218 4.208 1.398 7.563 3.921 10.064 7.57 2.562 3.587 4.392 7.995 5.49 13.223 1.098 5.168 1.647 10.853 1.647 17.055v4.104c-.061 10.7-1.312 19.425-3.752 26.174-2.44 6.688-6.252 11.582-11.437 14.683-5.184 3.101-11.955 4.651-20.311 4.651h-35.592Zm24.521-18.969h8.692c3.233 0 5.794-.7 7.685-2.098 1.952-1.459 3.355-3.861 4.209-7.205.854-3.344 1.281-7.904 1.281-13.68v-12.95c0-7.782-.762-13.437-2.287-16.963-1.464-3.587-4.545-5.38-9.241-5.38H211.78v58.276Zm0-76.608h9.058c2.135 0 3.873-.304 5.215-.912 1.342-.608 2.379-1.641 3.111-3.1.732-1.52 1.22-3.618 1.464-6.293.305-2.676.457-6.08.457-10.215v-9.667c0-4.317-.396-7.6-1.189-9.85-.793-2.249-2.013-3.769-3.66-4.56-1.586-.79-3.66-1.185-6.222-1.185h-8.234v45.782ZM321.592 164.25c-6.71 0-12.322-1.034-16.835-3.101-4.453-2.128-7.991-5.198-10.614-9.211-2.562-4.073-4.391-8.998-5.489-14.774-1.098-5.837-1.647-12.464-1.647-19.882v-14.318h23.239v16.142c0 8.634.732 14.835 2.196 18.605 1.464 3.77 4.362 5.654 8.692 5.654 2.928 0 5.124-.668 6.588-2.006 1.525-1.398 2.531-3.587 3.019-6.566.549-3.04.824-6.992.824-11.856 0-6.019-1.281-11.522-3.843-16.507-2.501-4.986-6.313-10.154-11.437-15.504l-11.894-12.221a89.25 89.25 0 0 1-8.967-10.853c-2.623-3.83-4.727-8.086-6.313-12.768-1.525-4.742-2.287-10.032-2.287-15.868 0-8.451 1.037-15.595 3.111-21.432 2.073-5.837 5.581-10.245 10.521-13.224C305.397 1.52 312.168 0 320.768 0c6.466 0 11.773 1.003 15.92 3.01 4.209 1.945 7.472 4.833 9.79 8.664 2.379 3.77 4.057 8.39 5.033 13.862.975 5.411 1.463 11.612 1.463 18.605v9.94h-22.599v-11.49c0-4.865-.274-8.908-.823-12.13-.488-3.223-1.434-5.624-2.837-7.205-1.402-1.642-3.446-2.463-6.13-2.463-2.562 0-4.635.578-6.221 1.733-1.586 1.095-2.745 2.827-3.477 5.199-.671 2.31-1.007 5.32-1.007 9.028 0 3.344.427 6.232 1.281 8.664.854 2.432 2.166 4.773 3.935 7.023 1.769 2.25 3.964 4.772 6.587 7.57l13.267 14.318c6.344 6.809 11.284 13.892 14.822 21.249 3.538 7.357 5.307 15.565 5.307 24.624 0 9.606-1.037 17.692-3.111 24.259-2.074 6.505-5.551 11.43-10.43 14.774-4.88 3.344-11.529 5.016-19.946 5.016ZM371.42 162.426V23.073h-18.848V1.915h61.393v21.158h-18.116v139.353H371.42ZM452.814 164.25c-8.357 0-15.158-1.55-20.404-4.651-5.245-3.162-9.088-7.904-11.528-14.227-2.44-6.384-3.66-14.44-3.66-24.168V1.915h24.521v118.833c0 4.499.183 8.451.549 11.856.427 3.405 1.403 6.049 2.928 7.934 1.524 1.885 4.025 2.827 7.502 2.827 3.477 0 5.978-.912 7.503-2.736 1.586-1.884 2.561-4.529 2.927-7.934.366-3.405.549-7.387.549-11.947V1.915h24.521v119.289c0 9.728-1.22 17.784-3.66 24.168-2.379 6.323-6.191 11.065-11.437 14.227-5.184 3.101-11.955 4.651-20.311 4.651ZM501.818 162.426V1.916h36.141c8.173 0 14.73 1.64 19.671 4.924 4.941 3.222 8.509 7.904 10.705 14.045 2.257 6.14 3.385 13.558 3.385 22.252l.092 72.413c0 10.518-1.159 19.273-3.477 26.265-2.257 6.931-5.917 12.099-10.98 15.504-5.062 3.405-11.802 5.107-20.22 5.107h-35.317Zm24.521-18.969h8.051c2.867 0 5.246-.578 7.137-1.733 1.952-1.155 3.385-3.192 4.3-6.111.976-2.979 1.464-7.174 1.464-12.585l-.091-79.252c0-8.208-1.007-14.106-3.02-17.693-2.013-3.587-5.55-5.38-10.613-5.38h-7.228v122.754ZM585.225 162.426V1.916h24.52v160.51h-24.52ZM658.933 164.25c-8.357 0-15.188-1.763-20.495-5.29-5.246-3.526-9.119-8.755-11.62-15.686-2.501-6.931-3.751-15.504-3.751-25.718V44.141c0-9.242 1.22-17.146 3.66-23.712 2.44-6.567 6.313-11.613 11.62-15.14C643.653 1.764 650.607 0 659.207 0c6.466 0 11.925 1.003 16.378 3.01 4.453 2.006 8.052 4.924 10.796 8.755 2.745 3.77 4.728 8.39 5.948 13.862 1.28 5.411 1.921 11.582 1.921 18.514v73.415c0 10.214-1.22 18.787-3.66 25.718-2.379 6.931-6.16 12.16-11.345 15.686-5.185 3.527-11.956 5.29-20.312 5.29Zm0-21.158c3.05 0 5.337-.912 6.862-2.736 1.525-1.824 2.531-4.591 3.019-8.299.549-3.77.824-8.512.824-14.227V43.046c0-6.992-.671-12.373-2.013-16.142-1.281-3.83-4.087-5.746-8.418-5.746-4.452 0-7.472 1.855-9.058 5.563-1.585 3.648-2.378 9.06-2.378 16.234v74.875c0 5.836.244 10.639.732 14.409.549 3.709 1.616 6.445 3.202 8.208 1.647 1.763 4.056 2.645 7.228 2.645Z"/></g></svg><svg fill="none" viewBox="0 0 41 41" id="youtube" xmlns="http://www.w3.org/2000/svg"><path d="M20.852 35.956c-4.573-.144-8.92-.257-13.269-.425-.937-.04-1.89-.184-2.803-.4-1.713-.4-2.899-1.434-3.507-3.123C.784 30.646.608 29.245.48 27.82.2 24.472.2 21.125.336 17.778c.08-1.89.128-3.796.633-5.63.304-1.097.672-2.17 1.561-2.962.937-.841 2.034-1.346 3.283-1.402 3.428-.168 6.847-.376 10.274-.408 4.613-.048 9.233.016 13.846.104 1.994.04 4.004.144 5.982.4 1.81.24 3.163 1.25 3.883 3.011.553 1.354.761 2.771.881 4.212.313 3.612.32 7.223.144 10.835-.088 1.834-.176 3.675-.696 5.461-.593 2.05-1.85 3.404-3.948 3.868-.817.176-1.666.24-2.498.272-4.357.152-8.705.289-12.83.417Zm-4.428-9.105c3.651-1.89 7.263-3.764 10.946-5.678-3.675-1.922-7.287-3.803-10.946-5.717V26.85Z" fill="currentColor"/></svg></svg>