<svg width="71" height="91" viewBox="0 0 71 91" fill="none" xmlns="http://www.w3.org/2000/svg">
<g clip-path="url(#clip0_515_3677)">
<mask id="mask0_515_3677" style="mask-type:luminance" maskUnits="userSpaceOnUse" x="28" y="30" width="15" height="15">
<path d="M30.3746 32.744C29.2653 33.9762 28.6123 35.5525 28.5247 37.2092C28.4372 38.8659 28.9205 40.5024 29.8938 41.845C30.867 43.1875 32.2712 44.1547 33.8713 44.5846C35.4714 45.0144 37.1704 44.881 38.684 44.2065C40.1977 43.5321 41.4341 42.3576 42.1864 40.8795C42.9387 39.4014 43.1613 37.7094 42.8169 36.0867C42.4725 34.4639 41.5821 33.0088 40.2945 31.9648C39.007 30.9208 37.4004 30.3513 35.7437 30.3516C34.7319 30.3548 33.7318 30.5693 32.8074 30.9812C31.8829 31.3931 31.0544 31.9935 30.3746 32.744Z" fill="white"/>
</mask>
<g mask="url(#mask0_515_3677)">
<path d="M43.7972 30.3516H27.6709V45.7384H43.7972V30.3516Z" fill="url(#paint0_radial_515_3677)"/>
</g>
<mask id="mask1_515_3677" style="mask-type:luminance" maskUnits="userSpaceOnUse" x="14" y="2" width="49" height="20">
<path d="M14.9707 9.8228C25.6587 4.64767 33.0271 8.21738 37.604 12.7377C38.2328 13.3673 38.7734 13.9465 39.2827 14.5572C41.0327 16.6491 42.4744 18.9813 43.5641 21.4826C45.2835 21.8069 47.035 21.9274 48.7824 21.8414H49.0905H49.3734C54.1218 21.4143 58.5594 19.2941 61.8783 15.8667L62.3184 15.4071C61.6897 14.6202 60.9793 13.8395 60.2437 13.0966C54.3427 7.20705 46.5237 3.63851 38.2136 3.04212C29.9036 2.44574 21.6564 4.86128 14.977 9.84796" fill="white"/>
</mask>
<g mask="url(#mask1_515_3677)">
<path d="M21.5704 -13.5408L8.38379 19.2578L55.7172 38.341L68.9039 5.54234L21.5704 -13.5408Z" fill="url(#paint1_linear_515_3677)"/>
</g>
<mask id="mask2_515_3677" style="mask-type:luminance" maskUnits="userSpaceOnUse" x="0" y="25" width="22" height="45">
<path d="M2.01675 28.2385C-0.138309 36.3073 0.679581 44.8834 4.32078 52.3978C7.96198 59.9123 14.1831 65.8629 21.8461 69.1611C12.0383 62.5001 11.4285 54.3093 13.0442 48.0639C13.258 47.2392 13.5095 46.4459 13.7798 45.6967C14.7169 43.1317 16.017 40.7146 17.64 38.5195C17.0613 36.8674 16.2912 35.289 15.3453 33.8166L15.1755 33.5522L15.0121 33.3192C12.269 29.4124 8.21447 26.6237 3.58851 25.4621C3.38732 25.4054 3.17985 25.3551 2.9598 25.3047C2.60773 26.2742 2.28081 27.2501 2.00418 28.2637" fill="white"/>
</mask>
<g mask="url(#mask2_515_3677)">
<path d="M21.3775 21.8795L-8.55127 26.1289L-1.98478 72.5056L27.944 68.2562L21.3775 21.8795Z" fill="url(#paint2_linear_515_3677)"/>
</g>
<mask id="mask3_515_3677" style="mask-type:luminance" maskUnits="userSpaceOnUse" x="40" y="33" width="31" height="39">
<path d="M55.9419 51.7373C55.1246 51.9639 54.3073 52.1402 53.5277 52.285C50.839 52.7525 48.0974 52.833 45.386 52.5243C44.2483 53.8538 43.2693 55.3117 42.4688 56.8683C42.4185 56.9628 42.3745 57.0509 42.3242 57.1453L42.2047 57.4035C40.1972 61.7411 39.8134 66.6568 41.1233 71.2542C41.1736 71.4557 41.2365 71.6571 41.2994 71.8838C42.3116 71.7012 43.3238 71.4997 44.3297 71.2542C52.3799 69.0849 59.3818 64.0873 64.0558 57.1747C68.7298 50.262 70.7638 41.896 69.786 33.6055C68.9246 45.4478 62.1409 50.0626 55.9545 51.7876" fill="white"/>
</mask>
<g mask="url(#mask3_515_3677)">
<path d="M59.544 17.8442L20.9971 48.0781L51.821 87.4864L90.3679 57.2525L59.544 17.8442Z" fill="url(#paint3_linear_515_3677)"/>
</g>
<mask id="mask4_515_3677" style="mask-type:luminance" maskUnits="userSpaceOnUse" x="3" y="7" width="35" height="32">
<path d="M14.9681 9.82137C9.88357 13.3755 5.90947 18.3003 3.50684 24.0246C7.08452 24.786 10.3976 26.4809 13.1104 28.9376C15.8232 31.3943 17.8392 34.5255 18.9541 38.0138C19.9097 37.3843 22.8458 35.08 24.8199 28.6772C27.209 20.9271 31.7357 15.2231 37.6203 12.73C36.1619 10.9147 34.3093 9.45631 32.2034 8.46573C30.0976 7.47515 27.7939 6.97846 25.4675 7.01345C22.5126 7.01345 19.017 7.76895 14.9681 9.81507" fill="white"/>
</mask>
<g mask="url(#mask4_515_3677)">
<path d="M15.611 -8.22672L-8.89844 29.2578L29.3051 54.3068L53.8146 16.8223L15.611 -8.22672Z" fill="url(#paint4_linear_515_3677)"/>
</g>
<mask id="mask5_515_3677" style="mask-type:luminance" maskUnits="userSpaceOnUse" x="12" y="48" width="33" height="25">
<path d="M21.8478 69.1322C27.455 71.7623 33.6912 72.7489 39.835 71.9779C39.1485 69.9076 38.8086 67.7377 38.8291 65.5563C38.8247 60.3694 40.7656 55.37 44.2673 51.5482L44.3176 51.4726C43.6009 50.7108 41.1176 48.841 34.7236 50.2953C26.8397 52.0959 18.1321 51.8882 13.0459 48.0352C13.0459 48.0352 7.58247 59.8019 21.8478 69.1322Z" fill="white"/>
</mask>
<g mask="url(#mask5_515_3677)">
<path d="M43.9361 44.3338L5.03223 48.3047L7.9553 77.022L46.8591 73.0511L43.9361 44.3338Z" fill="url(#paint5_linear_515_3677)"/>
</g>
<mask id="mask6_515_3677" style="mask-type:luminance" maskUnits="userSpaceOnUse" x="43" y="16" width="27" height="36">
<path d="M47.8816 23.4701C46.3478 23.4675 44.8184 23.3071 43.3173 22.9916H43.2418C42.9526 24.0745 42.7074 27.1279 47.0518 31.8057C52.5529 37.7489 56.7212 45.3982 55.9353 51.7444C55.9353 51.7444 68.8426 50.5985 69.7668 33.5622C69.236 27.3764 66.9669 21.4676 63.222 16.5195C61.302 18.7056 58.9394 20.4577 56.2913 21.6593C53.6432 22.8609 50.7701 23.4846 47.8628 23.489" fill="white"/>
</mask>
<g mask="url(#mask6_515_3677)">
<path d="M68.7735 11.3161L36.02 17.8164L43.7507 56.8774L76.5041 50.3771L68.7735 11.3161Z" fill="url(#paint6_linear_515_3677)"/>
</g>
<mask id="mask7_515_3677" style="mask-type:luminance" maskUnits="userSpaceOnUse" x="-1" y="2" width="72" height="89">
<path d="M70.8472 2.91797H-0.0517578V90.3662H70.8472V2.91797Z" fill="white"/>
</mask>
<g mask="url(#mask7_515_3677)">
<path d="M5.54456 81.4214C6.4314 81.2927 7.32673 81.2316 8.22282 81.2389C9.5431 81.2389 10.4673 81.4403 11.1023 81.944C11.3777 82.1719 11.5954 82.4618 11.7374 82.79C11.8795 83.1183 11.9419 83.4756 11.9196 83.8327C11.9128 84.3158 11.7586 84.7852 11.4777 85.178C11.1967 85.5708 10.8024 85.8681 10.3478 86.0299V86.0677C10.6632 86.2324 10.9352 86.4694 11.1416 86.7593C11.3481 87.0492 11.4833 87.3839 11.5361 87.7361C11.8127 88.7434 12.0894 89.9081 12.2591 90.2544H10.197C9.92235 89.5833 9.71184 88.8876 9.56826 88.1768C9.32935 87.0624 8.93955 86.7602 8.12852 86.7477H7.49982V90.2544H5.50684L5.54456 81.4214ZM7.53754 85.2619H8.32971C9.33564 85.2619 9.92662 84.7582 9.92662 84.0027C9.92662 83.2472 9.36707 82.7436 8.44287 82.7436C8.13774 82.7375 7.83268 82.7585 7.53126 82.8065L7.53754 85.2619Z" fill="white"/>
<path d="M22.2014 85.6781C22.2014 88.5994 20.4284 90.3748 17.8005 90.3748C15.1725 90.3748 13.6133 88.3727 13.6133 85.8355C13.6133 83.1598 15.3171 81.1641 17.9451 81.1641C20.6799 81.1641 22.1762 83.2165 22.1762 85.6781M15.7383 85.7977C15.7383 87.5417 16.5556 88.7756 17.9073 88.7756C19.2591 88.7756 20.0449 87.4787 20.0449 85.7411C20.0449 84.1419 19.2779 82.7632 17.8885 82.7632C16.499 82.7632 15.732 84.0601 15.732 85.7914" fill="white"/>
<path d="M24.2332 88.1456C24.9256 88.4982 25.6885 88.6897 26.4651 88.706C27.3893 88.706 27.8797 88.3219 27.8797 87.7364C27.8797 87.1509 27.4522 86.8613 26.3834 86.4773C24.8996 85.961 23.9377 85.1363 23.9377 83.8456C23.9377 82.3221 25.1951 81.1573 27.3076 81.1573C28.0894 81.1417 28.8655 81.2942 29.5835 81.6044L29.1308 83.2349C28.5435 82.9492 27.8976 82.8048 27.2447 82.8131C26.3708 82.8131 25.9495 83.2098 25.9495 83.6756C25.9495 84.2486 26.4525 84.4941 27.603 84.9348C29.1748 85.514 29.9167 86.3387 29.9167 87.5916C29.9167 89.09 28.7661 90.3744 26.3205 90.3744C25.4509 90.3782 24.5916 90.1867 23.8057 89.814L24.2332 88.1456Z" fill="white"/>
<path d="M33.5162 87.4179L32.592 90.2195H31.4038L34.4279 81.3047H35.8173L38.8539 90.2195H37.5965L36.6472 87.4179H33.5162ZM36.4397 86.5176L35.5658 83.9489C35.3646 83.3634 35.2326 82.8408 35.1069 82.3183C34.9748 82.8471 34.8302 83.3886 34.6605 83.9363L33.7866 86.5176H36.4397Z" fill="white"/>
<path d="M41.5325 82.2844H38.8228V81.3086H45.4116V82.2844H42.6893V90.2234H41.5325V82.2844Z" fill="white"/>
<path d="M54.3195 85.6805C54.3195 88.7466 52.4334 90.3772 50.1826 90.3772C47.9319 90.3772 46.1841 88.5451 46.1841 85.8442C46.1841 83.0111 47.9381 81.1602 50.3146 81.1602C52.6911 81.1602 54.3195 83.0489 54.3195 85.6742M47.4038 85.819C47.4038 87.7077 48.4348 89.4328 50.2455 89.4328C52.0562 89.4328 53.0998 87.7581 53.0998 85.7309C53.0998 83.9555 52.1693 82.1045 50.2581 82.1045C48.3468 82.1045 47.4038 83.8673 47.4038 85.819Z" fill="white"/>
<path d="M63.975 86.3089C63.9121 85.0498 63.8303 83.5703 63.8429 82.4559H63.8052C63.4971 83.501 63.1325 84.628 62.6861 85.8431L61.1144 90.1746H60.2342L58.7944 85.9249C58.3669 84.6658 58.0148 83.5199 57.7634 82.4622C57.7634 83.5766 57.669 85.0687 57.5873 86.4097L57.3547 90.2312H56.2607L56.8894 81.3164H58.3543L59.8758 85.629C60.2467 86.7245 60.5485 87.7066 60.7748 88.6321H60.8126C61.0389 87.7381 61.3532 86.7433 61.7493 85.629L63.3337 81.3164H64.7986L65.3518 90.2312H64.195L63.975 86.3089Z" fill="white"/>
</g>
</g>
<defs>
<radialGradient id="paint0_radial_515_3677" cx="0" cy="0" r="1" gradientUnits="userSpaceOnUse" gradientTransform="translate(32.2105 33.2014) rotate(0.0509098) scale(10.2031 10.2445)">
<stop stop-color="#0087BB"/>
<stop offset="0.06" stop-color="#0481B4"/>
<stop offset="0.48" stop-color="#1D5887"/>
<stop offset="0.81" stop-color="#2D3E6B"/>
<stop offset="1" stop-color="#333561"/>
</radialGradient>
<linearGradient id="paint1_linear_515_3677" x1="25.1715" y1="6.41876" x2="55.6857" y2="18.6869" gradientUnits="userSpaceOnUse">
<stop stop-color="#0087BB"/>
<stop offset="0.06" stop-color="#0481B4"/>
<stop offset="0.48" stop-color="#1D5887"/>
<stop offset="0.81" stop-color="#2D3E6B"/>
<stop offset="1" stop-color="#333561"/>
</linearGradient>
<linearGradient id="paint2_linear_515_3677" x1="12.7067" y1="61.7979" x2="8.07806" y2="29.1984" gradientUnits="userSpaceOnUse">
<stop stop-color="#0087BB"/>
<stop offset="0.06" stop-color="#0481B4"/>
<stop offset="0.48" stop-color="#1D5887"/>
<stop offset="0.81" stop-color="#2D3E6B"/>
<stop offset="1" stop-color="#333561"/>
</linearGradient>
<linearGradient id="paint3_linear_515_3677" x1="66.3459" y1="42.9775" x2="40.425" y2="63.252" gradientUnits="userSpaceOnUse">
<stop stop-color="#0087BB"/>
<stop offset="0.06" stop-color="#0481B4"/>
<stop offset="0.48" stop-color="#1D5887"/>
<stop offset="0.81" stop-color="#2D3E6B"/>
<stop offset="1" stop-color="#333561"/>
</linearGradient>
<linearGradient id="paint4_linear_515_3677" x1="15.3546" y1="29.8188" x2="29.1941" y2="8.71135" gradientUnits="userSpaceOnUse">
<stop stop-color="#0087BB"/>
<stop offset="0.06" stop-color="#0481B4"/>
<stop offset="0.48" stop-color="#1D5887"/>
<stop offset="0.81" stop-color="#2D3E6B"/>
<stop offset="1" stop-color="#333561"/>
</linearGradient>
<linearGradient id="paint5_linear_515_3677" x1="39.1485" y1="58.3158" x2="14.5506" y2="60.8196" gradientUnits="userSpaceOnUse">
<stop stop-color="#0087BB"/>
<stop offset="0.06" stop-color="#0481B4"/>
<stop offset="0.48" stop-color="#1D5887"/>
<stop offset="0.81" stop-color="#2D3E6B"/>
<stop offset="1" stop-color="#333561"/>
</linearGradient>
<linearGradient id="paint6_linear_515_3677" x1="55.0646" y1="22.8581" x2="60.0923" y2="48.1914" gradientUnits="userSpaceOnUse">
<stop stop-color="#0087BB"/>
<stop offset="0.06" stop-color="#0481B4"/>
<stop offset="0.48" stop-color="#1D5887"/>
<stop offset="0.81" stop-color="#2D3E6B"/>
<stop offset="1" stop-color="#333561"/>
</linearGradient>
<clipPath id="clip0_515_3677">
<rect width="71" height="89.7424" fill="white" transform="translate(0 0.511719)"/>
</clipPath>
</defs>
</svg>
